<?xml version="1.0" standalone="no"?>
<!DOCTYPE svg PUBLIC "-//W3C//DTD SVG 1.1//EN" "http://www.w3.org/Graphics/SVG/1.1/DTD/svg11.dtd" >
<svg xmlns="http://www.w3.org/2000/svg">
<metadata></metadata>
<defs>
<font id="perpetua_titling_mtbold" horiz-adv-x="1686" >
<font-face units-per-em="2048" ascent="1638" descent="-410" />
<missing-glyph horiz-adv-x="695" />
<glyph horiz-adv-x="2048" />
<glyph horiz-adv-x="2048" />
<glyph unicode="&#xd;" horiz-adv-x="695" />
<glyph unicode=" "  horiz-adv-x="695" />
<glyph unicode="&#x09;" horiz-adv-x="695" />
<glyph unicode="&#xa0;" horiz-adv-x="695" />
<glyph unicode="!" horiz-adv-x="492" d="M53 1190q0 128 49.5 205.5t141.5 77.5q58 0 101.5 -34.5t68 -100.5t24.5 -148q0 -88 -17.5 -194.5t-39.5 -188.5q-14 -60 -58.5 -228t-54.5 -196h-43q-9 31 -47.5 179.5t-60.5 244.5q-3 15 -23 99t-30.5 155t-10.5 129zM84 145q0 68 49 115t113 47q67 0 114.5 -46.5 t47.5 -115.5q0 -68 -47.5 -114.5t-114.5 -46.5q-65 0 -113.5 47.5t-48.5 113.5z" />
<glyph unicode="&#x22;" horiz-adv-x="938" d="M57 897v35q77 45 118 104.5t48 116.5q-71 11 -110 59t-39 103q0 69 50.5 120.5t125.5 51.5q87 0 134.5 -62.5t47.5 -140.5q0 -72 -38 -151t-121.5 -143.5t-215.5 -92.5zM506 897v35q79 47 119 106t45 115q-71 11 -109.5 59t-38.5 103q0 45 22.5 85t63 63.5t88.5 23.5 q61 0 102.5 -31t62 -77t20.5 -95q0 -72 -38 -151t-121 -143t-216 -93z" />
<glyph unicode="#" horiz-adv-x="1024" d="M41 393l12 94h211l51 373h-204l12 94h205l59 424h96l-59 -424h256l57 424h97l-58 -424h209l-12 -94h-211l-49 -373h211l-13 -94h-213l-57 -426h-96l57 426h-254l-59 -426h-96l59 426h-211zM360 487h256l50 373h-254z" />
<glyph unicode="$" horiz-adv-x="1174" d="M106 1036q0 156 100 267.5t312 126.5v61h111v-61q20 -3 39 -5.5t69 -13.5q88 -18 131 -18q56 0 86 30h29v-336h-29q-62 134 -144.5 181t-180.5 63v-418q9 -4 34.5 -18t75.5 -42t75 -41.5t26 -14.5q97 -64 148.5 -124t69 -118t17.5 -137q0 -109 -57.5 -191t-159 -128 t-229.5 -52v-61h-111v61q-8 0 -136.5 15.5t-156.5 15.5t-51 -19h-29v355h29q30 -84 63.5 -135.5t75.5 -81t88.5 -40.5t116.5 -16v473q-125 58 -205.5 106.5t-125 94.5t-63 98.5t-18.5 122.5zM332 1167q0 -45 24.5 -80t61 -59t100.5 -57v364q-96 -7 -141 -54t-45 -114z M629 141q122 4 165.5 61t43.5 115q0 56 -41.5 112.5t-167.5 125.5v-414z" />
<glyph unicode="%" horiz-adv-x="1921" d="M37 1104q0 103 46.5 191t137 140t207.5 52q95 0 168 -32.5t122.5 -87t75 -122t25.5 -141.5t-23.5 -145t-73.5 -128t-125 -89.5t-169 -32.5q-86 0 -157.5 28.5t-125 83t-81 125.5t-27.5 158zM262 1102q0 -332 166 -332t166 328q0 327 -166 327q-91 0 -128.5 -93 t-37.5 -230zM424 -16l926 1503h131l-924 -1503h-133zM1104 391q0 103 46.5 191t137 140t207.5 52q124 0 211.5 -54.5t133.5 -143t46 -185.5q0 -100 -44 -191.5t-132.5 -147.5t-214.5 -56q-114 0 -203 49.5t-138.5 140.5t-49.5 205zM1329 389q0 -332 166 -332t166 328 t-166 328q-91 0 -128.5 -93t-37.5 -231z" />
<glyph unicode="&#x26;" horiz-adv-x="1706" d="M70 367q0 166 94.5 261t226.5 169q-75 71 -130.5 161.5t-55.5 182.5q0 64 37 143.5t141.5 141t290.5 61.5q148 0 233.5 -48t114.5 -109.5t29 -112.5q0 -101 -80 -182.5t-230 -153.5q61 -60 166.5 -177.5t171.5 -197.5q39 76 58.5 132.5t19.5 121.5q0 74 -37.5 116 t-91.5 44v28h467v-28q-56 -6 -97 -42t-68.5 -82.5t-106.5 -203.5q-22 -44 -43.5 -83.5t-38.5 -72.5l86 -94q54 -58 100 -97t97.5 -64t101.5 -25q44 0 74 13t67 38l16 -12q-49 -96 -136.5 -153.5t-209.5 -57.5q-97 0 -166.5 25.5t-115.5 64t-99 98.5q-77 -71 -130 -108 t-126 -58.5t-178 -21.5q-142 0 -233 43.5t-138 105.5t-64 124.5t-17 109.5zM348 520q0 -73 42 -161t118 -150t166 -62q116 0 217 101q-72 95 -201 234t-225 231q-117 -82 -117 -193zM463 1262q0 -63 44.5 -125t158.5 -181q120 67 120 170q0 28 -12.5 92t-53.5 122.5 t-118 58.5q-55 0 -97 -38t-42 -99z" />
<glyph unicode="'" horiz-adv-x="492" d="M51 897v35q77 45 118 104.5t48 116.5q-71 11 -110 59t-39 103q0 69 50.5 120.5t125.5 51.5q87 0 134.5 -62.5t47.5 -140.5q0 -72 -38 -151t-121.5 -143.5t-215.5 -92.5z" />
<glyph unicode="(" horiz-adv-x="748" d="M113 629q0 124 35 251.5t106 243t174 197.5q97 79 181.5 119t170.5 71l31 -41q-101 -59 -173 -133.5t-117 -171t-66 -229t-21 -307.5q0 -232 37 -389.5t119.5 -264.5t220.5 -190l-31 -41q-26 10 -71 28t-87.5 38.5t-90 50t-103.5 73.5q-103 83 -174 198t-106 243t-35 254 z" />
<glyph unicode=")" horiz-adv-x="748" d="M-63 -215q138 82 219.5 187.5t119 261t37.5 393.5q0 181 -20.5 309.5t-65.5 227t-115.5 172t-174.5 134.5l30 41q204 -70 352 -190q80 -63 139.5 -145t98.5 -172.5t58.5 -186t19.5 -190.5q0 -192 -81 -381t-235 -312q-143 -115 -352 -190z" />
<glyph unicode="*" horiz-adv-x="938" d="M66 1155q0 48 30.5 91.5t79.5 43.5q65 0 123 -78q53 -69 65.5 -81.5t41.5 -22.5q20 29 47 35q-4 23 -15.5 46.5t-52.5 86.5q-39 63 -39 102q0 35 26 72t97 37q72 0 96.5 -37t24.5 -68q0 -42 -47 -116q-39 -64 -47.5 -80.5t-12.5 -42.5q30 -11 45 -35q36 19 66 55l45 56 q56 71 117 71q49 0 81.5 -43.5t32.5 -93.5q0 -48 -33 -77t-75 -29q-30 0 -78 12q-69 19 -88 21.5t-59 -1.5q0 -23 -17 -53q45 -42 113 -65q63 -20 100 -47.5t37 -82.5q0 -49 -46 -86.5t-93 -37.5q-35 0 -69 29.5t-38 115.5q-3 81 -7 105t-21 53q-28 -6 -29 -6q1 0 -10 3 t-15 3q-18 -41 -22 -105q-7 -73 -14.5 -109t-31 -62.5t-67.5 -26.5q-49 0 -93 37t-44 83q0 57 39 86t133 64q27 10 44.5 21.5t29.5 27.5q-19 20 -19 53q-1 0 -12 2t-18 2q-20 0 -101 -17t-90 -17q-55 0 -82.5 34t-27.5 72z" />
<glyph unicode="+" horiz-adv-x="1124" d="M20 498v112h486v482h112v-482h486v-112h-486v-498h-112v498h-486z" />
<glyph unicode="," horiz-adv-x="492" d="M55 -215q72 36 115 93.5t43 90.5q0 16 -10 19q-86 13 -109.5 64.5t-23.5 97.5q0 75 51 120t119 45q83 0 135.5 -59t52.5 -143q0 -75 -46.5 -151t-132 -134t-194.5 -78v35z" />
<glyph unicode="-" horiz-adv-x="705" d="M74 641v176h557v-176h-557z" />
<glyph unicode="." horiz-adv-x="492" d="M84 145q0 67 46.5 114.5t115.5 47.5q68 0 115 -48t47 -114q0 -65 -47 -113t-115 -48t-115 48t-47 113z" />
<glyph unicode="/" horiz-adv-x="639" d="M10 0l451 1473h170l-453 -1473h-168z" />
<glyph unicode="0" horiz-adv-x="1389" d="M59 735q0 196 54 340.5t146.5 235t204.5 133.5t230 43q120 0 232.5 -42.5t204 -132.5t146 -235.5t54.5 -341.5q0 -256 -91 -425t-236.5 -247.5t-309.5 -78.5q-163 0 -308 78.5t-236 247.5t-91 425zM395 733q0 -96 6 -188.5t34.5 -205t92.5 -187t166 -74.5 q194 0 247.5 208t53.5 447q0 241 -54 450.5t-245 209.5q-103 0 -167 -75t-92 -182t-35 -206t-7 -197z" />
<glyph unicode="1" horiz-adv-x="725" d="M14 1036l482 453h39v-1266q0 -97 37.5 -145.5t142.5 -48.5v-29h-682v29q115 0 148.5 51t33.5 139v711q0 61 -11.5 95t-51.5 34q-42 0 -119 -49z" />
<glyph unicode="2" horiz-adv-x="1194" d="M29 0q105 98 228.5 232t205.5 239q82 102 143.5 229.5t61.5 262.5q0 74 -31 138t-90.5 104t-138.5 40q-101 0 -188 -62.5t-128 -164.5h-37q25 156 90 252t144 143t145 60.5t117 13.5q114 0 211.5 -48t155 -136.5t57.5 -204.5q0 -108 -36 -209t-105 -200.5t-173 -207.5 t-245 -233q-21 -21 -25 -19v-4h483q107 0 156 43q77 65 115 185h29l-60 -453h-1085z" />
<glyph unicode="3" horiz-adv-x="1044" d="M45 166v106q74 -56 138 -90t117 -47.5t103 -13.5q136 0 189 91t53 202q0 309 -362 309q-70 0 -152 -14v102q38 -3 78 -6q29 0 46.5 -0.5t37.5 -1.5q152 0 220.5 77t68.5 226q0 98 -41 195.5t-168 97.5q-49 0 -109.5 -26t-114.5 -92t-79 -179h-25v371h25q11 -29 31 -38.5 t30 -9.5q15 0 31 5.5t28 9.5q76 29 136.5 38t109.5 9q140 0 239.5 -50.5t149 -133t49.5 -175.5q0 -99 -59 -182t-190 -133v-4q133 -24 212 -92t107.5 -147t28.5 -150q0 -99 -47.5 -199.5t-154 -168.5t-267.5 -68q-144 0 -249.5 49.5t-209.5 132.5z" />
<glyph unicode="4" horiz-adv-x="1323" d="M29 573v29l743 901h180v-817h338v-113h-338v-354q0 -78 29.5 -134t138.5 -56h13v-29h-687v29q82 0 123 27t52.5 67t11.5 96v354h-604zM205 686h428v520h-4z" />
<glyph unicode="5" horiz-adv-x="1067" d="M23 156v110q88 -76 173 -116.5t164 -40.5q66 0 120.5 37.5t88 113.5t33.5 180q0 138 -66 209t-140.5 92t-123.5 21q-68 0 -155 -19l110 730h815l-26 -193h-484l-69 -463q135 -2 246 -50t174 -138t63 -217q0 -92 -35.5 -170t-100 -135.5t-154 -90t-191.5 -32.5 q-146 0 -248 48.5t-194 123.5z" />
<glyph unicode="6" horiz-adv-x="1174" d="M47 606q0 180 74 359.5t221 306.5q89 76 183.5 121t177.5 64t153.5 24.5t140.5 5.5q65 0 133 -4v-82q-120 -5 -218 -23t-197 -78q-280 -164 -338 -606l4 -4q149 164 340 164q71 0 145 -26t136.5 -77.5t101.5 -128.5t39 -173q0 -124 -64 -230.5t-184.5 -170.5t-284.5 -64 q-182 0 -309.5 87.5t-190.5 231t-63 303.5zM375 543q-5 -165 45.5 -315t208.5 -150q86 0 134.5 48t66.5 117.5t18 145.5q0 121 -52 220.5t-184 99.5q-75 0 -135.5 -41.5t-101.5 -124.5z" />
<glyph unicode="7" horiz-adv-x="1174" d="M16 1012l86 461h1057l-635 -1473h-350l559 1298h-416q-62 0 -106 -20.5t-90 -93.5q-4 -6 -68 -154l-8 -18h-29z" />
<glyph unicode="8" horiz-adv-x="1174" d="M74 309q0 91 64 179.5t255 181.5q-132 71 -222.5 161t-90.5 246q0 68 34 160.5t146.5 171t321.5 78.5q154 0 253 -48.5t144 -120t45 -144.5q0 -107 -72.5 -184.5t-193.5 -153.5q141 -64 248.5 -173t107.5 -270q0 -89 -39 -168t-110 -135q-45 -36 -91.5 -57.5t-120 -35 t-178.5 -13.5q-65 0 -136 7t-157 37t-147 99.5t-61 181.5zM330 1200q0 -56 27.5 -104.5t100.5 -99.5t204 -107q90 83 90 244q0 118 -59 189t-161 71q-94 0 -148 -58.5t-54 -134.5zM356 367q0 -95 59.5 -192t194.5 -97q67 0 120 27t82.5 72.5t29.5 103.5q0 86 -74.5 163 t-278.5 172q-133 -99 -133 -249z" />
<glyph unicode="9" horiz-adv-x="1174" d="M31 1022q0 124 64 230.5t184 170.5t284 64q182 0 310 -88t190.5 -231.5t62.5 -303.5q0 -113 -32 -234.5t-99 -234.5t-164 -196q-90 -77 -183.5 -121t-180.5 -64t-153.5 -25t-137.5 -5q-63 0 -133 4v82q64 2 130 9t140.5 28t145.5 63q82 48 150 126.5t117 196.5t71 283 l-4 4q-149 -164 -340 -164q-96 0 -194 47.5t-163 140.5t-65 218zM326 1081q0 -74 20 -145.5t72.5 -122.5t142.5 -51q75 0 136.5 42.5t101.5 123.5q2 99 -13 200.5t-72 183t-169 81.5q-123 0 -171 -94t-48 -218z" />
<glyph unicode=":" horiz-adv-x="492" d="M84 145q0 68 49 115t113 47q67 0 114.5 -46.5t47.5 -115.5q0 -68 -47.5 -114.5t-114.5 -46.5q-65 0 -113.5 47.5t-48.5 113.5zM84 813q0 68 49 115t113 47q67 0 114.5 -46.5t47.5 -115.5q0 -67 -47.5 -114.5t-114.5 -47.5q-65 0 -113.5 48.5t-48.5 113.5z" />
<glyph unicode=";" horiz-adv-x="492" d="M55 -215q72 36 115 93.5t43 90.5q0 16 -10 19q-86 13 -109.5 64.5t-23.5 97.5q0 75 51 120t119 45q83 0 135.5 -59t52.5 -143q0 -75 -46.5 -151t-132 -134t-194.5 -78v35zM84 813q0 68 49 115t113 47q67 0 114.5 -46.5t47.5 -115.5q0 -67 -47.5 -114.5t-114.5 -47.5 q-65 0 -113.5 48.5t-48.5 113.5z" />
<glyph unicode="&#x3c;" horiz-adv-x="1124" d="M53 471v127l1018 471v-127l-887 -407l887 -408v-127z" />
<glyph unicode="=" horiz-adv-x="1124" d="M23 289v112h1077v-112h-1077zM23 686v113h1077v-113h-1077z" />
<glyph unicode="&#x3e;" horiz-adv-x="1124" d="M53 0v127l887 408l-887 407v127l1018 -471v-127z" />
<glyph unicode="?" horiz-adv-x="705" d="M23 1176q44 155 134.5 233t200.5 78q94 0 165.5 -47t110 -124.5t38.5 -162.5q0 -177 -187 -377l-118 -129q-49 -54 -76 -107.5t-27 -90.5q0 -25 4 -37h-22q-76 104 -76 186q0 70 22.5 128.5t59.5 121.5q40 68 64 127t24 117q0 61 -45 109t-111 48q-26 0 -67 -13t-74 -60 h-20zM147 145q0 67 46.5 114.5t115.5 47.5q68 0 115 -48t47 -114q0 -65 -47 -113t-115 -48t-115 48t-47 113z" />
<glyph unicode="@" horiz-adv-x="1704" d="M89 467q0 303 115 549t290.5 361.5t409.5 115.5q196 0 352.5 -96t251 -278.5t94.5 -403.5q0 -300 -174 -527q-147 -192 -320 -192q-82 0 -116.5 40.5t-41.5 126.5q-58 -82 -124.5 -124t-123.5 -42q-120 0 -202 109q-99 132 -99 340q0 168 71 327.5t168 235t190 75.5 q68 0 133 -46t112 -138l27 155h148l-119 -671q-24 -139 -24 -155q0 -29 17 -47.5t40 -18.5q44 0 125 70t136 203.5t55 282.5q0 178 -77 322t-212.5 225t-294.5 81q-189 0 -342 -102t-248.5 -303.5t-95.5 -460.5q0 -244 86 -415t245.5 -260t378.5 -89q197 0 346.5 82.5 t227.5 219.5h148q-49 -121 -161.5 -231.5t-248.5 -164.5t-313 -54q-259 0 -440 104t-285.5 306.5t-104.5 487.5zM553 434q0 -138 54.5 -213.5t122.5 -75.5q58 0 128 58.5t120 182.5t50 261q0 140 -56 214t-135 74q-61 0 -122.5 -52t-111.5 -186t-50 -263z" />
<glyph unicode="A" horiz-adv-x="1622" d="M23 0v29q69 7 129 64.5t116 211.5l418 1182h191l495 -1274q40 -98 94 -134.5t133 -49.5v-29h-698v29q143 8 143 90q0 13 -4.5 36.5t-12 50t-9.5 32.5l-123 313h-440l-105 -301q-20 -54 -20 -98q0 -68 40 -91.5t95 -31.5v-29h-442zM489 649h367l-190 496z" />
<glyph unicode="B" horiz-adv-x="1473" d="M31 0v29q116 0 149 52t33 138v1034q0 79 -29.5 135t-140.5 56h-12v29h768q153 0 254 -35q51 -20 107 -57t102.5 -104t46.5 -159q0 -117 -67.5 -189t-150 -102t-159.5 -45v-4q63 -6 141.5 -24t152 -58t125.5 -116.5t52 -192.5q0 -122 -62.5 -209.5t-166.5 -136.5 q-61 -29 -118 -35t-138 -6h-887zM541 246q0 -107 53 -135.5t135 -28.5q54 0 102 7t99 35t86 92.5t35 174.5q0 122 -52.5 194t-141.5 102t-204 30h-112v-471zM541 799h102q114 0 220 54.5t106 248.5q0 143 -90 225q-31 31 -82 47.5t-154 16.5h-102v-592z" />
<glyph unicode="C" horiz-adv-x="1473" d="M76 725q0 122 31 227t84 186.5t126 151.5q125 114 260 155.5t291 41.5q154 0 336 -51q64 -15 94 -15q55 0 84 72h29v-526h-35q-16 107 -61.5 190t-110 137.5t-145 82.5t-170.5 28q-120 0 -211.5 -51t-140.5 -127q-59 -96 -83 -212.5t-24 -248.5q0 -240 84 -384 t202.5 -200.5t233.5 -56.5q278 0 482 272v-135q-67 -78 -144 -138t-192 -100t-269 -40q-182 0 -324.5 61.5t-236.5 165.5t-142 238t-48 276z" />
<glyph unicode="D" horiz-adv-x="1729" d="M20 0v29q116 0 149.5 51.5t33.5 138.5v1030q0 82 -30 138.5t-142 56.5h-11v29h805q197 0 353.5 -60.5t261.5 -167.5t158 -243.5t53 -288.5q0 -148 -49.5 -276t-149.5 -227t-250 -154.5t-338 -55.5h-844zM530 295q0 -78 17.5 -124t65.5 -67.5t145 -21.5q87 0 156 11.5 t130 45.5q90 52 148.5 143t85.5 200t27 225q0 120 -32 239t-104.5 220t-196 163t-300.5 62q-63 0 -142 -17v-1079z" />
<glyph unicode="E" horiz-adv-x="1194" d="M27 0v29q116 0 150 52.5t34 137.5v1032q0 81 -31 137t-143 56h-10v29h1063l12 -330h-29q-20 83 -44.5 137t-69.5 82.5t-123 28.5h-297v-619h237q106 0 154.5 47t56.5 139h29v-432h-29q-15 98 -73 131t-138 33h-237v-424q0 -184 190 -184h90q91 0 148.5 24t95 82.5 t67.5 165.5h29l-22 -354h-1110z" />
<glyph unicode="F" horiz-adv-x="1153" d="M27 0v29q113 0 146.5 51t33.5 139v1036q0 78 -29.5 133.5t-140.5 55.5h-10v29h1048l23 -261h-29q-22 65 -42.5 99t-68.5 57t-135 23h-288v-603h251q79 0 144.5 40.5t70.5 146.5h31v-426h-31q-5 66 -50 112t-140 46h-276v-488q0 -84 39 -137t141 -53h10v-29h-698z" />
<glyph unicode="G" horiz-adv-x="1622" d="M78 735q0 167 59.5 305t168.5 239.5t249.5 154.5t296.5 53q88 0 152 -12t215 -52q48 -16 104 -16q59 0 78 78h29v-420h-29q-58 153 -193.5 248.5t-316.5 95.5q-140 0 -233 -60t-144.5 -159.5t-71.5 -215.5t-20 -245q0 -320 127.5 -491.5t343.5 -171.5q155 0 194 46 t39 136v170q0 51 -8 90t-41.5 71.5t-101.5 36.5v31h614v-31q-135 -18 -135 -165v-359q-236 -108 -534 -108q-120 0 -217.5 16.5t-173.5 46t-128 64t-98 77.5q-63 60 -112.5 138t-81 181.5t-31.5 227.5z" />
<glyph unicode="H" horiz-adv-x="1772" d="M27 0v29q116 0 149 52t33 138v1032q0 81 -30.5 137t-141.5 56h-10v29h692v-29q-114 0 -148 -52.5t-34 -140.5v-438h696v438q0 80 -30 136.5t-142 56.5h-10v29h692v-29q-116 0 -149 -53t-33 -140v-1032q0 -48 9 -87.5t47 -71t116 -31.5h10v-29h-692v29q117 0 149.5 52 t32.5 138v496h-696v-496q0 -49 9 -88.5t47 -70.5t116 -31h10v-29h-692z" />
<glyph unicode="I" horiz-adv-x="748" d="M27 0v29q114 0 148 52t34 138v1034q0 102 -44.5 147.5t-137.5 45.5v27h692v-29q-115 0 -148.5 -52.5t-33.5 -138.5v-1034q0 -49 9 -88t47.5 -70.5t117.5 -31.5h8v-29h-692z" />
<glyph unicode="J" horiz-adv-x="854" d="M-70 -37l27 10q51 -106 160 -106q162 0 162 233v1155q0 76 -32 132.5t-143 56.5h-12v29h692v-29q-117 0 -147.5 -51.5t-30.5 -137.5v-1097q0 -100 -18.5 -196.5t-95.5 -179.5t-236 -83q-103 0 -173 43t-106 104.5t-47 116.5z" />
<glyph unicode="K" horiz-adv-x="1665" d="M27 0v29q116 0 149 52t33 138v1034q0 100 -38.5 146.5t-143.5 46.5v27h692v-29q-115 0 -148.5 -52.5t-33.5 -138.5v-481l436 459q65 76 65 125q0 88 -168 88v29h621v-29q-119 -8 -230.5 -79t-199.5 -163l-266 -274l608 -740q126 -152 235 -159v-29h-684v29q36 4 61 15.5 t25 39.5t-41 78l-456 561h-6v-504q0 -103 43.5 -146.5t138.5 -43.5v-29h-692z" />
<glyph unicode="L" horiz-adv-x="1237" d="M27 0v29q115 0 148.5 51.5t33.5 138.5v1034q0 96 -41.5 143.5t-140.5 47.5v29h696v-29q-115 0 -150.5 -51.5t-35.5 -139.5v-985q0 -91 35 -138.5t137 -47.5h102q104 0 196 53t164 246h29l-51 -381h-1122z" />
<glyph unicode="M" horiz-adv-x="2005" d="M18 0v29q95 6 143.5 76t65.5 233l99 932q-93 149 -254 174v29h532l426 -969l395 969h480v-29q-58 -4 -95 -14q-38 -10 -63 -48q-20 -29 -20 -81q0 -14 2 -31l81 -989q9 -104 29.5 -153.5t51 -66.5t96.5 -32v-29h-676v29q85 2 133 45q40 36 41 129q0 19 -2 41l-72 938h-4 l-481 -1182h-35l-496 1143h-4l-65 -821q-3 -33 -3 -61q0 -77 20 -125q27 -64 71.5 -83.5t103.5 -23.5v-29h-500z" />
<glyph unicode="N" horiz-adv-x="1772" d="M27 1444v29h534l899 -949v674q0 133 -54 181.5t-165 64.5v29h508v-29q-84 -9 -125 -45.5t-53 -85.5t-12 -115v-1214h-37l-1078 1134v-829q0 -104 44.5 -177.5t164.5 -82.5v-29h-526v29q221 18 219 217v975q-6 4 -16 14q-9 9 -30 29t-38 36q-134 129 -235 144z" />
<glyph unicode="O" d="M74 741q0 150 51.5 287t151.5 240.5t242.5 161t322.5 57.5q182 0 324.5 -58.5t242 -162.5t150.5 -240.5t51 -290.5q0 -153 -49.5 -288t-145.5 -239t-241.5 -164t-329.5 -60q-198 0 -345.5 67.5t-241 178.5t-138.5 245t-45 266zM424 760q0 -150 22.5 -295.5t116.5 -272 t283 -126.5q265 0 339.5 213.5t74.5 435.5q0 173 -30 324t-122.5 258.5t-261.5 107.5q-190 0 -283.5 -122.5t-116 -260.5t-22.5 -262z" />
<glyph unicode="P" horiz-adv-x="1300" d="M16 0v29q71 0 127 29.5t56 136.5v1056q0 106 -44.5 149.5t-138.5 43.5v29h781q162 0 265 -61.5t146 -152.5t43 -188q0 -114 -47.5 -191.5t-109.5 -121.5q-72 -52 -160 -77.5t-236 -25.5q-66 0 -172 13v-449q0 -81 27 -123t69.5 -54.5t98.5 -12.5v-29h-705zM526 748 q50 -11 97 -11q110 0 178.5 53.5t95.5 132.5t27 158q0 83 -30 152.5t-98.5 113.5t-177.5 44q-40 0 -92 -9v-634z" />
<glyph unicode="Q" d="M74 733q0 150 51 286.5t150 242t243.5 165.5t327.5 60q179 0 323.5 -60t242.5 -164t148 -236.5t50 -274.5q0 -96 -23 -195.5t-68.5 -187t-109.5 -156.5q-72 -76 -138 -114.5t-145 -69.5q14 -8 17 -11l125 -79q25 -18 60.5 -31.5t76.5 -13.5q68 0 143 75l31 -22 q-54 -92 -142 -170t-231 -78q-90 0 -170.5 33t-206.5 108q-190 117 -290 189q-97 45 -154 80t-115 96q-100 106 -148 245t-48 283zM424 715q0 -223 75.5 -437.5t338.5 -214.5q105 0 188.5 51t126.5 122q107 172 107 524q0 82 -9.5 177t-48 203t-127 186.5t-235.5 78.5 q-254 0 -335 -210t-81 -480z" />
<glyph unicode="R" horiz-adv-x="1622" d="M31 0v29q116 0 149 52t33 138v1032q0 106 -43 149.5t-139 43.5v29h764q151 0 265 -47t174 -133t60 -197q0 -90 -38 -160t-102.5 -115t-143.5 -69q103 -65 200 -230l176 -299q45 -77 83 -119.5t67 -56t63 -18.5v-29h-475q-69 125 -106 199q-118 231 -172 321t-111.5 130 t-146.5 40h-47v-471q0 -84 25 -125.5t61 -53t96 -13.5v-27h-692zM541 772h67q172 0 259 82.5t87 237.5q0 96 -37.5 162.5t-112 101.5t-183.5 35h-80v-619z" />
<glyph unicode="S" horiz-adv-x="1044" d="M63 -10l9 416h39q19 -118 81.5 -197t141.5 -114.5t155 -35.5q111 0 183.5 62t72.5 151q0 60 -30.5 104.5t-91.5 88t-230 151.5q-89 58 -151.5 112t-97.5 103.5t-49.5 99t-14.5 105.5q0 108 55.5 213t157.5 171.5t233 66.5q61 0 117 -12q15 -2 40 -8.5t42 -10.5 q44 -8 66 -8q34 0 47.5 11t25.5 32h31v-383h-39q-40 138 -127 217.5t-211 79.5q-61 0 -111.5 -24.5t-80 -70t-29.5 -104.5q0 -34 11.5 -67t55.5 -81t134 -106q101 -63 123 -80q126 -79 206 -147t122 -147t42 -179q0 -92 -35.5 -167.5t-101 -131t-156 -86t-196.5 -30.5 q-109 0 -252 41q-16 4 -40.5 9t-43.5 5q-47 0 -68 -49h-35z" />
<glyph unicode="T" horiz-adv-x="1409" d="M35 1145l8 346h29q47 -18 118 -18h1029q71 0 118 18h29l8 -346h-28q-22 152 -74.5 193.5t-128.5 41.5h-275v-1161q0 -58 13 -98.5t53 -66t117 -25.5v-29h-693v29q115 0 149 52t34 138v1161h-275q-70 0 -114 -44.5t-86 -190.5h-31z" />
<glyph unicode="U" horiz-adv-x="1749" d="M6 1444v29h692v-29q-114 0 -148 -52t-34 -139v-657q0 -145 35 -229q25 -61 70.5 -105t106 -67t126.5 -23q69 0 132 24.5t113.5 70.5t76.5 104q36 86 36 268v614q0 105 -42 149t-140 44v27h692v-29q-113 0 -147.5 -51t-34.5 -140v-1034q0 -98 39 -145t143 -47v-27h-510 v279h-4q-161 -295 -479 -295q-161 0 -288.5 75t-188.5 191q-64 120 -64 383v620q0 94 -37.5 142.5t-144.5 48.5z" />
<glyph unicode="V" horiz-adv-x="1516" d="M27 1444v29h673v-29q-50 -3 -81 -16.5t-31 -67.5q0 -38 26 -103l287 -727l229 644q29 77 29 139q0 35 -27 78t-122 53v29h477v-29q-81 -12 -139.5 -62.5t-120.5 -226.5l-418 -1171h-39l-502 1265q-36 96 -88.5 142t-152.5 53z" />
<glyph unicode="W" horiz-adv-x="2218" d="M12 1444v29h678v-29q-57 -3 -96 -31t-39 -82q0 -34 16 -84l217 -655h5l264 751q-20 41 -42.5 62t-54.5 28.5t-83 10.5v29h663v-29q-58 0 -92.5 -14.5t-34.5 -69.5q0 -21 4.5 -41.5t13 -50t9.5 -31.5l215 -645h4l205 606q24 73 24 119q0 80 -44.5 102.5t-110.5 24.5v29 h473v-29q-84 -11 -142 -71.5t-104 -194.5l-408 -1192h-30l-408 1218h-4l-426 -1218h-33l-428 1284q-24 75 -61 112.5t-73.5 48.5t-76.5 13z" />
<glyph unicode="X" horiz-adv-x="1706" d="M18 0v29q86 4 156.5 38t113.5 73t126 124l12 19l291 379l-385 581q-42 66 -88 110.5t-82.5 63t-65 23t-51.5 4.5v29h764v-29q-129 0 -129 -88q0 -20 9.5 -44.5t37.5 -68.5l203 -301l196 258q0 3 7 8q61 84 61 138q0 55 -36.5 72.5t-94.5 25.5v29h545v-29 q-75 -16 -117.5 -30t-100.5 -57t-120 -126l-283 -375l395 -594q42 -63 86.5 -111t100 -81.5t117.5 -40.5v-29h-814v29q181 0 181 100q0 21 -9.5 42.5t-33.5 55.5l-236 351l-266 -351q-41 -61 -41 -102q0 -55 39 -72.5t92 -23.5v-29h-580z" />
<glyph unicode="Y" d="M23 1444v29h725v-29q-57 -2 -90 -14t-33 -54q0 -37 57 -116l274 -390l220 326q57 86 57 156q0 35 -28.5 63t-98.5 29v29h553v-29q-109 -5 -195 -62.5t-174 -185.5l-272 -405v-572q0 -98 39.5 -144t142.5 -46v-29h-692v29q114 0 148 51.5t34 138.5v492l-438 581 q-72 97 -117.5 124.5t-111.5 27.5z" />
<glyph unicode="Z" horiz-adv-x="1516" d="M25 0l960 1391h-534q-75 0 -135.5 -16.5t-115.5 -83t-83 -199.5h-29l33 381h1319l-963 -1391h557q93 0 157.5 15t109 48.5t75.5 85.5t62 138h28l-51 -369h-1390z" />
<glyph unicode="[" horiz-adv-x="768" d="M238 -205v1678h530v-29h-61q-175 0 -175 -168v-1270q0 -82 34 -132t141 -50h61v-29h-530z" />
<glyph unicode="\" horiz-adv-x="569" d="M2 1387h126l447 -1418h-129z" />
<glyph unicode="]" horiz-adv-x="768" d="M0 -176h61q113 0 144 53.5t31 128.5v1270q0 92 -48.5 130t-126.5 38h-61v29h530v-1678h-530v29z" />
<glyph unicode="^" horiz-adv-x="1190" d="M147 666l411 718h82l404 -718h-159l-295 512l-290 -512h-153z" />
<glyph unicode="_" horiz-adv-x="1024" d="M-12 -151h1048v-105h-1048v105z" />
<glyph unicode="`" horiz-adv-x="682" d="M49 1972v8h404l231 -397h-53z" />
<glyph unicode="a" horiz-adv-x="1622" d="M23 0v29q69 7 129 64.5t116 211.5l418 1182h191l495 -1274q40 -98 94 -134.5t133 -49.5v-29h-698v29q143 8 143 90q0 13 -4.5 36.5t-12 50t-9.5 32.5l-123 313h-440l-105 -301q-20 -54 -20 -98q0 -68 40 -91.5t95 -31.5v-29h-442zM489 649h367l-190 496z" />
<glyph unicode="b" horiz-adv-x="1473" d="M31 0v29q116 0 149 52t33 138v1034q0 79 -29.5 135t-140.5 56h-12v29h768q153 0 254 -35q51 -20 107 -57t102.5 -104t46.5 -159q0 -117 -67.5 -189t-150 -102t-159.5 -45v-4q63 -6 141.5 -24t152 -58t125.5 -116.5t52 -192.5q0 -122 -62.5 -209.5t-166.5 -136.5 q-61 -29 -118 -35t-138 -6h-887zM541 246q0 -107 53 -135.5t135 -28.5q54 0 102 7t99 35t86 92.5t35 174.5q0 122 -52.5 194t-141.5 102t-204 30h-112v-471zM541 799h102q114 0 220 54.5t106 248.5q0 143 -90 225q-31 31 -82 47.5t-154 16.5h-102v-592z" />
<glyph unicode="c" horiz-adv-x="1473" d="M76 725q0 122 31 227t84 186.5t126 151.5q125 114 260 155.5t291 41.5q154 0 336 -51q64 -15 94 -15q55 0 84 72h29v-526h-35q-16 107 -61.5 190t-110 137.5t-145 82.5t-170.5 28q-120 0 -211.5 -51t-140.5 -127q-59 -96 -83 -212.5t-24 -248.5q0 -240 84 -384 t202.5 -200.5t233.5 -56.5q278 0 482 272v-135q-67 -78 -144 -138t-192 -100t-269 -40q-182 0 -324.5 61.5t-236.5 165.5t-142 238t-48 276z" />
<glyph unicode="d" horiz-adv-x="1729" d="M20 0v29q116 0 149.5 51.5t33.5 138.5v1030q0 82 -30 138.5t-142 56.5h-11v29h805q197 0 353.5 -60.5t261.5 -167.5t158 -243.5t53 -288.5q0 -148 -49.5 -276t-149.5 -227t-250 -154.5t-338 -55.5h-844zM530 295q0 -78 17.5 -124t65.5 -67.5t145 -21.5q87 0 156 11.5 t130 45.5q90 52 148.5 143t85.5 200t27 225q0 120 -32 239t-104.5 220t-196 163t-300.5 62q-63 0 -142 -17v-1079z" />
<glyph unicode="e" horiz-adv-x="1194" d="M27 0v29q116 0 150 52.5t34 137.5v1032q0 81 -31 137t-143 56h-10v29h1063l12 -330h-29q-20 83 -44.5 137t-69.5 82.5t-123 28.5h-297v-619h237q106 0 154.5 47t56.5 139h29v-432h-29q-15 98 -73 131t-138 33h-237v-424q0 -184 190 -184h90q91 0 148.5 24t95 82.5 t67.5 165.5h29l-22 -354h-1110z" />
<glyph unicode="f" horiz-adv-x="1153" d="M27 0v29q113 0 146.5 51t33.5 139v1036q0 78 -29.5 133.5t-140.5 55.5h-10v29h1048l23 -261h-29q-22 65 -42.5 99t-68.5 57t-135 23h-288v-603h251q79 0 144.5 40.5t70.5 146.5h31v-426h-31q-5 66 -50 112t-140 46h-276v-488q0 -84 39 -137t141 -53h10v-29h-698z" />
<glyph unicode="g" horiz-adv-x="1622" d="M78 735q0 167 59.5 305t168.5 239.5t249.5 154.5t296.5 53q88 0 152 -12t215 -52q48 -16 104 -16q59 0 78 78h29v-420h-29q-58 153 -193.5 248.5t-316.5 95.5q-140 0 -233 -60t-144.5 -159.5t-71.5 -215.5t-20 -245q0 -320 127.5 -491.5t343.5 -171.5q155 0 194 46 t39 136v170q0 51 -8 90t-41.5 71.5t-101.5 36.5v31h614v-31q-135 -18 -135 -165v-359q-236 -108 -534 -108q-120 0 -217.5 16.5t-173.5 46t-128 64t-98 77.5q-63 60 -112.5 138t-81 181.5t-31.5 227.5z" />
<glyph unicode="h" horiz-adv-x="1772" d="M27 0v29q116 0 149 52t33 138v1032q0 81 -30.5 137t-141.5 56h-10v29h692v-29q-114 0 -148 -52.5t-34 -140.5v-438h696v438q0 80 -30 136.5t-142 56.5h-10v29h692v-29q-116 0 -149 -53t-33 -140v-1032q0 -48 9 -87.5t47 -71t116 -31.5h10v-29h-692v29q117 0 149.5 52 t32.5 138v496h-696v-496q0 -49 9 -88.5t47 -70.5t116 -31h10v-29h-692z" />
<glyph unicode="i" horiz-adv-x="748" d="M27 0v29q114 0 148 52t34 138v1034q0 102 -44.5 147.5t-137.5 45.5v27h692v-29q-115 0 -148.5 -52.5t-33.5 -138.5v-1034q0 -49 9 -88t47.5 -70.5t117.5 -31.5h8v-29h-692z" />
<glyph unicode="j" horiz-adv-x="854" d="M-70 -37l27 10q51 -106 160 -106q162 0 162 233v1155q0 76 -32 132.5t-143 56.5h-12v29h692v-29q-117 0 -147.5 -51.5t-30.5 -137.5v-1097q0 -100 -18.5 -196.5t-95.5 -179.5t-236 -83q-103 0 -173 43t-106 104.5t-47 116.5z" />
<glyph unicode="k" horiz-adv-x="1665" d="M27 0v29q116 0 149 52t33 138v1034q0 100 -38.5 146.5t-143.5 46.5v27h692v-29q-115 0 -148.5 -52.5t-33.5 -138.5v-481l436 459q65 76 65 125q0 88 -168 88v29h621v-29q-119 -8 -230.5 -79t-199.5 -163l-266 -274l608 -740q126 -152 235 -159v-29h-684v29q36 4 61 15.5 t25 39.5t-41 78l-456 561h-6v-504q0 -103 43.5 -146.5t138.5 -43.5v-29h-692z" />
<glyph unicode="l" horiz-adv-x="1237" d="M27 0v29q115 0 148.5 51.5t33.5 138.5v1034q0 96 -41.5 143.5t-140.5 47.5v29h696v-29q-115 0 -150.5 -51.5t-35.5 -139.5v-985q0 -91 35 -138.5t137 -47.5h102q104 0 196 53t164 246h29l-51 -381h-1122z" />
<glyph unicode="m" horiz-adv-x="2005" d="M18 0v29q95 6 143.5 76t65.5 233l99 932q-93 149 -254 174v29h532l426 -969l395 969h480v-29q-58 -4 -95 -14q-38 -10 -63 -48q-20 -29 -20 -81q0 -14 2 -31l81 -989q9 -104 29.5 -153.5t51 -66.5t96.5 -32v-29h-676v29q85 2 133 45q40 36 41 129q0 19 -2 41l-72 938h-4 l-481 -1182h-35l-496 1143h-4l-65 -821q-3 -33 -3 -61q0 -77 20 -125q27 -64 71.5 -83.5t103.5 -23.5v-29h-500z" />
<glyph unicode="n" horiz-adv-x="1772" d="M27 1444v29h534l899 -949v674q0 133 -54 181.5t-165 64.5v29h508v-29q-84 -9 -125 -45.5t-53 -85.5t-12 -115v-1214h-37l-1078 1134v-829q0 -104 44.5 -177.5t164.5 -82.5v-29h-526v29q221 18 219 217v975q-6 4 -16 14q-9 9 -30 29t-38 36q-134 129 -235 144z" />
<glyph unicode="o" d="M74 741q0 150 51.5 287t151.5 240.5t242.5 161t322.5 57.5q182 0 324.5 -58.5t242 -162.5t150.5 -240.5t51 -290.5q0 -153 -49.5 -288t-145.5 -239t-241.5 -164t-329.5 -60q-198 0 -345.5 67.5t-241 178.5t-138.5 245t-45 266zM424 760q0 -150 22.5 -295.5t116.5 -272 t283 -126.5q265 0 339.5 213.5t74.5 435.5q0 173 -30 324t-122.5 258.5t-261.5 107.5q-190 0 -283.5 -122.5t-116 -260.5t-22.5 -262z" />
<glyph unicode="p" horiz-adv-x="1300" d="M16 0v29q71 0 127 29.5t56 136.5v1056q0 106 -44.5 149.5t-138.5 43.5v29h781q162 0 265 -61.5t146 -152.5t43 -188q0 -114 -47.5 -191.5t-109.5 -121.5q-72 -52 -160 -77.5t-236 -25.5q-66 0 -172 13v-449q0 -81 27 -123t69.5 -54.5t98.5 -12.5v-29h-705zM526 748 q50 -11 97 -11q110 0 178.5 53.5t95.5 132.5t27 158q0 83 -30 152.5t-98.5 113.5t-177.5 44q-40 0 -92 -9v-634z" />
<glyph unicode="q" d="M74 733q0 150 51 286.5t150 242t243.5 165.5t327.5 60q179 0 323.5 -60t242.5 -164t148 -236.5t50 -274.5q0 -96 -23 -195.5t-68.5 -187t-109.5 -156.5q-72 -76 -138 -114.5t-145 -69.5q14 -8 17 -11l125 -79q25 -18 60.5 -31.5t76.5 -13.5q68 0 143 75l31 -22 q-54 -92 -142 -170t-231 -78q-90 0 -170.5 33t-206.5 108q-190 117 -290 189q-97 45 -154 80t-115 96q-100 106 -148 245t-48 283zM424 715q0 -223 75.5 -437.5t338.5 -214.5q105 0 188.5 51t126.5 122q107 172 107 524q0 82 -9.5 177t-48 203t-127 186.5t-235.5 78.5 q-254 0 -335 -210t-81 -480z" />
<glyph unicode="r" horiz-adv-x="1622" d="M31 0v29q116 0 149 52t33 138v1032q0 106 -43 149.5t-139 43.5v29h764q151 0 265 -47t174 -133t60 -197q0 -90 -38 -160t-102.5 -115t-143.5 -69q103 -65 200 -230l176 -299q45 -77 83 -119.5t67 -56t63 -18.5v-29h-475q-69 125 -106 199q-118 231 -172 321t-111.5 130 t-146.5 40h-47v-471q0 -84 25 -125.5t61 -53t96 -13.5v-27h-692zM541 772h67q172 0 259 82.5t87 237.5q0 96 -37.5 162.5t-112 101.5t-183.5 35h-80v-619z" />
<glyph unicode="s" horiz-adv-x="1044" d="M63 -10l9 416h39q19 -118 81.5 -197t141.5 -114.5t155 -35.5q111 0 183.5 62t72.5 151q0 60 -30.5 104.5t-91.5 88t-230 151.5q-89 58 -151.5 112t-97.5 103.5t-49.5 99t-14.5 105.5q0 108 55.5 213t157.5 171.5t233 66.5q61 0 117 -12q15 -2 40 -8.5t42 -10.5 q44 -8 66 -8q34 0 47.5 11t25.5 32h31v-383h-39q-40 138 -127 217.5t-211 79.5q-61 0 -111.5 -24.5t-80 -70t-29.5 -104.5q0 -34 11.5 -67t55.5 -81t134 -106q101 -63 123 -80q126 -79 206 -147t122 -147t42 -179q0 -92 -35.5 -167.5t-101 -131t-156 -86t-196.5 -30.5 q-109 0 -252 41q-16 4 -40.5 9t-43.5 5q-47 0 -68 -49h-35z" />
<glyph unicode="t" horiz-adv-x="1409" d="M35 1145l8 346h29q47 -18 118 -18h1029q71 0 118 18h29l8 -346h-28q-22 152 -74.5 193.5t-128.5 41.5h-275v-1161q0 -58 13 -98.5t53 -66t117 -25.5v-29h-693v29q115 0 149 52t34 138v1161h-275q-70 0 -114 -44.5t-86 -190.5h-31z" />
<glyph unicode="u" horiz-adv-x="1749" d="M6 1444v29h692v-29q-114 0 -148 -52t-34 -139v-657q0 -145 35 -229q25 -61 70.5 -105t106 -67t126.5 -23q69 0 132 24.5t113.5 70.5t76.5 104q36 86 36 268v614q0 105 -42 149t-140 44v27h692v-29q-113 0 -147.5 -51t-34.5 -140v-1034q0 -98 39 -145t143 -47v-27h-510 v279h-4q-161 -295 -479 -295q-161 0 -288.5 75t-188.5 191q-64 120 -64 383v620q0 94 -37.5 142.5t-144.5 48.5z" />
<glyph unicode="v" horiz-adv-x="1516" d="M27 1444v29h673v-29q-50 -3 -81 -16.5t-31 -67.5q0 -38 26 -103l287 -727l229 644q29 77 29 139q0 35 -27 78t-122 53v29h477v-29q-81 -12 -139.5 -62.5t-120.5 -226.5l-418 -1171h-39l-502 1265q-36 96 -88.5 142t-152.5 53z" />
<glyph unicode="w" horiz-adv-x="2218" d="M12 1444v29h678v-29q-57 -3 -96 -31t-39 -82q0 -34 16 -84l217 -655h5l264 751q-20 41 -42.5 62t-54.5 28.5t-83 10.5v29h663v-29q-58 0 -92.5 -14.5t-34.5 -69.5q0 -21 4.5 -41.5t13 -50t9.5 -31.5l215 -645h4l205 606q24 73 24 119q0 80 -44.5 102.5t-110.5 24.5v29 h473v-29q-84 -11 -142 -71.5t-104 -194.5l-408 -1192h-30l-408 1218h-4l-426 -1218h-33l-428 1284q-24 75 -61 112.5t-73.5 48.5t-76.5 13z" />
<glyph unicode="x" horiz-adv-x="1706" d="M18 0v29q86 4 156.5 38t113.5 73t126 124l12 19l291 379l-385 581q-42 66 -88 110.5t-82.5 63t-65 23t-51.5 4.5v29h764v-29q-129 0 -129 -88q0 -20 9.5 -44.5t37.5 -68.5l203 -301l196 258q0 3 7 8q61 84 61 138q0 55 -36.5 72.5t-94.5 25.5v29h545v-29 q-75 -16 -117.5 -30t-100.5 -57t-120 -126l-283 -375l395 -594q42 -63 86.5 -111t100 -81.5t117.5 -40.5v-29h-814v29q181 0 181 100q0 21 -9.5 42.5t-33.5 55.5l-236 351l-266 -351q-41 -61 -41 -102q0 -55 39 -72.5t92 -23.5v-29h-580z" />
<glyph unicode="y" d="M23 1444v29h725v-29q-57 -2 -90 -14t-33 -54q0 -37 57 -116l274 -390l220 326q57 86 57 156q0 35 -28.5 63t-98.5 29v29h553v-29q-109 -5 -195 -62.5t-174 -185.5l-272 -405v-572q0 -98 39.5 -144t142.5 -46v-29h-692v29q114 0 148 51.5t34 138.5v492l-438 581 q-72 97 -117.5 124.5t-111.5 27.5z" />
<glyph unicode="z" horiz-adv-x="1516" d="M25 0l960 1391h-534q-75 0 -135.5 -16.5t-115.5 -83t-83 -199.5h-29l33 381h1319l-963 -1391h557q93 0 157.5 15t109 48.5t75.5 85.5t62 138h28l-51 -369h-1390z" />
<glyph unicode="{" horiz-adv-x="768" d="M123 578v61q123 20 158.5 88.5t35.5 124.5q0 72 -20 154q-9 27 -20 87t-11 95q0 37 25.5 107.5t117 137.5t267.5 74v-45q-99 -19 -147 -69t-48 -117q0 -53 23 -164q11 -37 18.5 -84.5t7.5 -93.5q0 -49 -22.5 -102t-67.5 -101q-43 -48 -93 -72t-144 -47v-4 q86 -25 142 -53.5t99 -75.5q48 -52 68 -105.5t20 -90.5q0 -35 -8.5 -82t-15.5 -80q-25 -97 -25 -174q0 -158 193 -195v-45q-148 -3 -240.5 51.5t-132 129.5t-39.5 135q0 46 9.5 94.5t21.5 95.5q22 91 22 160q0 64 -38 125.5t-156 79.5z" />
<glyph unicode="|" horiz-adv-x="410" d="M133 -362v1740h143v-1740h-143z" />
<glyph unicode="}" horiz-adv-x="768" d="M92 -248q99 20 147 70.5t48 118.5q0 80 -25 161q-24 105 -24 179q0 110 90 202q49 51 101.5 75.5t135.5 45.5v4q-91 28 -143 53.5t-100 73.5q-86 91 -86 197q0 29 5 61t11.5 63.5t7.5 37.5q25 94 25 174q0 155 -193 194v45q148 3 240.5 -51.5t132 -129.5t39.5 -134 q0 -74 -31 -188q-22 -96 -22 -162q0 -61 38.5 -122.5t155.5 -82.5v-59q-121 -20 -157.5 -89.5t-36.5 -126.5q0 -65 20 -153q31 -129 31 -182q0 -23 -11 -68.5t-51.5 -102.5t-125 -100t-222.5 -49v45z" />
<glyph unicode="~" horiz-adv-x="1065" d="M12 387q8 164 81.5 243.5t178.5 79.5q53 0 104 -14q101 -29 279 -105q96 -42 147 -56q30 -8 65 -8q71 0 119.5 47t57.5 135h57q-6 -159 -82.5 -241t-186.5 -82q-53 0 -112.5 17t-262.5 102q-146 61 -211 61q-68 0 -113.5 -41.5t-62.5 -137.5h-58z" />
<glyph unicode="&#xa1;" horiz-adv-x="492" d="M53 266q0 160 58 383q14 60 58 227t54 197h43q4 -10 13.5 -45.5t29 -111.5t38 -148.5t28.5 -118.5q15 -61 28.5 -122t24 -132t10.5 -129q0 -126 -49 -204t-141 -78q-88 0 -141.5 77.5t-53.5 204.5zM84 1311q0 67 48.5 114.5t113.5 47.5q67 0 114.5 -46.5t47.5 -115.5 q0 -66 -48 -114t-114 -48q-65 0 -113.5 48.5t-48.5 113.5z" />
<glyph unicode="&#xa2;" horiz-adv-x="1153" d="M63 457q0 155 79 277.5t208.5 189.5t278.5 67q81 0 182 -18l84 270h57l-84 -278l29 -7q36 -4 45 -4q28 0 41 6t37 25h41l24 -344h-45q-44 95 -92 154.5t-104 91.5l-244 -785q57 -22 129 -22q113 0 183 41.5t149 136.5h49q-29 -60 -70.5 -114t-105.5 -96.5t-159 -65.5 t-220 -19l-82 -264h-72l91 270q-104 14 -204.5 74.5t-162.5 166t-62 247.5zM379 504q0 -261 164 -373l248 780q-46 17 -99 17q-66 0 -124.5 -27.5t-99.5 -78.5t-65 -134t-24 -184z" />
<glyph unicode="&#xa3;" horiz-adv-x="1300" d="M25 88v35q67 25 110.5 93.5t69.5 176t53 297.5l4 29h-178v205h219q26 159 109 311q32 57 77 110.5t132 97.5t217 44q66 0 164 -17.5t221 -80.5l-107 -312l-33 10q0 113 -20 170q-25 78 -80 113t-106 35q-66 0 -114.5 -41.5t-85.5 -147.5t-59 -292h291v-205h-321 q-10 -96 -35.5 -221t-52.5 -203l125 -29q203 -43 247 -50t105 -7q78 0 133 28t85 63.5t50 70.5h29q-29 -186 -141 -286.5t-299 -100.5q-73 0 -141 10.5t-224 50.5q-126 33 -200 46t-138 13q-42 0 -106 -16z" />
<glyph unicode="&#xa4;" horiz-adv-x="1024" d="M21 1070l93 92l133 -135q124 90 261 90q134 0 271 -90l138 135l89 -87l-140 -140q87 -122 87 -260q0 -135 -87 -265l129 -128l-92 -91l-130 129q-80 -50 -136.5 -67.5t-126.5 -17.5q-74 0 -132.5 19t-130.5 66l-133 -129l-88 91l131 128q-88 117 -88 261q0 70 22 140 t66 124zM197 675q0 -130 92 -221.5t221 -91.5q130 0 221.5 91.5t91.5 221.5q0 129 -91.5 220.5t-221.5 91.5t-221.5 -91.5t-91.5 -220.5z" />
<glyph unicode="&#xa5;" d="M23 1444v29h725v-29q-57 -2 -90 -14t-33 -54q0 -37 57 -116l274 -390l220 326q57 86 57 156q0 35 -28.5 63t-98.5 29v29h553v-29q-108 -5 -195.5 -62.5t-173.5 -185.5l-219 -328h498v-82h-551v-284h551v-82h-551v-201q0 -100 42 -145t140 -45v-29h-692v29q114 0 148 51.5 t34 138.5v201h-551v82h551v209l-57 75h-494v82h432l-319 424q-74 97 -119 124.5t-110 27.5z" />
<glyph unicode="&#xa6;" horiz-adv-x="532" d="M188 360h157v-791h-157v791zM188 701v790h157v-790h-157z" />
<glyph unicode="&#xa7;" horiz-adv-x="934" d="M64 644q0 100 50.5 176.5t133.5 106.5q-52 62 -78.5 124t-26.5 124q0 135 86 225.5t219 90.5q141 0 230 -86.5t107 -260.5l-153 -19q-18 124 -62 171t-116 47q-70 0 -118.5 -47.5t-48.5 -113.5q0 -28 11.5 -56.5t33.5 -57.5q44 -58 236 -200q165 -124 214 -188 q73 -96 73 -216q0 -108 -55 -186q-36 -51 -132 -100q66 -61 98.5 -131t32.5 -150q0 -143 -92.5 -235.5t-237.5 -92.5q-146 0 -240.5 92.5t-114.5 268.5l149 26q24 -132 75 -183.5t134 -51.5q79 0 128.5 50t49.5 124q0 29 -9.5 56t-29.5 51q-59 75 -269 232 q-154 115 -200 180q-78 108 -78 230zM198 664q0 -63 38 -120.5t169 -151.5q113 -81 189 -148q59 37 90 87t31 100q0 58 -42.5 120t-184.5 169q-113 84 -168 138q-68 -48 -95 -94t-27 -100z" />
<glyph unicode="&#xa8;" horiz-adv-x="682" d="M-63 1714q0 46 25 75.5t63.5 42.5t74.5 13q65 0 117.5 -30.5t52.5 -100.5q0 -45 -24.5 -74.5t-59.5 -43t-69 -13.5q-53 0 -116.5 25.5t-63.5 105.5zM414 1718q0 67 49.5 97t111.5 30q61 0 117 -27.5t56 -103.5q0 -65 -50 -98t-104 -33q-56 0 -118 26.5t-62 108.5z" />
<glyph unicode="&#xa9;" horiz-adv-x="1579" d="M55 717q0 150 57.5 285t158.5 236t235 157.5t282 56.5q150 0 284.5 -56.5t236 -157.5t158.5 -236t57 -285q0 -200 -99.5 -368.5t-268.5 -266.5t-368 -98q-198 0 -367 98.5t-267.5 267t-98.5 367.5zM168 719q0 -167 83.5 -311.5t227 -228t309.5 -83.5q168 0 312 83.5 t227.5 228t83.5 311.5q0 170 -84 312.5t-228.5 225t-310.5 82.5t-309 -82.5t-227 -225t-84 -312.5zM391 711q0 106 53.5 200.5t151.5 151.5t221 57q91 0 168 -35q7 0 31 -12q12 -4 24 -4q35 0 37 43h37v-260h-37q-14 108 -72.5 157.5t-127.5 49.5q-70 0 -122.5 -42.5 t-80 -121.5t-27.5 -184q0 -93 26.5 -166.5t78 -114.5t125.5 -41q135 0 237 133v-67q-116 -140 -305 -140q-93 0 -172.5 33t-133.5 89t-83 127.5t-29 146.5z" />
<glyph unicode="&#xaa;" horiz-adv-x="831" d="M59 1022q0 121 207 172q89 24 99 25q18 5 40 11.5t41 12.5q4 54 -21 94.5t-114 40.5q-73 0 -109.5 -28t-64.5 -72l-47 14q31 113 116 154t171 41q76 0 142.5 -25.5t96.5 -64.5q41 -49 41 -142v-247q0 -66 23 -66q29 0 35 51h55q-5 -71 -63 -104q-41 -21 -99 -21 q-107 0 -151 70q-44 -33 -89 -51.5t-116 -18.5q-54 0 -99 22t-69.5 58t-24.5 74zM279 1034q0 -32 16 -60t53 -28q47 0 98 47v199q-72 -28 -107 -48.5t-47.5 -45t-12.5 -64.5z" />
<glyph unicode="&#xab;" horiz-adv-x="918" d="M23 727l397 498h24l-141 -498l141 -498h-24zM469 727l397 498h25l-141 -498l141 -498h-25z" />
<glyph unicode="&#xac;" horiz-adv-x="1460" d="M31 477v113h1362v-590h-113v477h-1249z" />
<glyph unicode="&#xad;" horiz-adv-x="1217" d="M98 641v176h557v-176h-557z" />
<glyph unicode="&#xae;" horiz-adv-x="1579" d="M55 719q0 150 57.5 285t158.5 236t235 157.5t282 56.5q150 0 284.5 -56.5t236 -157.5t158.5 -236t57 -285q0 -201 -99.5 -370t-268.5 -267t-368 -98q-198 0 -366.5 98.5t-267.5 267t-99 369.5zM166 723q0 -167 83 -311.5t227 -229t312 -84.5q126 0 241 48.5t200 133.5 t134.5 200t49.5 243q0 169 -84 312.5t-229 227t-312 83.5q-127 0 -239.5 -48t-198.5 -134t-135 -200t-49 -241zM385 350v35q67 6 83.5 26.5t16.5 118.5v426q0 60 -6.5 82t-23 27.5t-70.5 11.5v37h344q101 0 182 -11.5t145 -60.5t64 -151q0 -90 -42.5 -126t-104.5 -54 l112 -203l19 -29q0 -2 8 -14q37 -55 51.5 -67t55.5 -13v-35h-289q-11 17 -28.5 46.5t-30 53.5t-17.5 33l-117 209h-26v-174q0 -65 4.5 -88.5t24.5 -32.5t71 -12v-35h-426zM711 735q70 2 104 10.5t58 47t24 120.5q0 89 -45 123.5t-141 26.5v-328z" />
<glyph unicode="&#xaf;" horiz-adv-x="1024" d="M-12 1632v105h1048v-105h-1048z" />
<glyph unicode="&#xb0;" horiz-adv-x="819" d="M102 1096q0 64 23 119t67 98t100 66.5t118 23.5q61 0 117.5 -23.5t99.5 -66.5t66.5 -99.5t23.5 -117.5q0 -83 -42 -154.5t-112.5 -112.5t-152.5 -41q-83 0 -154 41.5t-112.5 112.5t-41.5 154zM184 1096q0 -94 66 -160t160 -66q61 0 113 31t82 82.5t30 112.5q0 60 -31 112 t-83 82.5t-113 30.5q-93 0 -159 -66t-65 -159z" />
<glyph unicode="&#xb1;" horiz-adv-x="1124" d="M20 0v113h1084v-113h-1084zM20 723v113h486v485h112v-485h486v-113h-486v-485h-112v485h-486z" />
<glyph unicode="&#xb2;" horiz-adv-x="705" d="M-6 715q99 78 215 194q172 169 172 303q0 56 -37 97t-104 41q-118 0 -177 -115h-45q20 114 82.5 169t121.5 69t100 14q61 0 122 -22t102.5 -69t41.5 -116q0 -80 -46 -154t-109.5 -131.5t-180.5 -146.5v-4h264q110 0 148 102q2 10 4 12h37l-37 -243h-674z" />
<glyph unicode="&#xb3;" horiz-adv-x="618" d="M14 805v74q12 -6 17 -11q120 -77 209 -77q78 0 103.5 46.5t25.5 94.5q0 85 -52.5 118t-148.5 33q-34 0 -102 -8v68q2 0 46 -2t62 -2q158 0 158 147q0 50 -21.5 97t-89.5 47q-52 0 -100 -35t-66 -105q-3 -11 -4 -12h-37v201h37q1 0 4 -9q7 -14 23 -14q1 0 14.5 3t18.5 3 q63 25 145 25q134 0 204 -57.5t70 -133.5q0 -100 -131 -159q0 -5 11.5 -9.5t28 -9t28.5 -6.5q17 -3 47 -27.5t52 -63t22 -83.5q0 -52 -30.5 -106t-96 -89.5t-164.5 -35.5q-90 0 -151.5 26t-131.5 72z" />
<glyph unicode="&#xb4;" horiz-adv-x="682" d="M35 1583l231 397h404v-8l-582 -389h-53z" />
<glyph unicode="&#xb5;" horiz-adv-x="1180" d="M72 -256q8 46 25 104t22.5 88.5t5.5 79.5v1008h176v-682q0 -169 107 -217q47 -20 85.5 -20.5t81.5 18.5q40 18 85.5 56.5t64.5 82.5v762h176v-786q0 -95 47 -144q49 -49 109 -16q25 15 35.5 35.5t17.5 53t10 40.5h41q-18 -77 -42.5 -125.5t-96.5 -87.5 q-66 -35 -122.5 -28.5t-88.5 30.5q-25 20 -38.5 37.5t-22 37.5t-13 42.5l-10.5 52.5q-49 -73 -143 -141q-81 -60 -193 -60q-42 0 -79 17.5t-68 43.5t-45 37v-47q3 -68 28 -148t33 -124q17 -94 -15 -147.5t-79 -53.5t-78.5 53t-15.5 148z" />
<glyph unicode="&#xb6;" horiz-adv-x="901" d="M5 1044q0 133 48 230t132.5 144.5t207.5 47.5h518v-173h-117v-1700h-140v1700h-182v-1700h-135v1045q-148 9 -240 117t-92 289z" />
<glyph unicode="&#xb7;" horiz-adv-x="682" d="M497 637v205h205v-205h-205z" />
<glyph unicode="&#xb8;" horiz-adv-x="682" d="M68 -229q44 -4 67 -4q82 0 126 23t44 65q0 45 -42.5 56t-104.5 11l104 72q14 2 29.5 3.5t21 2t25.5 0.5q81 0 143 -37.5t62 -112.5q0 -100 -92.5 -127.5t-214.5 -27.5q-105 0 -168 10v66z" />
<glyph unicode="&#xb9;" horiz-adv-x="426" d="M-4 1251l291 236h39v-653q0 -39 16.5 -65t73.5 -26h18v-28h-426v28q57 0 83 16t26 75v362q0 61 -27 61q-18 0 -57 -22q-1 -1 -4 -2.5t-4 -1.5q-4 -4 -9 -4z" />
<glyph unicode="&#xba;" horiz-adv-x="1024" d="M119 1180q0 66 38 136.5t123 120.5t216 50q139 0 232 -47.5t135 -117.5t42 -140q0 -83 -46.5 -154.5t-135.5 -115.5t-211 -44q-124 0 -214 46.5t-134.5 118.5t-44.5 147zM348 1174q0 -76 32.5 -161t131.5 -85q104 0 134 89t30 171q0 77 -30 161.5t-136 84.5 q-101 0 -131.5 -88.5t-30.5 -171.5z" />
<glyph unicode="&#xbb;" horiz-adv-x="918" d="M27 229l141 498l-141 498h24l398 -498l-398 -498h-24zM473 229l141 498l-141 498h25l397 -498l-397 -498h-25z" />
<glyph unicode="&#xbc;" horiz-adv-x="1708" d="M107 1174v123q62 20 138 73t123 114h108v-751h-145v554q-102 -81 -224 -113zM252 -57l1102 1548h156l-1101 -1548h-157zM1047 123v123l405 474h122v-489h104v-108h-104v-154h-144v154h-383zM1200 231h230v263z" />
<glyph unicode="&#xbd;" horiz-adv-x="1708" d="M107 1174v123q62 20 138 73t123 114h108v-751h-145v554q-102 -81 -224 -113zM228 -57l1101 1548h157l-1101 -1548h-157zM1049 -31q6 56 48 113q62 87 206 191t171 135q37 41 37 84q0 48 -34.5 78.5t-103.5 30.5q-66 0 -98.5 -23.5t-53.5 -89.5l-151 15q29 112 101 164.5 t205 52.5q151 0 221.5 -59t70.5 -144q0 -84 -59 -159q-45 -56 -204 -172q-84 -61 -119 -96h386v-121h-623z" />
<glyph unicode="&#xbe;" horiz-adv-x="1708" d="M33 929l146 15q20 -60 52 -82q43 -30 102 -30q71 0 114 39t43 94q0 50 -36 80t-120 30q-50 -3 -58 -3l22 110q81 -1 118.5 29t37.5 73q0 37 -30 63t-89 26q-56 0 -87.5 -22t-54.5 -80l-143 23q41 106 103.5 148t182.5 42q144 0 209.5 -53.5t65.5 -133.5q0 -55 -35.5 -98 t-102.5 -62q89 -22 131 -72.5t42 -118.5q0 -93 -79 -162t-225 -69q-140 0 -214 55.5t-95 158.5zM252 -57l1101 1548h157l-1101 -1548h-157zM1047 123v123l404 474h123v-489h104v-108h-104v-154h-145v154h-382zM1200 231h229v263z" />
<glyph unicode="&#xbf;" horiz-adv-x="705" d="M33 317q0 178 186 377l119 129q46 50 74 106.5t28 92.5q0 25 -4 37h23q76 -106 76 -187q0 -104 -82 -249q-42 -75 -65 -130.5t-23 -113.5q0 -60 44 -109t111 -49q90 0 142 74h20q-29 -104 -81.5 -174t-118 -103.5t-136.5 -33.5q-94 0 -165 47t-109.5 123.5t-38.5 162.5z M293 1325q0 67 47.5 114.5t114.5 47.5q69 0 115 -47t46 -115q0 -66 -47 -114t-114 -48q-66 0 -114 49t-48 113z" />
<glyph unicode="&#xc0;" horiz-adv-x="1622" d="M23 0v29q69 7 129 64.5t116 211.5l418 1182h191l495 -1274q40 -98 94 -134.5t133 -49.5v-29h-698v29q143 8 143 90q0 13 -4.5 36.5t-12 50t-9.5 32.5l-123 313h-440l-105 -301q-20 -54 -20 -98q0 -68 40 -91.5t95 -31.5v-29h-442zM459 1972v8h404l231 -397h-53zM489 649 h367l-190 496z" />
<glyph unicode="&#xc1;" horiz-adv-x="1622" d="M23 0v29q69 7 129 64.5t116 211.5l418 1182h191l495 -1274q40 -98 94 -134.5t133 -49.5v-29h-698v29q143 8 143 90q0 13 -4.5 36.5t-12 50t-9.5 32.5l-123 313h-440l-105 -301q-20 -54 -20 -98q0 -68 40 -91.5t95 -31.5v-29h-442zM489 649h367l-190 496zM506 1583 l231 397h404v-8l-582 -389h-53z" />
<glyph unicode="&#xc2;" horiz-adv-x="1622" d="M23 0v29q69 7 129 64.5t116 211.5l418 1182h191l495 -1274q40 -98 94 -134.5t133 -49.5v-29h-698v29q143 8 143 90q0 13 -4.5 36.5t-12 50t-9.5 32.5l-123 313h-440l-105 -301q-20 -54 -20 -98q0 -68 40 -91.5t95 -31.5v-29h-442zM432 1583l252 397h281l227 -397h-49 l-326 250l-336 -250h-49zM489 649h367l-190 496z" />
<glyph unicode="&#xc3;" horiz-adv-x="1622" d="M23 0v29q69 7 129 64.5t116 211.5l418 1182h191l495 -1274q40 -98 94 -134.5t133 -49.5v-29h-698v29q143 8 143 90q0 13 -4.5 36.5t-12 50t-9.5 32.5l-123 313h-440l-105 -301q-20 -54 -20 -98q0 -68 40 -91.5t95 -31.5v-29h-442zM403 1591q14 72 23.5 107t34.5 71 q40 57 89 82t95 25q51 0 95 -9.5t122 -33.5q97 -27 138 -35t71 -8q35 0 61 21.5t33 64.5h58q-4 -103 -60 -194t-178 -91q-80 0 -229 45q-68 22 -113 32.5t-90 10.5q-28 0 -55 -19.5t-39 -68.5h-56zM489 649h367l-190 496z" />
<glyph unicode="&#xc4;" horiz-adv-x="1622" d="M23 0v29q69 7 129 64.5t116 211.5l418 1182h191l495 -1274q40 -98 94 -134.5t133 -49.5v-29h-698v29q143 8 143 90q0 13 -4.5 36.5t-12 50t-9.5 32.5l-123 313h-440l-105 -301q-20 -54 -20 -98q0 -68 40 -91.5t95 -31.5v-29h-442zM408 1714q0 46 25 75.5t63.5 42.5 t74.5 13q65 0 117.5 -30.5t52.5 -100.5q0 -45 -24.5 -74.5t-59.5 -43t-69 -13.5q-53 0 -116.5 25.5t-63.5 105.5zM489 649h367l-190 496zM885 1718q0 67 49.5 97t111.5 30q61 0 117 -27.5t56 -103.5q0 -65 -50 -98t-104 -33q-56 0 -118 26.5t-62 108.5z" />
<glyph unicode="&#xc5;" horiz-adv-x="1622" d="M23 0v29q69 7 129 64.5t116 211.5l418 1182h191l495 -1274q40 -98 94 -134.5t133 -49.5v-29h-698v29q143 8 143 90q0 13 -4.5 36.5t-12 50t-9.5 32.5l-123 313h-440l-105 -301q-20 -54 -20 -98q0 -68 40 -91.5t95 -31.5v-29h-442zM489 649h367l-190 496zM602 1796 q0 87 61 149t150 62q57 0 105.5 -28t77 -77.5t28.5 -105.5q0 -90 -61.5 -151.5t-149.5 -61.5t-149.5 62.5t-61.5 150.5zM692 1796q0 -50 35.5 -86.5t85.5 -36.5q49 0 85 37t36 86q0 50 -35.5 85.5t-85.5 35.5t-85.5 -35.5t-35.5 -85.5z" />
<glyph unicode="&#xc6;" horiz-adv-x="2028" d="M16 0v29q113 11 189 127q18 27 25.5 38.5t12 18t8.5 11.5t5 7l600 1053q31 55 31 84q0 44 -36.5 61.5t-117.5 14.5v29h1198l11 -328h-29q-31 144 -85 195t-147 51h-301v-619h230q48 0 93.5 10t84.5 51t43 125h29v-434h-29q-23 166 -232 166h-219v-424q0 -120 53 -152 t132 -32h98q101 0 155.5 27.5t84.5 81t67 163.5h29l-23 -354h-1114v29q62 2 99.5 11.5t64.5 51t27 125.5v375h-486l-202 -361q-33 -53 -33 -100q0 -30 29 -66t106 -36v-29h-451zM623 692l430 1v698h-31z" />
<glyph unicode="&#xc7;" horiz-adv-x="1473" d="M76 725q0 119 31.5 226t85.5 190.5t124 148.5q125 114 260 155.5t291 41.5q154 0 336 -51q64 -15 94 -15q55 0 84 72h29v-526h-35q-16 107 -61.5 190t-110 137.5t-145 82.5t-170.5 28q-120 0 -211.5 -51t-140.5 -127q-59 -96 -83 -212.5t-24 -248.5q0 -240 84 -384 t202.5 -200.5t233.5 -56.5q278 0 482 272v-135l-17 -18q-126 -155 -237 -189q-45 -11 -133 -36t-105 -29l-4 -4q0 -6 37 -15q56 -17 71 -55.5t15 -67.5q0 -70 -53.5 -103.5t-117.5 -41.5t-136 -8q-103 0 -168 10v66q44 -4 67 -4q82 0 126 23t44 65q0 45 -42.5 56t-104.5 11 l92 62v4q-162 9 -291.5 70t-218.5 163.5t-134.5 231.5t-45.5 272z" />
<glyph unicode="&#xc8;" horiz-adv-x="1194" d="M27 0v29q116 0 150 52.5t34 137.5v1032q0 81 -31 137t-143 56h-10v29h1063l12 -330h-29q-20 83 -44.5 137t-69.5 82.5t-123 28.5h-297v-619h237q106 0 154.5 47t56.5 139h29v-432h-29q-15 98 -73 131t-138 33h-237v-424q0 -184 190 -184h90q91 0 148.5 24t95 82.5 t67.5 165.5h29l-22 -354h-1110zM244 1972v8h404l231 -397h-53z" />
<glyph unicode="&#xc9;" horiz-adv-x="1194" d="M27 0v29q116 0 150 52.5t34 137.5v1032q0 81 -31 137t-143 56h-10v29h1063l12 -330h-29q-20 83 -44.5 137t-69.5 82.5t-123 28.5h-297v-619h237q106 0 154.5 47t56.5 139h29v-432h-29q-15 98 -73 131t-138 33h-237v-424q0 -184 190 -184h90q91 0 148.5 24t95 82.5 t67.5 165.5h29l-22 -354h-1110zM352 1583l231 397h404v-8l-582 -389h-53z" />
<glyph unicode="&#xca;" horiz-adv-x="1194" d="M27 0v29q116 0 150 52.5t34 137.5v1032q0 81 -31 137t-143 56h-10v29h1063l12 -330h-29q-20 83 -44.5 137t-69.5 82.5t-123 28.5h-297v-619h237q106 0 154.5 47t56.5 139h29v-432h-29q-15 98 -73 131t-138 33h-237v-424q0 -184 190 -184h90q91 0 148.5 24t95 82.5 t67.5 165.5h29l-22 -354h-1110zM217 1583l252 397h281l227 -397h-49l-326 250l-336 -250h-49z" />
<glyph unicode="&#xcb;" horiz-adv-x="1194" d="M27 0v29q116 0 150 52.5t34 137.5v1032q0 81 -31 137t-143 56h-10v29h1063l12 -330h-29q-20 83 -44.5 137t-69.5 82.5t-123 28.5h-297v-619h237q106 0 154.5 47t56.5 139h29v-432h-29q-15 98 -73 131t-138 33h-237v-424q0 -184 190 -184h90q91 0 148.5 24t95 82.5 t67.5 165.5h29l-22 -354h-1110zM193 1714q0 46 25 75.5t63.5 42.5t74.5 13q65 0 117.5 -30.5t52.5 -100.5q0 -45 -24.5 -74.5t-59.5 -43t-69 -13.5q-53 0 -116.5 25.5t-63.5 105.5zM670 1718q0 67 49.5 97t111.5 30q61 0 117 -27.5t56 -103.5q0 -65 -50 -98t-104 -33 q-56 0 -118 26.5t-62 108.5z" />
<glyph unicode="&#xcc;" horiz-adv-x="748" d="M27 0v29q114 0 148 52t34 138v1034q0 102 -44.5 147.5t-137.5 45.5v27h692v-29q-115 0 -148.5 -52.5t-33.5 -138.5v-1034q0 -49 9 -88t47.5 -70.5t117.5 -31.5h8v-29h-692zM82 1972v8h404l231 -397h-53z" />
<glyph unicode="&#xcd;" horiz-adv-x="748" d="M27 0v29q114 0 148 52t34 138v1034q0 102 -44.5 147.5t-137.5 45.5v27h692v-29q-115 0 -148.5 -52.5t-33.5 -138.5v-1034q0 -49 9 -88t47.5 -70.5t117.5 -31.5h8v-29h-692zM68 1583l231 397h404v-8l-582 -389h-53z" />
<glyph unicode="&#xce;" horiz-adv-x="748" d="M-6 1583l252 397h281l227 -397h-49l-326 250l-336 -250h-49zM27 0v29q114 0 148 52t34 138v1034q0 102 -44.5 147.5t-137.5 45.5v27h692v-29q-115 0 -148.5 -52.5t-33.5 -138.5v-1034q0 -49 9 -88t47.5 -70.5t117.5 -31.5h8v-29h-692z" />
<glyph unicode="&#xcf;" horiz-adv-x="748" d="M-30 1714q0 46 25 75.5t63.5 42.5t74.5 13q65 0 117.5 -30.5t52.5 -100.5q0 -45 -24.5 -74.5t-59.5 -43t-69 -13.5q-53 0 -116.5 25.5t-63.5 105.5zM27 0v29q114 0 148 52t34 138v1034q0 102 -44.5 147.5t-137.5 45.5v27h692v-29q-115 0 -148.5 -52.5t-33.5 -138.5v-1034 q0 -49 9 -88t47.5 -70.5t117.5 -31.5h8v-29h-692zM447 1718q0 67 49.5 97t111.5 30q61 0 117 -27.5t56 -103.5q0 -65 -50 -98t-104 -33q-56 0 -118 26.5t-62 108.5z" />
<glyph unicode="&#xd0;" horiz-adv-x="1729" d="M20 0v29q116 0 149.5 51.5t33.5 138.5v471h-183v82h183v477q0 82 -30 138.5t-142 56.5h-11v29h805q203 0 358 -62.5t259.5 -170.5t156.5 -243.5t52 -283.5q0 -145 -50 -275t-150.5 -228.5t-250 -154t-336.5 -55.5h-844zM530 295q0 -78 17.5 -124t65.5 -67.5t145 -21.5 q87 0 156 11.5t130 45.5q90 52 148.5 143t85.5 200t27 225q0 120 -31 237t-104 220t-196.5 165t-299.5 62q-81 0 -144 -17v-602h365v-82h-365v-395z" />
<glyph unicode="&#xd1;" horiz-adv-x="1772" d="M27 1444v29h534l899 -949v674q0 133 -54 181.5t-165 64.5v29h508v-29q-84 -9 -125 -45.5t-53 -85.5t-12 -115v-1214h-37l-1078 1134v-829q0 -104 44.5 -177.5t164.5 -82.5v-29h-526v29q221 18 219 217v975q-6 4 -16 14q-9 9 -30 29t-38 36q-134 129 -235 144zM477 1591 q14 72 23.5 107t34.5 71q40 57 89 82t95 25q51 0 95 -9.5t122 -33.5q97 -27 138 -35t71 -8q35 0 61 21.5t33 64.5h58q-4 -103 -60 -194t-178 -91q-80 0 -229 45q-68 22 -113 32.5t-90 10.5q-28 0 -55 -19.5t-39 -68.5h-56z" />
<glyph unicode="&#xd2;" d="M74 741q0 150 51.5 287t151.5 240.5t242.5 161t322.5 57.5q182 0 324.5 -58.5t242 -162.5t150.5 -240.5t51 -290.5q0 -153 -49.5 -288t-145.5 -239t-241.5 -164t-329.5 -60q-198 0 -345.5 67.5t-241 178.5t-138.5 245t-45 266zM424 760q0 -150 22.5 -295.5t116.5 -272 t283 -126.5q265 0 339.5 213.5t74.5 435.5q0 173 -30 324t-122.5 258.5t-261.5 107.5q-190 0 -283.5 -122.5t-116 -260.5t-22.5 -262zM551 1972v8h404l231 -397h-53z" />
<glyph unicode="&#xd3;" d="M74 741q0 150 51.5 287t151.5 240.5t242.5 161t322.5 57.5q182 0 324.5 -58.5t242 -162.5t150.5 -240.5t51 -290.5q0 -153 -49.5 -288t-145.5 -239t-241.5 -164t-329.5 -60q-198 0 -345.5 67.5t-241 178.5t-138.5 245t-45 266zM424 760q0 -150 22.5 -295.5t116.5 -272 t283 -126.5q265 0 339.5 213.5t74.5 435.5q0 173 -30 324t-122.5 258.5t-261.5 107.5q-190 0 -283.5 -122.5t-116 -260.5t-22.5 -262zM537 1583l231 397h404v-8l-582 -389h-53z" />
<glyph unicode="&#xd4;" d="M74 741q0 150 51.5 287t151.5 240.5t242.5 161t322.5 57.5q182 0 324.5 -58.5t242 -162.5t150.5 -240.5t51 -290.5q0 -153 -49.5 -288t-145.5 -239t-241.5 -164t-329.5 -60q-198 0 -345.5 67.5t-241 178.5t-138.5 245t-45 266zM424 760q0 -150 22.5 -295.5t116.5 -272 t283 -126.5q265 0 339.5 213.5t74.5 435.5q0 173 -30 324t-122.5 258.5t-261.5 107.5q-190 0 -283.5 -122.5t-116 -260.5t-22.5 -262zM463 1583l252 397h281l227 -397h-49l-326 250l-336 -250h-49z" />
<glyph unicode="&#xd5;" d="M74 741q0 150 51.5 287t151.5 240.5t242.5 161t322.5 57.5q182 0 324.5 -58.5t242 -162.5t150.5 -240.5t51 -290.5q0 -153 -49.5 -288t-145.5 -239t-241.5 -164t-329.5 -60q-198 0 -345.5 67.5t-241 178.5t-138.5 245t-45 266zM424 760q0 -150 22.5 -295.5t116.5 -272 t283 -126.5q265 0 339.5 213.5t74.5 435.5q0 173 -30 324t-122.5 258.5t-261.5 107.5q-190 0 -283.5 -122.5t-116 -260.5t-22.5 -262zM434 1591q14 72 23.5 107t34.5 71q40 57 89 82t95 25q51 0 95 -9.5t122 -33.5q97 -27 138 -35t71 -8q35 0 61 21.5t33 64.5h58 q-4 -103 -60 -194t-178 -91q-80 0 -229 45q-68 22 -113 32.5t-90 10.5q-28 0 -55 -19.5t-39 -68.5h-56z" />
<glyph unicode="&#xd6;" d="M74 741q0 150 51.5 287t151.5 240.5t242.5 161t322.5 57.5q182 0 324.5 -58.5t242 -162.5t150.5 -240.5t51 -290.5q0 -153 -49.5 -288t-145.5 -239t-241.5 -164t-329.5 -60q-198 0 -345.5 67.5t-241 178.5t-138.5 245t-45 266zM424 760q0 -150 22.5 -295.5t116.5 -272 t283 -126.5q265 0 339.5 213.5t74.5 435.5q0 173 -30 324t-122.5 258.5t-261.5 107.5q-190 0 -283.5 -122.5t-116 -260.5t-22.5 -262zM439 1714q0 46 25 75.5t63.5 42.5t74.5 13q65 0 117.5 -30.5t52.5 -100.5q0 -45 -24.5 -74.5t-59.5 -43t-69 -13.5q-53 0 -116.5 25.5 t-63.5 105.5zM916 1718q0 67 49.5 97t111.5 30q61 0 117 -27.5t56 -103.5q0 -65 -50 -98t-104 -33q-56 0 -118 26.5t-62 108.5z" />
<glyph unicode="&#xd7;" horiz-adv-x="1167" d="M154 1019l93 93l340 -340l340 339l92 -92l-339 -340l340 -340l-93 -93l-340 340l-338 -337l-92 92l337 337z" />
<glyph unicode="&#xd8;" d="M74 745q0 146 49 277.5t146.5 237t243.5 166.5t329 61q281 0 477 -144l131 148l61 -55l-129 -146q75 -71 126 -159.5t76.5 -188.5t25.5 -207q0 -206 -89.5 -378t-263.5 -272.5t-411 -100.5q-301 0 -484 147l-131 -149l-63 55l131 147q-109 107 -167 254t-58 307zM424 758 q0 -100 10.5 -203.5t34.5 -177.5l713 809q-11 25 -31 57q-45 73 -123.5 117.5t-181.5 44.5q-114 0 -200 -55t-130 -136q-43 -82 -67.5 -184.5t-24.5 -271.5zM502 289q58 -123 153.5 -173t190.5 -50q265 0 339.5 213.5t74.5 435.5q0 75 -6.5 152.5t-17.5 137t-22 93.5z" />
<glyph unicode="&#xd9;" horiz-adv-x="1749" d="M6 1444v29h692v-29q-114 0 -148 -52t-34 -139v-657q0 -145 35 -229q25 -61 70.5 -105t106 -67t126.5 -23q69 0 132 24.5t113.5 70.5t76.5 104q36 86 36 268v614q0 105 -42 149t-140 44v27h692v-29q-113 0 -147.5 -51t-34.5 -140v-1034q0 -98 39 -145t143 -47v-27h-510 v279h-4q-161 -295 -479 -295q-161 0 -288.5 75t-188.5 191q-64 120 -64 383v620q0 94 -37.5 142.5t-144.5 48.5zM522 1972v8h404l231 -397h-53z" />
<glyph unicode="&#xda;" horiz-adv-x="1749" d="M6 1444v29h692v-29q-114 0 -148 -52t-34 -139v-657q0 -145 35 -229q25 -61 70.5 -105t106 -67t126.5 -23q69 0 132 24.5t113.5 70.5t76.5 104q36 86 36 268v614q0 105 -42 149t-140 44v27h692v-29q-113 0 -147.5 -51t-34.5 -140v-1034q0 -98 39 -145t143 -47v-27h-510 v279h-4q-161 -295 -479 -295q-161 0 -288.5 75t-188.5 191q-64 120 -64 383v620q0 94 -37.5 142.5t-144.5 48.5zM631 1583l231 397h404v-8l-582 -389h-53z" />
<glyph unicode="&#xdb;" horiz-adv-x="1749" d="M6 1444v29h692v-29q-114 0 -148 -52t-34 -139v-657q0 -145 35 -229q25 -61 70.5 -105t106 -67t126.5 -23q69 0 132 24.5t113.5 70.5t76.5 104q36 86 36 268v614q0 105 -42 149t-140 44v27h692v-29q-113 0 -147.5 -51t-34.5 -140v-1034q0 -98 39 -145t143 -47v-27h-510 v279h-4q-161 -295 -479 -295q-161 0 -288.5 75t-188.5 191q-64 120 -64 383v620q0 94 -37.5 142.5t-144.5 48.5zM496 1583l252 397h281l227 -397h-49l-326 250l-336 -250h-49z" />
<glyph unicode="&#xdc;" horiz-adv-x="1749" d="M6 1444v29h692v-29q-114 0 -148 -52t-34 -139v-657q0 -145 35 -229q25 -61 70.5 -105t106 -67t126.5 -23q69 0 132 24.5t113.5 70.5t76.5 104q36 86 36 268v614q0 105 -42 149t-140 44v27h692v-29q-113 0 -147.5 -51t-34.5 -140v-1034q0 -98 39 -145t143 -47v-27h-510 v279h-4q-161 -295 -479 -295q-161 0 -288.5 75t-188.5 191q-64 120 -64 383v620q0 94 -37.5 142.5t-144.5 48.5zM472 1714q0 46 25 75.5t63.5 42.5t74.5 13q65 0 117.5 -30.5t52.5 -100.5q0 -45 -24.5 -74.5t-59.5 -43t-69 -13.5q-53 0 -116.5 25.5t-63.5 105.5zM949 1718 q0 67 49.5 97t111.5 30q61 0 117 -27.5t56 -103.5q0 -65 -50 -98t-104 -33q-56 0 -118 26.5t-62 108.5z" />
<glyph unicode="&#xdd;" d="M23 1444v29h725v-29q-57 -2 -90 -14t-33 -54q0 -37 57 -116l274 -390l220 326q57 86 57 156q0 35 -28.5 63t-98.5 29v29h553v-29q-109 -5 -195 -62.5t-174 -185.5l-272 -405v-572q0 -98 39.5 -144t142.5 -46v-29h-692v29q114 0 148 51.5t34 138.5v492l-438 581 q-72 97 -117.5 124.5t-111.5 27.5zM598 1583l231 397h404v-8l-582 -389h-53z" />
<glyph unicode="&#xde;" horiz-adv-x="1300" d="M16 0v29q71 0 127 29.5t56 136.5v1058q0 93 -37 142t-146 49v29h693v-29q-73 0 -128 -30.5t-55 -141.5v-127h271q121 0 225 -49.5t166.5 -141.5t62.5 -215q0 -68 -22 -128.5t-58.5 -107t-76.5 -75.5q-69 -49 -159 -74.5t-237 -25.5q-57 0 -99.5 3t-72.5 7v-119 q0 -104 48.5 -147t146.5 -43v-29h-705zM526 420q31 -10 97 -10q162 0 231.5 105.5t69.5 236.5q0 83 -30 153t-98.5 114t-177.5 44q-54 0 -92 -10v-633z" />
<glyph unicode="&#xdf;" horiz-adv-x="2088" d="M63 -10l9 416h39q19 -118 81.5 -197t141.5 -114.5t155 -35.5q111 0 183.5 62t72.5 151q0 60 -30.5 104.5t-91.5 88t-230 151.5q-89 58 -151.5 112t-97.5 103.5t-49.5 99t-14.5 105.5q0 108 55.5 213t157.5 171.5t233 66.5q61 0 117 -12q15 -2 40 -8.5t42 -10.5 q44 -8 66 -8q34 0 47.5 11t25.5 32h31v-383h-39q-40 138 -127 217.5t-211 79.5q-61 0 -111.5 -24.5t-80 -70t-29.5 -104.5q0 -34 11.5 -67t55.5 -81t134 -106q101 -63 123 -80q126 -79 206 -147t122 -147t42 -179q0 -92 -35.5 -167.5t-101 -131t-156 -86t-196.5 -30.5 q-109 0 -252 41q-16 4 -40.5 9t-43.5 5q-47 0 -68 -49h-35zM1107 -10l9 416h39q19 -118 81.5 -197t141.5 -114.5t155 -35.5q111 0 183.5 62t72.5 151q0 60 -30.5 104.5t-91.5 88t-230 151.5q-89 58 -151.5 112t-97.5 103.5t-49.5 99t-14.5 105.5q0 108 55.5 213t157.5 171.5 t233 66.5q61 0 117 -12q15 -2 40 -8.5t42 -10.5q44 -8 66 -8q34 0 47.5 11t25.5 32h31v-383h-39q-40 138 -127 217.5t-211 79.5q-61 0 -111.5 -24.5t-80 -70t-29.5 -104.5q0 -34 11.5 -67t55.5 -81t134 -106q101 -63 123 -80q126 -79 206 -147t122 -147t42 -179 q0 -92 -35.5 -167.5t-101 -131t-156 -86t-196.5 -30.5q-109 0 -252 41q-16 4 -40.5 9t-43.5 5q-47 0 -68 -49h-35z" />
<glyph unicode="&#xe0;" horiz-adv-x="1622" d="M23 0v29q69 7 129 64.5t116 211.5l418 1182h191l495 -1274q40 -98 94 -134.5t133 -49.5v-29h-698v29q143 8 143 90q0 13 -4.5 36.5t-12 50t-9.5 32.5l-123 313h-440l-105 -301q-20 -54 -20 -98q0 -68 40 -91.5t95 -31.5v-29h-442zM459 1972v8h404l231 -397h-53zM489 649 h367l-190 496z" />
<glyph unicode="&#xe1;" horiz-adv-x="1622" d="M23 0v29q69 7 129 64.5t116 211.5l418 1182h191l495 -1274q40 -98 94 -134.5t133 -49.5v-29h-698v29q143 8 143 90q0 13 -4.5 36.5t-12 50t-9.5 32.5l-123 313h-440l-105 -301q-20 -54 -20 -98q0 -68 40 -91.5t95 -31.5v-29h-442zM489 649h367l-190 496zM506 1583 l231 397h404v-8l-582 -389h-53z" />
<glyph unicode="&#xe2;" horiz-adv-x="1622" d="M23 0v29q69 7 129 64.5t116 211.5l418 1182h191l495 -1274q40 -98 94 -134.5t133 -49.5v-29h-698v29q143 8 143 90q0 13 -4.5 36.5t-12 50t-9.5 32.5l-123 313h-440l-105 -301q-20 -54 -20 -98q0 -68 40 -91.5t95 -31.5v-29h-442zM432 1583l252 397h281l227 -397h-49 l-326 250l-336 -250h-49zM489 649h367l-190 496z" />
<glyph unicode="&#xe3;" horiz-adv-x="1622" d="M23 0v29q69 7 129 64.5t116 211.5l418 1182h191l495 -1274q40 -98 94 -134.5t133 -49.5v-29h-698v29q143 8 143 90q0 13 -4.5 36.5t-12 50t-9.5 32.5l-123 313h-440l-105 -301q-20 -54 -20 -98q0 -68 40 -91.5t95 -31.5v-29h-442zM403 1591q14 72 23.5 107t34.5 71 q40 57 89 82t95 25q51 0 95 -9.5t122 -33.5q97 -27 138 -35t71 -8q35 0 61 21.5t33 64.5h58q-4 -103 -60 -194t-178 -91q-80 0 -229 45q-68 22 -113 32.5t-90 10.5q-28 0 -55 -19.5t-39 -68.5h-56zM489 649h367l-190 496z" />
<glyph unicode="&#xe4;" horiz-adv-x="1622" d="M23 0v29q69 7 129 64.5t116 211.5l418 1182h191l495 -1274q40 -98 94 -134.5t133 -49.5v-29h-698v29q143 8 143 90q0 13 -4.5 36.5t-12 50t-9.5 32.5l-123 313h-440l-105 -301q-20 -54 -20 -98q0 -68 40 -91.5t95 -31.5v-29h-442zM408 1714q0 46 25 75.5t63.5 42.5 t74.5 13q65 0 117.5 -30.5t52.5 -100.5q0 -45 -24.5 -74.5t-59.5 -43t-69 -13.5q-53 0 -116.5 25.5t-63.5 105.5zM489 649h367l-190 496zM885 1718q0 67 49.5 97t111.5 30q61 0 117 -27.5t56 -103.5q0 -65 -50 -98t-104 -33q-56 0 -118 26.5t-62 108.5z" />
<glyph unicode="&#xe5;" horiz-adv-x="1622" d="M23 0v29q69 7 129 64.5t116 211.5l418 1182h191l495 -1274q40 -98 94 -134.5t133 -49.5v-29h-698v29q143 8 143 90q0 13 -4.5 36.5t-12 50t-9.5 32.5l-123 313h-440l-105 -301q-20 -54 -20 -98q0 -68 40 -91.5t95 -31.5v-29h-442zM489 649h367l-190 496zM602 1796 q0 87 61 149t150 62q57 0 105.5 -28t77 -77.5t28.5 -105.5q0 -90 -61.5 -151.5t-149.5 -61.5t-149.5 62.5t-61.5 150.5zM692 1796q0 -50 35.5 -86.5t85.5 -36.5q49 0 85 37t36 86q0 50 -35.5 85.5t-85.5 35.5t-85.5 -35.5t-35.5 -85.5z" />
<glyph unicode="&#xe6;" horiz-adv-x="2028" d="M16 0v29q113 11 189 127q18 27 25.5 38.5t12 18t8.5 11.5t5 7l600 1053q31 55 31 84q0 44 -36.5 61.5t-117.5 14.5v29h1198l11 -328h-29q-31 144 -85 195t-147 51h-301v-619h230q48 0 93.5 10t84.5 51t43 125h29v-434h-29q-23 166 -232 166h-219v-424q0 -120 53 -152 t132 -32h98q101 0 155.5 27.5t84.5 81t67 163.5h29l-23 -354h-1114v29q62 2 99.5 11.5t64.5 51t27 125.5v375h-486l-202 -361q-33 -53 -33 -100q0 -30 29 -66t106 -36v-29h-451zM623 692l430 1v698h-31z" />
<glyph unicode="&#xe7;" horiz-adv-x="1473" d="M76 725q0 119 31.5 226t85.5 190.5t124 148.5q125 114 260 155.5t291 41.5q154 0 336 -51q64 -15 94 -15q55 0 84 72h29v-526h-35q-16 107 -61.5 190t-110 137.5t-145 82.5t-170.5 28q-120 0 -211.5 -51t-140.5 -127q-59 -96 -83 -212.5t-24 -248.5q0 -240 84 -384 t202.5 -200.5t233.5 -56.5q278 0 482 272v-135l-17 -18q-126 -155 -237 -189q-45 -11 -133 -36t-105 -29l-4 -4q0 -6 37 -15q56 -17 71 -55.5t15 -67.5q0 -70 -53.5 -103.5t-117.5 -41.5t-136 -8q-103 0 -168 10v66q44 -4 67 -4q82 0 126 23t44 65q0 45 -42.5 56t-104.5 11 l92 62v4q-162 9 -291.5 70t-218.5 163.5t-134.5 231.5t-45.5 272z" />
<glyph unicode="&#xe8;" horiz-adv-x="1194" d="M27 0v29q116 0 150 52.5t34 137.5v1032q0 81 -31 137t-143 56h-10v29h1063l12 -330h-29q-20 83 -44.5 137t-69.5 82.5t-123 28.5h-297v-619h237q106 0 154.5 47t56.5 139h29v-432h-29q-15 98 -73 131t-138 33h-237v-424q0 -184 190 -184h90q91 0 148.5 24t95 82.5 t67.5 165.5h29l-22 -354h-1110zM244 1972v8h404l231 -397h-53z" />
<glyph unicode="&#xe9;" horiz-adv-x="1194" d="M27 0v29q116 0 150 52.5t34 137.5v1032q0 81 -31 137t-143 56h-10v29h1063l12 -330h-29q-20 83 -44.5 137t-69.5 82.5t-123 28.5h-297v-619h237q106 0 154.5 47t56.5 139h29v-432h-29q-15 98 -73 131t-138 33h-237v-424q0 -184 190 -184h90q91 0 148.5 24t95 82.5 t67.5 165.5h29l-22 -354h-1110zM352 1583l231 397h404v-8l-582 -389h-53z" />
<glyph unicode="&#xea;" horiz-adv-x="1194" d="M27 0v29q116 0 150 52.5t34 137.5v1032q0 81 -31 137t-143 56h-10v29h1063l12 -330h-29q-20 83 -44.5 137t-69.5 82.5t-123 28.5h-297v-619h237q106 0 154.5 47t56.5 139h29v-432h-29q-15 98 -73 131t-138 33h-237v-424q0 -184 190 -184h90q91 0 148.5 24t95 82.5 t67.5 165.5h29l-22 -354h-1110zM217 1583l252 397h281l227 -397h-49l-326 250l-336 -250h-49z" />
<glyph unicode="&#xeb;" horiz-adv-x="1194" d="M27 0v29q116 0 150 52.5t34 137.5v1032q0 81 -31 137t-143 56h-10v29h1063l12 -330h-29q-20 83 -44.5 137t-69.5 82.5t-123 28.5h-297v-619h237q106 0 154.5 47t56.5 139h29v-432h-29q-15 98 -73 131t-138 33h-237v-424q0 -184 190 -184h90q91 0 148.5 24t95 82.5 t67.5 165.5h29l-22 -354h-1110zM193 1714q0 46 25 75.5t63.5 42.5t74.5 13q65 0 117.5 -30.5t52.5 -100.5q0 -45 -24.5 -74.5t-59.5 -43t-69 -13.5q-53 0 -116.5 25.5t-63.5 105.5zM670 1718q0 67 49.5 97t111.5 30q61 0 117 -27.5t56 -103.5q0 -65 -50 -98t-104 -33 q-56 0 -118 26.5t-62 108.5z" />
<glyph unicode="&#xec;" horiz-adv-x="748" d="M27 0v29q114 0 148 52t34 138v1034q0 102 -44.5 147.5t-137.5 45.5v27h692v-29q-115 0 -148.5 -52.5t-33.5 -138.5v-1034q0 -49 9 -88t47.5 -70.5t117.5 -31.5h8v-29h-692zM82 1972v8h404l231 -397h-53z" />
<glyph unicode="&#xed;" horiz-adv-x="748" d="M27 0v29q114 0 148 52t34 138v1034q0 102 -44.5 147.5t-137.5 45.5v27h692v-29q-115 0 -148.5 -52.5t-33.5 -138.5v-1034q0 -49 9 -88t47.5 -70.5t117.5 -31.5h8v-29h-692zM68 1583l231 397h404v-8l-582 -389h-53z" />
<glyph unicode="&#xee;" horiz-adv-x="748" d="M-6 1583l252 397h281l227 -397h-49l-326 250l-336 -250h-49zM27 0v29q114 0 148 52t34 138v1034q0 102 -44.5 147.5t-137.5 45.5v27h692v-29q-115 0 -148.5 -52.5t-33.5 -138.5v-1034q0 -49 9 -88t47.5 -70.5t117.5 -31.5h8v-29h-692z" />
<glyph unicode="&#xef;" horiz-adv-x="748" d="M-30 1714q0 46 25 75.5t63.5 42.5t74.5 13q65 0 117.5 -30.5t52.5 -100.5q0 -45 -24.5 -74.5t-59.5 -43t-69 -13.5q-53 0 -116.5 25.5t-63.5 105.5zM27 0v29q114 0 148 52t34 138v1034q0 102 -44.5 147.5t-137.5 45.5v27h692v-29q-115 0 -148.5 -52.5t-33.5 -138.5v-1034 q0 -49 9 -88t47.5 -70.5t117.5 -31.5h8v-29h-692zM447 1718q0 67 49.5 97t111.5 30q61 0 117 -27.5t56 -103.5q0 -65 -50 -98t-104 -33q-56 0 -118 26.5t-62 108.5z" />
<glyph unicode="&#xf0;" horiz-adv-x="1729" d="M20 0v29q116 0 149.5 51.5t33.5 138.5v471h-183v82h183v477q0 82 -30 138.5t-142 56.5h-11v29h805q203 0 358 -62.5t259.5 -170.5t156.5 -243.5t52 -283.5q0 -145 -50 -275t-150.5 -228.5t-250 -154t-336.5 -55.5h-844zM530 295q0 -78 17.5 -124t65.5 -67.5t145 -21.5 q87 0 156 11.5t130 45.5q90 52 148.5 143t85.5 200t27 225q0 120 -31 237t-104 220t-196.5 165t-299.5 62q-81 0 -144 -17v-602h365v-82h-365v-395z" />
<glyph unicode="&#xf1;" horiz-adv-x="1772" d="M27 1444v29h534l899 -949v674q0 133 -54 181.5t-165 64.5v29h508v-29q-84 -9 -125 -45.5t-53 -85.5t-12 -115v-1214h-37l-1078 1134v-829q0 -104 44.5 -177.5t164.5 -82.5v-29h-526v29q221 18 219 217v975q-6 4 -16 14q-9 9 -30 29t-38 36q-134 129 -235 144zM477 1591 q14 72 23.5 107t34.5 71q40 57 89 82t95 25q51 0 95 -9.5t122 -33.5q97 -27 138 -35t71 -8q35 0 61 21.5t33 64.5h58q-4 -103 -60 -194t-178 -91q-80 0 -229 45q-68 22 -113 32.5t-90 10.5q-28 0 -55 -19.5t-39 -68.5h-56z" />
<glyph unicode="&#xf2;" d="M74 741q0 150 51.5 287t151.5 240.5t242.5 161t322.5 57.5q182 0 324.5 -58.5t242 -162.5t150.5 -240.5t51 -290.5q0 -153 -49.5 -288t-145.5 -239t-241.5 -164t-329.5 -60q-198 0 -345.5 67.5t-241 178.5t-138.5 245t-45 266zM424 760q0 -150 22.5 -295.5t116.5 -272 t283 -126.5q265 0 339.5 213.5t74.5 435.5q0 173 -30 324t-122.5 258.5t-261.5 107.5q-190 0 -283.5 -122.5t-116 -260.5t-22.5 -262zM551 1972v8h404l231 -397h-53z" />
<glyph unicode="&#xf3;" d="M74 741q0 150 51.5 287t151.5 240.5t242.5 161t322.5 57.5q182 0 324.5 -58.5t242 -162.5t150.5 -240.5t51 -290.5q0 -153 -49.5 -288t-145.5 -239t-241.5 -164t-329.5 -60q-198 0 -345.5 67.5t-241 178.5t-138.5 245t-45 266zM424 760q0 -150 22.5 -295.5t116.5 -272 t283 -126.5q265 0 339.5 213.5t74.5 435.5q0 173 -30 324t-122.5 258.5t-261.5 107.5q-190 0 -283.5 -122.5t-116 -260.5t-22.5 -262zM537 1583l231 397h404v-8l-582 -389h-53z" />
<glyph unicode="&#xf4;" d="M74 741q0 150 51.5 287t151.5 240.5t242.5 161t322.5 57.5q182 0 324.5 -58.5t242 -162.5t150.5 -240.5t51 -290.5q0 -153 -49.5 -288t-145.5 -239t-241.5 -164t-329.5 -60q-198 0 -345.5 67.5t-241 178.5t-138.5 245t-45 266zM424 760q0 -150 22.5 -295.5t116.5 -272 t283 -126.5q265 0 339.5 213.5t74.5 435.5q0 173 -30 324t-122.5 258.5t-261.5 107.5q-190 0 -283.5 -122.5t-116 -260.5t-22.5 -262zM463 1583l252 397h281l227 -397h-49l-326 250l-336 -250h-49z" />
<glyph unicode="&#xf5;" d="M74 741q0 150 51.5 287t151.5 240.5t242.5 161t322.5 57.5q182 0 324.5 -58.5t242 -162.5t150.5 -240.5t51 -290.5q0 -153 -49.5 -288t-145.5 -239t-241.5 -164t-329.5 -60q-198 0 -345.5 67.5t-241 178.5t-138.5 245t-45 266zM424 760q0 -150 22.5 -295.5t116.5 -272 t283 -126.5q265 0 339.5 213.5t74.5 435.5q0 173 -30 324t-122.5 258.5t-261.5 107.5q-190 0 -283.5 -122.5t-116 -260.5t-22.5 -262zM434 1591q14 72 23.5 107t34.5 71q40 57 89 82t95 25q51 0 95 -9.5t122 -33.5q97 -27 138 -35t71 -8q35 0 61 21.5t33 64.5h58 q-4 -103 -60 -194t-178 -91q-80 0 -229 45q-68 22 -113 32.5t-90 10.5q-28 0 -55 -19.5t-39 -68.5h-56z" />
<glyph unicode="&#xf6;" d="M74 741q0 150 51.5 287t151.5 240.5t242.5 161t322.5 57.5q182 0 324.5 -58.5t242 -162.5t150.5 -240.5t51 -290.5q0 -153 -49.5 -288t-145.5 -239t-241.5 -164t-329.5 -60q-198 0 -345.5 67.5t-241 178.5t-138.5 245t-45 266zM424 760q0 -150 22.5 -295.5t116.5 -272 t283 -126.5q265 0 339.5 213.5t74.5 435.5q0 173 -30 324t-122.5 258.5t-261.5 107.5q-190 0 -283.5 -122.5t-116 -260.5t-22.5 -262zM439 1714q0 46 25 75.5t63.5 42.5t74.5 13q65 0 117.5 -30.5t52.5 -100.5q0 -45 -24.5 -74.5t-59.5 -43t-69 -13.5q-53 0 -116.5 25.5 t-63.5 105.5zM916 1718q0 67 49.5 97t111.5 30q61 0 117 -27.5t56 -103.5q0 -65 -50 -98t-104 -33q-56 0 -118 26.5t-62 108.5z" />
<glyph unicode="&#xf7;" horiz-adv-x="1124" d="M20 483v113h1078v-113h-1078zM434 260q0 48 33.5 81.5t81.5 33.5q30 0 56.5 -15t42.5 -42t16 -58q0 -47 -34 -81t-81 -34q-48 0 -81.5 34.5t-33.5 80.5zM434 819q0 48 33.5 81.5t81.5 33.5q30 0 56.5 -15t42.5 -42t16 -58q0 -47 -34.5 -80.5t-80.5 -33.5q-47 0 -81 34 t-34 80z" />
<glyph unicode="&#xf8;" d="M74 745q0 146 49 277.5t146.5 237t243.5 166.5t329 61q281 0 477 -144l131 148l61 -55l-129 -146q75 -71 126 -159.5t76.5 -188.5t25.5 -207q0 -206 -89.5 -378t-263.5 -272.5t-411 -100.5q-301 0 -484 147l-131 -149l-63 55l131 147q-109 107 -167 254t-58 307zM424 758 q0 -100 10.5 -203.5t34.5 -177.5l713 809q-11 25 -31 57q-45 73 -123.5 117.5t-181.5 44.5q-114 0 -200 -55t-130 -136q-43 -82 -67.5 -184.5t-24.5 -271.5zM502 289q58 -123 153.5 -173t190.5 -50q265 0 339.5 213.5t74.5 435.5q0 75 -6.5 152.5t-17.5 137t-22 93.5z" />
<glyph unicode="&#xf9;" horiz-adv-x="1749" d="M6 1444v29h692v-29q-114 0 -148 -52t-34 -139v-657q0 -145 35 -229q25 -61 70.5 -105t106 -67t126.5 -23q69 0 132 24.5t113.5 70.5t76.5 104q36 86 36 268v614q0 105 -42 149t-140 44v27h692v-29q-113 0 -147.5 -51t-34.5 -140v-1034q0 -98 39 -145t143 -47v-27h-510 v279h-4q-161 -295 -479 -295q-161 0 -288.5 75t-188.5 191q-64 120 -64 383v620q0 94 -37.5 142.5t-144.5 48.5zM522 1972v8h404l231 -397h-53z" />
<glyph unicode="&#xfa;" horiz-adv-x="1749" d="M6 1444v29h692v-29q-114 0 -148 -52t-34 -139v-657q0 -145 35 -229q25 -61 70.5 -105t106 -67t126.5 -23q69 0 132 24.5t113.5 70.5t76.5 104q36 86 36 268v614q0 105 -42 149t-140 44v27h692v-29q-113 0 -147.5 -51t-34.5 -140v-1034q0 -98 39 -145t143 -47v-27h-510 v279h-4q-161 -295 -479 -295q-161 0 -288.5 75t-188.5 191q-64 120 -64 383v620q0 94 -37.5 142.5t-144.5 48.5zM631 1583l231 397h404v-8l-582 -389h-53z" />
<glyph unicode="&#xfb;" horiz-adv-x="1749" d="M6 1444v29h692v-29q-114 0 -148 -52t-34 -139v-657q0 -145 35 -229q25 -61 70.5 -105t106 -67t126.5 -23q69 0 132 24.5t113.5 70.5t76.5 104q36 86 36 268v614q0 105 -42 149t-140 44v27h692v-29q-113 0 -147.5 -51t-34.5 -140v-1034q0 -98 39 -145t143 -47v-27h-510 v279h-4q-161 -295 -479 -295q-161 0 -288.5 75t-188.5 191q-64 120 -64 383v620q0 94 -37.5 142.5t-144.5 48.5zM496 1583l252 397h281l227 -397h-49l-326 250l-336 -250h-49z" />
<glyph unicode="&#xfc;" horiz-adv-x="1749" d="M6 1444v29h692v-29q-114 0 -148 -52t-34 -139v-657q0 -145 35 -229q25 -61 70.5 -105t106 -67t126.5 -23q69 0 132 24.5t113.5 70.5t76.5 104q36 86 36 268v614q0 105 -42 149t-140 44v27h692v-29q-113 0 -147.5 -51t-34.5 -140v-1034q0 -98 39 -145t143 -47v-27h-510 v279h-4q-161 -295 -479 -295q-161 0 -288.5 75t-188.5 191q-64 120 -64 383v620q0 94 -37.5 142.5t-144.5 48.5zM472 1714q0 46 25 75.5t63.5 42.5t74.5 13q65 0 117.5 -30.5t52.5 -100.5q0 -45 -24.5 -74.5t-59.5 -43t-69 -13.5q-53 0 -116.5 25.5t-63.5 105.5zM949 1718 q0 67 49.5 97t111.5 30q61 0 117 -27.5t56 -103.5q0 -65 -50 -98t-104 -33q-56 0 -118 26.5t-62 108.5z" />
<glyph unicode="&#xfd;" d="M23 1444v29h725v-29q-57 -2 -90 -14t-33 -54q0 -37 57 -116l274 -390l220 326q57 86 57 156q0 35 -28.5 63t-98.5 29v29h553v-29q-109 -5 -195 -62.5t-174 -185.5l-272 -405v-572q0 -98 39.5 -144t142.5 -46v-29h-692v29q114 0 148 51.5t34 138.5v492l-438 581 q-72 97 -117.5 124.5t-111.5 27.5zM598 1583l231 397h404v-8l-582 -389h-53z" />
<glyph unicode="&#xfe;" horiz-adv-x="1300" d="M16 0v29q71 0 127 29.5t56 136.5v1058q0 93 -37 142t-146 49v29h693v-29q-73 0 -128 -30.5t-55 -141.5v-127h271q121 0 225 -49.5t166.5 -141.5t62.5 -215q0 -68 -22 -128.5t-58.5 -107t-76.5 -75.5q-69 -49 -159 -74.5t-237 -25.5q-57 0 -99.5 3t-72.5 7v-119 q0 -104 48.5 -147t146.5 -43v-29h-705zM526 420q31 -10 97 -10q162 0 231.5 105.5t69.5 236.5q0 83 -30 153t-98.5 114t-177.5 44q-54 0 -92 -10v-633z" />
<glyph unicode="&#xff;" d="M23 1444v29h725v-29q-57 -2 -90 -14t-33 -54q0 -37 57 -116l274 -390l220 326q57 86 57 156q0 35 -28.5 63t-98.5 29v29h553v-29q-109 -5 -195 -62.5t-174 -185.5l-272 -405v-572q0 -98 39.5 -144t142.5 -46v-29h-692v29q114 0 148 51.5t34 138.5v492l-438 581 q-72 97 -117.5 124.5t-111.5 27.5zM439 1714q0 46 25 75.5t63.5 42.5t74.5 13q65 0 117.5 -30.5t52.5 -100.5q0 -45 -24.5 -74.5t-59.5 -43t-69 -13.5q-53 0 -116.5 25.5t-63.5 105.5zM916 1718q0 67 49.5 97t111.5 30q61 0 117 -27.5t56 -103.5q0 -65 -50 -98t-104 -33 q-56 0 -118 26.5t-62 108.5z" />
<glyph unicode="&#x152;" horiz-adv-x="2111" d="M86 752q0 191 74.5 332.5t187.5 227.5t231.5 125.5t213.5 39.5q46 -1 78 -1.5t112 -2.5h1032l10 -334h-32q-24 133 -78.5 192.5t-185.5 59.5h-265v-621h236q77 0 124 25.5t67 66.5t20 94h28v-432h-28q-4 59 -52 111.5t-159 52.5h-236v-420q0 -74 26.5 -115t79.5 -56 t140 -15q107 0 166.5 19.5t99.5 77t70 171.5h35l-19 -350h-915q-47 0 -80 -4q-30 0 -74 -8q-39 -4 -104 -4q-150 0 -295.5 52t-260.5 152.5t-181 243t-66 320.5zM432 758q0 -114 29.5 -235t92 -225.5t159.5 -168t229 -63.5q104 0 149.5 60.5t45.5 182.5v858q0 93 -40 160.5 t-190 67.5q-135 0 -243 -83t-170 -229t-62 -325z" />
<glyph unicode="&#x153;" horiz-adv-x="2111" d="M86 752q0 191 74.5 332.5t187.5 227.5t231.5 125.5t213.5 39.5q46 -1 78 -1.5t112 -2.5h1032l10 -334h-32q-24 133 -78.5 192.5t-185.5 59.5h-265v-621h236q77 0 124 25.5t67 66.5t20 94h28v-432h-28q-4 59 -52 111.5t-159 52.5h-236v-420q0 -74 26.5 -115t79.5 -56 t140 -15q107 0 166.5 19.5t99.5 77t70 171.5h35l-19 -350h-915q-47 0 -80 -4q-30 0 -74 -8q-39 -4 -104 -4q-150 0 -295.5 52t-260.5 152.5t-181 243t-66 320.5zM432 758q0 -114 29.5 -235t92 -225.5t159.5 -168t229 -63.5q104 0 149.5 60.5t45.5 182.5v858q0 93 -40 160.5 t-190 67.5q-135 0 -243 -83t-170 -229t-62 -325z" />
<glyph unicode="&#x178;" d="M23 1444v29h725v-29q-57 -2 -90 -14t-33 -54q0 -37 57 -116l274 -390l220 326q57 86 57 156q0 35 -28.5 63t-98.5 29v29h553v-29q-109 -5 -195 -62.5t-174 -185.5l-272 -405v-572q0 -98 39.5 -144t142.5 -46v-29h-692v29q114 0 148 51.5t34 138.5v492l-438 581 q-72 97 -117.5 124.5t-111.5 27.5zM439 1714q0 46 25 75.5t63.5 42.5t74.5 13q65 0 117.5 -30.5t52.5 -100.5q0 -45 -24.5 -74.5t-59.5 -43t-69 -13.5q-53 0 -116.5 25.5t-63.5 105.5zM916 1718q0 67 49.5 97t111.5 30q61 0 117 -27.5t56 -103.5q0 -65 -50 -98t-104 -33 q-56 0 -118 26.5t-62 108.5z" />
<glyph unicode="&#x2c6;" horiz-adv-x="682" d="M-39 1583l252 397h281l227 -397h-49l-326 250l-336 -250h-49z" />
<glyph unicode="&#x2dc;" horiz-adv-x="682" d="M-68 1591q14 72 23.5 107t34.5 71q40 57 89 82t95 25q51 0 95 -9.5t122 -33.5q97 -27 138 -35t71 -8q35 0 61 21.5t33 64.5h58q-4 -103 -60 -194t-178 -91q-80 0 -229 45q-68 22 -113 32.5t-90 10.5q-28 0 -55 -19.5t-39 -68.5h-56z" />
<glyph unicode="&#x2000;" horiz-adv-x="1003" />
<glyph unicode="&#x2001;" horiz-adv-x="2007" />
<glyph unicode="&#x2002;" horiz-adv-x="1003" />
<glyph unicode="&#x2003;" horiz-adv-x="2007" />
<glyph unicode="&#x2004;" horiz-adv-x="669" />
<glyph unicode="&#x2005;" horiz-adv-x="501" />
<glyph unicode="&#x2006;" horiz-adv-x="334" />
<glyph unicode="&#x2007;" horiz-adv-x="334" />
<glyph unicode="&#x2008;" horiz-adv-x="250" />
<glyph unicode="&#x2009;" horiz-adv-x="401" />
<glyph unicode="&#x200a;" horiz-adv-x="111" />
<glyph unicode="&#x2010;" horiz-adv-x="705" d="M74 641v176h557v-176h-557z" />
<glyph unicode="&#x2011;" horiz-adv-x="705" d="M74 641v176h557v-176h-557z" />
<glyph unicode="&#x2012;" horiz-adv-x="705" d="M74 641v176h557v-176h-557z" />
<glyph unicode="&#x2013;" horiz-adv-x="1024" d="M-12 672v131h1048v-131h-1048z" />
<glyph unicode="&#x2014;" horiz-adv-x="2048" d="M-12 672v131h2072v-131h-2072z" />
<glyph unicode="&#x2018;" horiz-adv-x="492" d="M66 1100q0 72 38 151t122 143.5t214 92.5v-35q-148 -87 -166 -221q74 -11 112 -58.5t38 -103.5q0 -46 -23 -85.5t-63.5 -63t-89.5 -23.5q-87 0 -134.5 62.5t-47.5 140.5z" />
<glyph unicode="&#x2019;" horiz-adv-x="492" d="M51 897v35q77 45 118 104.5t48 116.5q-71 11 -110 59t-39 103q0 69 50.5 120.5t125.5 51.5q87 0 134.5 -62.5t47.5 -140.5q0 -72 -38 -151t-121.5 -143.5t-215.5 -92.5z" />
<glyph unicode="&#x201a;" horiz-adv-x="492" d="M55 -215q72 36 115 93.5t43 90.5q0 16 -10 19q-86 13 -109.5 64.5t-23.5 97.5q0 75 51 120t119 45q83 0 135.5 -59t52.5 -143q0 -75 -46.5 -151t-132 -134t-194.5 -78v35z" />
<glyph unicode="&#x201c;" horiz-adv-x="938" d="M57 1100q0 90 52 173t138.5 139.5t184.5 74.5v-33q-98 -60 -128 -112.5t-36 -112.5q81 -10 115.5 -63t34.5 -103q0 -66 -48.5 -117t-125.5 -51q-80 0 -133.5 61.5t-53.5 143.5zM506 1100q0 92 51 173.5t137 138.5t187 75v-33q-97 -59 -127.5 -112t-36.5 -113 q80 -10 114.5 -63t34.5 -103q0 -66 -48.5 -117t-125.5 -51q-79 0 -132.5 61.5t-53.5 143.5z" />
<glyph unicode="&#x201d;" horiz-adv-x="938" d="M57 897v35q77 45 118 104.5t48 116.5q-71 11 -110 59t-39 103q0 69 50.5 120.5t125.5 51.5q87 0 134.5 -62.5t47.5 -140.5q0 -72 -38 -151t-121.5 -143.5t-215.5 -92.5zM506 897v35q79 47 119 106t45 115q-71 11 -109.5 59t-38.5 103q0 45 22.5 85t63 63.5t88.5 23.5 q61 0 102.5 -31t62 -77t20.5 -95q0 -72 -38 -151t-121 -143t-216 -93z" />
<glyph unicode="&#x201e;" horiz-adv-x="938" d="M55 -215q71 37 114.5 98.5t43.5 93.5q0 11 -20 11q-13 0 -43 16.5t-55 52t-25 90.5q0 80 52 124t118 44q83 0 135.5 -59t52.5 -143q0 -75 -46.5 -151t-132 -134t-194.5 -78v35zM502 -215q71 37 115.5 98.5t44.5 93.5q0 11 -21 11q-13 0 -42.5 16.5t-55 51.5t-25.5 91 q0 80 52 124t118 44q84 0 136.5 -59t52.5 -143q0 -73 -47.5 -150.5t-133.5 -135t-194 -77.5v35z" />
<glyph unicode="&#x2022;" horiz-adv-x="725" d="M78 676q0 122 83.5 204.5t200.5 82.5q77 0 143 -37.5t105 -104t39 -145.5q0 -78 -38.5 -143t-104.5 -103.5t-144 -38.5q-76 0 -142 38t-104 104t-38 143z" />
<glyph unicode="&#x2026;" horiz-adv-x="2048" d="M180 145q0 67 46.5 114.5t115.5 47.5q68 0 115 -48t47 -114q0 -65 -47 -113t-115 -48t-115 48t-47 113zM862 145q0 67 47.5 114.5t114.5 47.5q46 0 82.5 -22.5t58 -60.5t21.5 -79q0 -42 -21.5 -80t-58.5 -59.5t-82 -21.5q-68 0 -115 48t-47 113zM1544 145 q0 67 47.5 114.5t114.5 47.5q46 0 82.5 -22.5t58 -60.5t21.5 -79q0 -42 -21.5 -80t-58.5 -59.5t-82 -21.5q-66 0 -114 48t-48 113z" />
<glyph unicode="&#x202f;" horiz-adv-x="401" />
<glyph unicode="&#x2039;" horiz-adv-x="469" d="M23 727l395 498h24l-141 -498l141 -498h-24z" />
<glyph unicode="&#x203a;" horiz-adv-x="469" d="M27 229l141 498l-141 498h24l395 -498l-395 -498h-24z" />
<glyph unicode="&#x205f;" horiz-adv-x="501" />
<glyph unicode="&#x20ac;" horiz-adv-x="1389" d="M4 573l21 103h73q0 113 4 121h-98l21 102h88q39 254 222 421t484 167q149 0 316 -51q57 -15 88 -15q52 0 80 72h26v-504h-33q-31 203 -154 309.5t-302 106.5q-178 0 -286.5 -133.5t-117.5 -372.5h752l-21 -102h-733v-31q0 -59 2 -90h711l-21 -103h-677 q39 -225 162.5 -336.5t285.5 -111.5q277 0 451 250v-135q-199 -256 -566 -256q-271 0 -448.5 156.5t-222.5 432.5h-107z" />
<glyph unicode="&#x2122;" horiz-adv-x="2154" d="M0 1251v222h823v-222h-35q-8 59 -20.5 93t-52.5 55.5t-117 21.5h-45v-571q0 -33 4 -49q2 -56 17.5 -75t82.5 -24v-34h-503v34q57 7 66 8.5t18 10.5q22 22 22 121v579h-35q-84 0 -134.5 -32t-57.5 -138h-33zM928 668v34q53 3 75.5 11.5t29.5 35t7 93.5v434q0 78 -8 110 t-29 40t-75 10v37h418l204 -443l209 443h395v-37q-69 -7 -83.5 -32.5t-14.5 -123.5v-422q0 -74 4.5 -102t23.5 -39.5t70 -14.5v-34h-507v34q48 4 65 8.5t28 19t15 47.5t4 85v473h-4l-317 -667h-25l-313 667h-4v-489q0 -67 5.5 -92.5t28.5 -37t80 -14.5v-34h-282z" />
<glyph unicode="&#x25fc;" horiz-adv-x="1475" d="M0 0v1475h1475v-1475h-1475z" />
</font>
</defs>
</svg>
