<?xml version="1.0" standalone="no"?>
<!DOCTYPE svg PUBLIC "-//W3C//DTD SVG 1.1//EN" "http://www.w3.org/Graphics/SVG/1.1/DTD/svg11.dtd" >
<svg xmlns="http://www.w3.org/2000/svg">
<metadata></metadata>
<defs>
<font id="perpetua_titling_mtlight" horiz-adv-x="1409" >
<font-face units-per-em="2048" ascent="1638" descent="-410" />
<missing-glyph horiz-adv-x="683" />
<glyph horiz-adv-x="2048" />
<glyph horiz-adv-x="2048" />
<glyph unicode="&#xd;" horiz-adv-x="683" />
<glyph unicode=" "  horiz-adv-x="683" />
<glyph unicode="&#x09;" horiz-adv-x="683" />
<glyph unicode="&#xa0;" horiz-adv-x="683" />
<glyph unicode="!" horiz-adv-x="342" d="M80 51q0 39 25.5 65.5t64.5 26.5q40 0 66 -26t26 -66q0 -39 -26.5 -64.5t-65.5 -25.5q-38 0 -64 26t-26 64zM84 1294q0 156 86 156q80 0 80 -139q0 -32 -3.5 -82t-4.5 -74q-14 -133 -21 -276q-1 -1 -7.5 -87.5t-10.5 -132t-6 -75.5q-14 -160 -19 -236h-12q-5 35 -12 118 t-11 122q0 22 -19.5 250t-29.5 321l-5 52t-5 83z" />
<glyph unicode="&#x22;" horiz-adv-x="575" d="M41 1432q0 42 27 63t63 21t66 -22.5t47.5 -63t17.5 -91.5q0 -92 -54 -173.5t-145 -116.5v14q64 42 91.5 103.5t27.5 115.5q0 59 -20 59h-51q-32 6 -51 31t-19 60zM317 1432q0 41 28 62.5t63 21.5q57 0 95 -50t38 -127q0 -92 -54 -173.5t-145 -116.5v14q62 42 89.5 105 t27.5 114q0 59 -21 59q-15 0 -31 -0.5t-20 0.5q-31 6 -50.5 31t-19.5 60z" />
<glyph unicode="#" horiz-adv-x="1024" d="M41 393l12 94h211l51 373h-204l12 94h205l59 424h96l-59 -424h256l57 424h97l-58 -424h209l-12 -94h-211l-49 -373h211l-13 -94h-213l-57 -426h-96l57 426h-254l-59 -426h-96l59 426h-211zM360 487h256l50 373h-254z" />
<glyph unicode="$" horiz-adv-x="1110" d="M106 1139q0 106 75 225t323 139v103h88v-103q90 -11 225 -45q33 -8 60 -8q32 0 41 35h14v-357h-14q-59 285 -326 318v-615q148 -79 236 -139t142 -142t54 -190q0 -43 -10.5 -94.5t-52.5 -116t-132 -114t-237 -60.5v-98h-88v98q-106 0 -172 19q-122 33 -146 33 q-47 0 -47 -37h-14v368h14q10 -86 39 -155t107 -121t219 -59v684q-154 79 -241 146.5t-122 134.5t-35 151zM231 1186q0 -92 64.5 -157.5t208.5 -147.5v569q-89 -13 -151.5 -55.5t-92 -98.5t-29.5 -110zM592 23q147 3 227 82.5t80 185.5q0 124 -84.5 209.5t-222.5 158.5v-636 z" />
<glyph unicode="%" horiz-adv-x="1772" d="M41 1112q0 131 56.5 222.5t142.5 136.5t170 45q90 0 174 -49t137 -142t53 -215q0 -113 -51.5 -206t-135 -144t-177.5 -51q-87 0 -173.5 48t-141 139.5t-54.5 215.5zM166 1112q0 -90 31 -173t86.5 -134t124.5 -51t124.5 51.5t86 135.5t30.5 169q0 89 -29.5 173t-84 135.5 t-129.5 51.5q-116 0 -178 -118.5t-62 -239.5zM432 -10l852 1526h70l-852 -1526h-70zM995 381q0 132 56 223.5t142.5 136.5t170.5 45q89 0 173.5 -48.5t138 -141t53.5 -215.5q0 -113 -52 -206t-136 -144t-179 -51q-86 0 -172 48t-140.5 139t-54.5 214zM1120 383 q0 -90 31.5 -173.5t87.5 -134t123 -50.5q69 0 124.5 51t86.5 135.5t31 169.5q0 69 -15.5 131t-46.5 114t-77 83.5t-105 31.5q-80 0 -134 -59.5t-80 -142.5t-26 -156z" />
<glyph unicode="&#x26;" horiz-adv-x="1493" d="M63 344q0 142 87 253.5t212 193.5l-14 14q-91 102 -142.5 187.5t-51.5 178.5q0 90 48.5 169.5t134.5 127.5t193 48q140 0 226 -78t86 -191q0 -127 -98.5 -225.5t-237.5 -183.5q51 -59 160 -170l145 -152q85 -89 150 -149q53 82 114.5 233t61.5 246q0 62 -32.5 81 t-82.5 21v17h418v-17q-74 -3 -120 -30t-81.5 -85t-73.5 -155q-43 -110 -74 -175.5t-54 -102.5t-44 -66q7 -6 75 -68t116 -106q109 -92 169.5 -117t121.5 -27v-16h-312q-172 137 -256 217q-57 -75 -173.5 -161.5t-274.5 -86.5q-85 0 -156.5 29t-126.5 83.5t-84 122t-29 140.5 zM182 428q0 -97 53 -177.5t138 -125.5t172 -45q76 0 139 27t106 62t87 79q-86 82 -131.5 127.5t-96 97.5t-106 112t-154.5 171q-207 -139 -207 -328zM266 1257q0 -55 32.5 -126.5t82 -138.5t98.5 -120q106 68 172 143t66 183q0 64 -30 124t-87 97t-129 37q-100 0 -152.5 -59 t-52.5 -140z" />
<glyph unicode="'" horiz-adv-x="299" d="M39 1432q0 42 27 63t63 21t66 -22.5t47.5 -63t17.5 -91.5q0 -92 -54 -173.5t-145 -116.5v14q64 42 91.5 103.5t27.5 115.5q0 59 -20 59h-51q-32 6 -51 31t-19 60z" />
<glyph unicode="(" horiz-adv-x="618" d="M92 647q0 248 133 475q43 71 79 117.5t76.5 87t94.5 85t135 104.5l8 -11q-124 -102 -202.5 -221.5t-118 -275.5t-39.5 -363q0 -296 87.5 -499t272.5 -355l-8 -12q-122 82 -236.5 198.5t-198 289t-83.5 380.5z" />
<glyph unicode=")" horiz-adv-x="618" d="M0 -209q94 76 162 163.5t111.5 189.5t65 227t21.5 274q0 207 -39.5 363t-119 277t-201.5 220l8 11q104 -78 168.5 -133.5t117.5 -119t99 -141.5q68 -113 100.5 -231.5t32.5 -243.5q0 -300 -159 -517t-359 -351z" />
<glyph unicode="*" horiz-adv-x="874" d="M63 926q0 35 37 55.5t146 50.5q95 30 151 58q-5 12 0 24q-34 20 -74.5 33.5t-154.5 44.5q-105 27 -105 86q0 26 19 47t43 21q21 0 43.5 -13.5t71.5 -62.5q92 -94 166 -137q10 8 22 10q-17 117 -49 239q-1 9 -5.5 29t-4.5 35q0 26 16.5 48t52.5 22q30 0 47 -21t17 -49 q0 -35 -8 -70l-29 -102q-19 -78 -19 -131q11 -2 21 -10q55 32 154 129q79 81 120 81q19 0 42.5 -15.5t23.5 -51.5q0 -30 -21.5 -47t-80.5 -35q-157 -44 -230 -80q5 -12 0 -24q79 -35 227 -78q107 -32 107 -88q0 -29 -23 -47.5t-43 -18.5q-27 0 -60 26.5t-105 98.5 q-62 61 -111 90q-10 -8 -21 -10q0 -53 19 -119q25 -95 32 -129t7 -63q0 -23 -16 -45.5t-52 -22.5q-27 0 -45 19t-18 51q0 27 10 77q2 7 11 44t14 53q16 67 20 135q-11 2 -22 10q-49 -30 -101 -80l-90 -86q-15 -15 -40 -32t-46 -17q-23 0 -44.5 20.5t-21.5 47.5z" />
<glyph unicode="+" horiz-adv-x="1124" d="M20 498v112h486v482h112v-482h486v-112h-486v-498h-112v498h-486z" />
<glyph unicode="," horiz-adv-x="299" d="M39 82q0 38 28 64t66 26q31 0 61 -22.5t48 -62.5t18 -89q0 -100 -51 -175t-148 -120v12q2 1 33.5 29.5t57.5 80.5t26 120q0 55 -16 55q-1 0 -15 -4l-16 -4q-37 0 -64.5 25t-27.5 65z" />
<glyph unicode="-" horiz-adv-x="641" d="M55 690v82h529v-82h-529z" />
<glyph unicode="." horiz-adv-x="299" d="M57 51q0 39 25.5 65.5t64.5 26.5t66 -26t27 -66q0 -39 -27.5 -64.5t-65.5 -25.5t-64 26t-26 64z" />
<glyph unicode="/" horiz-adv-x="641" d="M70 0l452 1473h47l-452 -1473h-47z" />
<glyph unicode="0" horiz-adv-x="1366" d="M82 735q0 251 91.5 428.5t231 265t277.5 87.5q148 0 286.5 -95t226 -273t87.5 -413q0 -168 -48.5 -308t-134 -245.5t-194.5 -163t-223 -57.5q-107 0 -213.5 52.5t-194.5 152.5t-140 245t-52 324zM252 735q0 -169 48.5 -333.5t146 -271.5t235.5 -107q114 0 212.5 98 t158 263t59.5 351q0 175 -48 341.5t-145.5 272t-236.5 105.5q-137 0 -235.5 -117t-146.5 -286.5t-48 -315.5z" />
<glyph unicode="1" horiz-adv-x="618" d="M72 0v16q164 0 164 160v987q0 98 -5 120t-32 22q-18 0 -127 -37v16q63 32 106 59.5t84.5 66.5t91.5 106h33v-1340q0 -85 40 -122.5t122 -37.5v-16h-477z" />
<glyph unicode="2" horiz-adv-x="1153" d="M82 0q50 43 159 150.5t209 215.5t144 169q135 183 180 296.5t45 206.5q0 85 -28.5 153t-75 111t-107.5 66t-125 23q-56 0 -121 -21.5t-125.5 -77.5t-93.5 -149h-30q16 81 68 166t149 146t231 61q131 0 226 -58t143.5 -150t48.5 -196q0 -124 -60.5 -253.5t-156.5 -247.5 t-202.5 -220.5t-250.5 -228.5l-33 -29h650q61 0 98.5 25t67.5 80h16l-64 -238h-962z" />
<glyph unicode="3" horiz-adv-x="1024" d="M70 135v74q91 -91 174.5 -129.5t177.5 -38.5q139 0 208.5 73.5t86 150t16.5 132.5q0 127 -54.5 203t-113.5 111q-18 11 -57 20.5t-75 14t-66 4.5h-136v53h74q175 0 266 94q84 85 84 248q0 97 -32.5 169t-92.5 113t-141 41q-112 0 -168.5 -64t-93.5 -153h-14v267h14 q11 -31 55 -31q9 0 39 5t35 5q84 19 160 19q103 0 193 -44.5t145 -125.5t55 -187q0 -56 -23.5 -132.5t-85.5 -133.5q-74 -69 -221 -105v-4q168 -11 264.5 -79t132 -153.5t35.5 -162.5q0 -91 -37 -169.5t-103.5 -136.5t-150.5 -90t-176 -32q-129 0 -212.5 49.5t-161.5 124.5z " />
<glyph unicode="4" horiz-adv-x="1300" d="M39 592l752 919h55v-829h399v-90h-399v-414q0 -90 46.5 -126t108.5 -38v-14h-464v14q66 2 111.5 38t45.5 126v414h-655zM186 682h508v623h-4z" />
<glyph unicode="5" horiz-adv-x="1024" d="M68 111v73q67 -58 140 -96.5t189 -38.5q108 0 177 48t100 123t31 155q0 98 -39 176t-112.5 122t-170.5 44q-55 0 -98 -11t-119 -40l139 807h649l-20 -111h-504l-104 -606q75 14 143 14q114 0 209.5 -51.5t150 -141t54.5 -192.5q0 -111 -55.5 -208t-160 -156.5 t-237.5 -59.5q-108 0 -188 36.5t-174 113.5z" />
<glyph unicode="6" horiz-adv-x="1174" d="M106 522q0 52 12 134.5t43.5 182.5t94 208t160.5 206q140 140 292 192.5t304 70.5v-35q-94 -16 -180.5 -44.5t-183 -94.5t-175.5 -177q-96 -134 -140 -279t-50 -325l4 -4q37 77 121.5 147t238.5 70q124 0 219 -54t145 -145t50 -196q0 -85 -33 -161t-96 -134.5 t-149.5 -90.5t-186.5 -32q-126 0 -220.5 47.5t-154.5 130t-87.5 182t-27.5 201.5zM283 483q-2 -113 32.5 -223.5t110 -182t192.5 -71.5q118 0 199.5 83.5t81.5 242.5q0 99 -40 184t-110.5 135.5t-160.5 50.5q-85 0 -168.5 -50t-136.5 -169z" />
<glyph unicode="7" horiz-adv-x="1130" d="M80 1186l45 287h948l-651 -1498h-146l603 1387h-412q-160 0 -242 -38t-129 -138h-16z" />
<glyph unicode="8" horiz-adv-x="1110" d="M100 301q0 95 46 170.5t127.5 136t193.5 113.5q-185 106 -251 201.5t-66 199.5q0 94 47 184.5t145 150t242 59.5q127 0 218.5 -50t137 -129t45.5 -168q0 -112 -56 -192t-125.5 -123.5t-135.5 -71.5l28 -18q87 -55 125.5 -82t83.5 -73t75 -110.5t30 -142.5 q0 -101 -56.5 -192.5t-165.5 -147t-264 -55.5q-146 0 -241.5 53t-139 130.5t-43.5 156.5zM256 309q0 -136 72.5 -222.5t220.5 -86.5q151 0 235 85t84 214q0 93 -38 156t-101.5 108t-202.5 125q-2 2 -4.5 3l-5 2t-4.5 3q-67 -38 -122.5 -84t-94.5 -121t-39 -182zM289 1186 q0 -68 35.5 -144.5t158.5 -150.5l117 -70l3 -1.5l7 -3.5t13 -7q73 39 120 82.5t72 105.5t25 152q0 157 -80.5 236t-194.5 79q-70 0 -133 -30t-103 -92.5t-40 -155.5z" />
<glyph unicode="9" horiz-adv-x="1153" d="M92 1098q0 85 33.5 161t95.5 134.5t149 90.5t187 32q129 0 223.5 -48t153 -129t86 -179.5t27.5 -205.5q0 -51 -10.5 -128t-43 -181t-96 -214.5t-160.5 -207.5q-99 -99 -210 -154t-197 -75t-189 -33v35q93 16 179.5 43.5t183.5 94t176 177.5q96 133 140 279.5t50 324.5 l-4 5q-38 -79 -121 -148.5t-239 -69.5q-187 0 -300.5 116.5t-113.5 279.5zM254 1145q0 -98 40 -184t110.5 -136.5t160.5 -50.5q85 0 169.5 50.5t135.5 168.5q2 113 -32.5 223.5t-110 182t-192.5 71.5q-120 0 -200.5 -83t-80.5 -242z" />
<glyph unicode=":" horiz-adv-x="299" d="M59 51q0 39 25.5 65.5t65.5 26.5t66 -26t26 -66q0 -39 -26.5 -64.5t-65.5 -25.5t-65 26t-26 64zM59 702q0 38 25.5 65.5t65.5 27.5t66 -27t26 -66t-26.5 -64.5t-65.5 -25.5t-65 26t-26 64z" />
<glyph unicode=";" horiz-adv-x="299" d="M39 82q0 38 28 64t66 26q31 0 61 -22.5t48 -62.5t18 -89q0 -100 -51 -175t-148 -120v12q2 1 33.5 29.5t57.5 80.5t26 120q0 55 -16 55q-1 0 -15 -4l-16 -4q-37 0 -64.5 25t-27.5 65zM53 702q0 38 25.5 65.5t64.5 27.5t66 -27t27 -66t-27.5 -64.5t-65.5 -25.5t-64 26 t-26 64z" />
<glyph unicode="&#x3c;" horiz-adv-x="1124" d="M53 471v127l1018 471v-127l-887 -407l887 -408v-127z" />
<glyph unicode="=" horiz-adv-x="1124" d="M23 289v112h1077v-112h-1077zM23 686v113h1077v-113h-1077z" />
<glyph unicode="&#x3e;" horiz-adv-x="1124" d="M53 0v127l887 408l-887 407v127l1018 -471v-127z" />
<glyph unicode="?" horiz-adv-x="618" d="M25 1210q36 96 95.5 167t176.5 71q78 0 139 -37t95 -102t34 -142q0 -92 -40 -167.5t-150 -223.5q-58 -77 -91 -137t-47.5 -128t-11.5 -167h-14q-6 38 -6 111q0 95 20.5 159.5t79.5 153.5q74 112 102.5 176.5t28.5 151.5q0 79 -33 131.5t-82.5 77t-97.5 24.5 q-46 0 -100 -26t-86 -99zM147 51q0 39 25.5 65.5t65.5 26.5t66 -26t26 -66q0 -39 -26.5 -64.5t-65.5 -25.5t-65 26t-26 64z" />
<glyph unicode="@" horiz-adv-x="1704" d="M89 467q0 303 115 549t290.5 361.5t409.5 115.5q196 0 352.5 -96t251 -278.5t94.5 -403.5q0 -300 -174 -527q-147 -192 -320 -192q-82 0 -116.5 40.5t-41.5 126.5q-58 -82 -124.5 -124t-123.5 -42q-120 0 -202 109q-99 132 -99 340q0 168 71 327.5t168 235t190 75.5 q68 0 133 -46t112 -138l27 155h148l-119 -671q-24 -139 -24 -155q0 -29 17 -47.5t40 -18.5q44 0 125 70t136 203.5t55 282.5q0 178 -77 322t-212.5 225t-294.5 81q-189 0 -342 -102t-248.5 -303.5t-95.5 -460.5q0 -244 86 -415t245.5 -260t378.5 -89q197 0 346.5 82.5 t227.5 219.5h148q-49 -121 -161.5 -231.5t-248.5 -164.5t-313 -54q-259 0 -440 104t-285.5 306.5t-104.5 487.5zM553 434q0 -138 54.5 -213.5t122.5 -75.5q58 0 128 58.5t120 182.5t50 261q0 140 -56 214t-135 74q-61 0 -122.5 -52t-111.5 -186t-50 -263z" />
<glyph unicode="A" d="M25 0v16q74 7 118.5 56.5t77.5 150.5l416 1268h108l441 -1262q35 -98 66 -142t59.5 -55.5t72.5 -15.5v-16h-481v16q74 0 114 14t40 76q0 34 -19 91q-4 8 -4 12l-131 391h-510l-117 -362q-24 -74 -24 -119q0 -62 31 -82.5t88 -20.5v-16h-346zM410 653h469l-240 699h-4z " />
<glyph unicode="B" horiz-adv-x="1174" d="M72 0v16h20q56 0 96.5 40.5t40.5 121.5v1112q0 79 -37.5 122.5t-101.5 43.5h-18v17h481q95 0 175 -27.5t135.5 -76t85.5 -110t30 -133.5q0 -133 -86 -216t-231 -122v-4q66 -7 127 -21t110 -39t92 -65q39 -36 66 -79t41 -93.5t14 -103.5q0 -115 -59.5 -198t-134.5 -126 q-107 -59 -295 -59h-551zM381 221q0 -53 10.5 -88.5t57.5 -61.5t145 -26q203 0 289 135q59 93 59 209q0 84 -29.5 152t-81 113.5t-129.5 71.5t-170 26h-151v-531zM381 797h96q118 0 168 24q32 16 66.5 44t66 88t31.5 145q0 66 -21 125.5t-61 105.5t-95 72t-120 26 q-57 0 -131 -22v-608z" />
<glyph unicode="C" horiz-adv-x="1473" d="M109 717q0 215 106 399.5t287 292t393 107.5q131 0 279 -39l104 -29q30 -6 51 -6q39 0 52 11.5t20 41.5h16l-14 -352h-17q-19 108 -101.5 183t-189.5 109.5t-200 34.5q-127 0 -238.5 -53.5t-192.5 -151t-126 -234t-45 -296.5q0 -155 43.5 -287.5t127 -230t193.5 -147.5 t244 -50q112 0 246 45.5t242 151.5v-57q-133 -103 -243.5 -151t-275.5 -48q-174 0 -317.5 63.5t-242.5 171.5t-150 243t-51 278z" />
<glyph unicode="D" horiz-adv-x="1599" d="M76 0v16h20q69 0 103 52t34 110v1112q0 56 -18.5 94t-49.5 55t-69 17h-20v17h567q119 0 219.5 -20.5t180 -54.5t137.5 -74.5t98 -82.5q70 -70 119 -155.5t73.5 -180.5t24.5 -196t-24 -192t-69 -168.5t-107.5 -140.5t-145.5 -114q-71 -42 -163 -68t-249 -26h-661zM385 236 q0 -86 27.5 -126.5t85.5 -52.5t170 -12q160 0 270 31.5t213 140.5q76 81 122 198t46 283q0 131 -37 259.5t-113 228.5q-85 113 -218.5 177t-321.5 64q-97 0 -244 -24v-1167z" />
<glyph unicode="E" horiz-adv-x="1044" d="M72 0v16h20q47 0 92 38t45 124v1110q0 68 -30.5 118t-106.5 50h-20v17h878v-232h-14q0 186 -248 186h-307v-669h270q80 0 143 26t72 119h15v-334h-15q-9 57 -34 87.5t-49.5 40.5t-43.5 10q-36 6 -75 6h-283v-523q0 -59 22.5 -102t104.5 -43h219q79 0 130 23t80.5 64 t49.5 99h14l-51 -231h-878z" />
<glyph unicode="F" horiz-adv-x="1044" d="M70 0v16h20q60 0 99.5 45t39.5 117v1114q0 95 -43 129.5t-96 34.5h-20v17h884v-224h-16q-6 69 -50.5 123.5t-152.5 54.5h-354v-667h330q94 0 128 38.5t44 106.5h16v-334h-16q-6 63 -41.5 103.5t-130.5 40.5h-330v-537q0 -73 42 -117.5t101 -44.5h21v-16h-475z" />
<glyph unicode="G" horiz-adv-x="1599" d="M109 733q0 149 55.5 290t160 252.5t255.5 176t335 64.5q71 0 139 -9.5t203 -38.5q53 -12 76 -12q49 0 72 49h16v-338h-16q-32 144 -170 223.5t-315 79.5q-92 0 -197.5 -28.5t-205.5 -103.5t-166 -217.5t-66 -358.5q0 -344 160.5 -550t515.5 -206q140 0 206 19t84.5 52 t18.5 89v270q0 96 -41.5 127t-124.5 41v17h479v-17q-66 -7 -102 -28.5t-48 -55.5t-12 -90v-410q-220 -59 -454 -59q-121 0 -239 20t-246 89t-226 204q-147 203 -147 459z" />
<glyph unicode="H" horiz-adv-x="1599" d="M70 0v16q76 0 116.5 42.5t40.5 119.5v1114q0 164 -157 164v17h469v-17q-83 0 -121.5 -45.5t-38.5 -118.5v-493h844v493q0 72 -39 118t-121 46v17h469v-17q-82 0 -120 -45.5t-38 -118.5v-1114q0 -162 158 -162v-16h-469v16q75 0 117.5 40.5t42.5 119.5v578h-844v-576 q0 -77 43.5 -119.5t116.5 -42.5v-16h-469z" />
<glyph unicode="I" horiz-adv-x="618" d="M76 0v16q64 0 110.5 37.5t46.5 124.5v1118q0 92 -46.5 126t-110.5 34v17h467v-17q-66 0 -112 -37t-46 -123v-1118q0 -85 49 -123.5t109 -38.5v-16h-467z" />
<glyph unicode="J" horiz-adv-x="725" d="M-63 -150l10 11q83 -68 184 -68q137 0 174 95t37 235v1169q0 159 -158 164v17h465v-17q-66 -2 -110.5 -40t-44.5 -124v-1208q0 -101 -27.5 -173t-72.5 -114t-97.5 -60t-106.5 -18q-61 0 -107.5 19t-79 46.5t-66.5 65.5z" />
<glyph unicode="K" horiz-adv-x="1366" d="M68 0v16q44 2 78 16.5t56.5 50t22.5 95.5v1118q0 93 -46.5 125.5t-110.5 34.5v17h467v-17q-158 -5 -158 -160v-544l565 565q0 -2 4 6q47 43 47 74q0 35 -27.5 44t-82.5 15v17h407v-17q-62 -4 -109.5 -15t-95.5 -55q-35 -33 -47.5 -44t-27.5 -25l-502 -496l600 -678 q70 -78 119.5 -98t126.5 -29v-16h-318l-659 745v-567q0 -157 158 -162v-16h-467z" />
<glyph unicode="L" horiz-adv-x="1024" d="M76 0v16h20q54 0 95.5 42.5t41.5 119.5v1112q0 92 -46.5 128t-110.5 38v17h471v-17q-62 -2 -110 -37t-48 -129v-1075q0 -96 48 -133t157 -37h127q83 0 132.5 20t78.5 61t59 116h17l-56 -242h-876z" />
<glyph unicode="M" horiz-adv-x="1749" d="M37 0v16q71 1 108 34t48.5 82.5t17.5 135.5l59 1080q0 6 -12 21.5t-29.5 31t-33.5 24.5q-34 21 -59 24.5t-70 6.5v17h342l456 -1205l463 1205h309v-17q-42 -5 -60 -8.5t-40 -20.5q-34 -26 -42.5 -49t-10.5 -80q-3 -9 0 -18l51 -1094q2 -69 33 -119t135 -51v-16h-477v16 q94 10 127 54q29 39 29 115q0 12 -1 24l-51 1132h-4l-520 -1341l-492 1292h-4l-53 -1044q-1 -19 -1 -35q-1 -61 11 -99q14 -48 46.5 -68t95.5 -30v-16h-371z" />
<glyph unicode="N" horiz-adv-x="1665" d="M6 1456v17h277l1114 -1248v951q0 107 -8.5 160t-45 85t-114.5 35v17h370v-17q-56 -7 -88.5 -21.5t-50.5 -57t-18 -122.5v-1292h-10l-1131 1262v-906q0 -113 9 -168t26 -79q37 -52 129 -56v-16h-369v16q62 3 96.5 26.5t49 86t14.5 188.5v961l-49 55q-65 74 -104 93.5 t-97 29.5z" />
<glyph unicode="O" horiz-adv-x="1772" d="M106 741q0 162 61.5 304.5t172 248.5t252 164t295.5 58q151 0 290 -55.5t249.5 -160.5t173.5 -249t63 -316q0 -207 -102.5 -385t-279.5 -283.5t-392 -105.5q-216 0 -396 105.5t-283.5 284.5t-103.5 390zM283 737q0 -190 50.5 -331.5t139 -231t195 -129t221.5 -39.5 q103 0 208.5 36.5t193 119t142 224t54.5 345.5q0 294 -104 460t-240 222.5t-256 56.5q-93 0 -193 -30.5t-194.5 -111.5t-155.5 -228t-61 -363z" />
<glyph unicode="P" horiz-adv-x="1110" d="M78 0v16q69 2 113.5 39.5t44.5 122.5v1114q0 51 -16 85t-37.5 48.5t-48 21.5t-36.5 9h-20v17h483q121 0 213.5 -33t154 -90t92 -128.5t30.5 -150.5q0 -77 -28.5 -148.5t-89.5 -127t-160 -88.5t-228 -33q-41 0 -158 12v-508q0 -157 160 -162v-16h-469zM387 727 q77 -14 152 -14q143 0 242.5 73.5t99.5 272.5q0 164 -87.5 269.5t-265.5 105.5q-69 0 -141 -13v-694z" />
<glyph unicode="Q" horiz-adv-x="1772" d="M106 741q0 219 109 397.5t288.5 278t385.5 99.5q158 0 300.5 -60t249 -167.5t165.5 -249t59 -300.5q0 -156 -62.5 -305t-181.5 -262q-54 -51 -99 -82t-87.5 -51t-88.5 -34.5t-89 -24.5v-5q6 0 43 -20q133 -76 194 -92.5t133 -16.5q89 0 144.5 28t138.5 99q2 0 6.5 4.5 t5.5 4.5l23 -15q-96 -110 -188 -179t-203 -69q-35 0 -70 6t-88.5 24t-124.5 52q-123 58 -338 168q-2 2 -24 13q-85 26 -123.5 40.5t-100.5 50t-124.5 93.5t-116.5 137q-42 61 -73 134.5t-47 152t-16 151.5zM283 745q0 -201 53 -346.5t145 -234.5q58 -55 126 -90t141.5 -50.5 t144.5 -15.5q127 0 237.5 47t186.5 135q170 198 170 539q0 220 -60 367.5t-152.5 228.5t-192.5 113t-195 32q-98 0 -199.5 -33t-195 -116t-151.5 -226.5t-58 -349.5z" />
<glyph unicode="R" horiz-adv-x="1343" d="M70 0v16q44 2 78 16.5t56.5 50t22.5 95.5v1114q0 88 -43 124t-94 36h-20v21h510q123 0 208.5 -38t133 -96.5t68 -123.5t20.5 -128q0 -80 -33.5 -153.5t-103 -126.5t-173.5 -72v-4q132 -64 244 -254l133 -225q90 -151 144.5 -191t107.5 -45v-16h-268q-17 22 -32 42.5 t-32 43.5q-10 15 -29.5 45.5t-23.5 34.5l-176 291q-53 89 -108.5 144.5t-103.5 79.5t-86.5 30t-90.5 6v-539q0 -157 160 -162v-16h-469zM379 756h84q132 0 216.5 38t122.5 108.5t38 172.5q0 85 -34 166.5t-115.5 137t-219.5 55.5q-56 0 -92 -9v-669z" />
<glyph unicode="S" horiz-adv-x="961" d="M59 -29v369h17q36 -162 140 -245t253 -83q112 0 179.5 42t93.5 102t26 120q0 124 -75.5 202.5t-229.5 160.5q-106 58 -157 90t-103.5 83t-83.5 120.5t-31 159.5q0 104 55 199t156 152.5t229 57.5q97 0 199 -33q16 -8 43 -8q33 0 45 45h16v-315h-16q-14 107 -93.5 187.5 t-209.5 80.5q-85 0 -151 -40t-102 -109t-36 -158q0 -69 21.5 -122.5t63.5 -94.5t99 -76.5t154 -89.5q162 -89 252 -177.5t90 -242.5q0 -94 -48.5 -181.5t-146.5 -143.5t-243 -56q-91 0 -161 19.5t-142 54.5q-30 10 -41 10q-21 0 -27.5 -15t-17.5 -65h-17z" />
<glyph unicode="T" horiz-adv-x="1366" d="M33 1186v360h16q16 -25 28 -37t31 -20.5t44.5 -12t60.5 -3.5h954q95 0 148 73h16v-360h-16q-11 144 -84 186.5t-180 42.5h-293v-1237q0 -157 160 -162v-16h-469v16q66 2 111.5 38.5t45.5 123.5v1237h-293q-107 0 -179.5 -42.5t-84.5 -186.5h-16z" />
<glyph unicode="U" horiz-adv-x="1599" d="M72 1456v17h463v-17q-102 -12 -130 -59t-28 -105v-721q0 -220 45 -325q48 -112 144 -175t218 -63q51 0 121 18t131 60q183 125 183 401v805q0 61 -28 108t-132 56v17h471v-17q-102 -5 -131 -57t-29 -105v-1116q0 -58 19.5 -91.5t54 -47.5t84.5 -23v-16h-309v244l-5 4 q-64 -149 -191.5 -218t-266.5 -69q-157 0 -282.5 75t-184.5 185q-42 78 -53 162.5t-11 175.5v733q0 66 -26.5 111t-126.5 53z" />
<glyph unicode="V" d="M20 1456v17h484v-17q-61 -6 -98 -24t-37 -86q0 -18 16 -74q2 -5 3.5 -10.5t2.5 -8.5l387 -1034h4l332 963q35 99 35 149q0 79 -33.5 100t-99.5 25v17h370v-17q-56 -7 -93 -38t-63 -80.5t-59 -131.5q-5 -5 -10 -24l-426 -1221h-14l-502 1321q0 4 -4 12q-29 85 -77 124 q-46 38 -114 38h-4z" />
<glyph unicode="W" horiz-adv-x="2091" d="M20 1456v17h457v-17q-60 -4 -90.5 -36t-30.5 -79q0 -36 17 -90l311 -995h4l334 995l-14 45q-20 65 -60 110.5t-125 49.5v17h471v-17q-80 -1 -103.5 -41t-23.5 -74q0 -43 15 -90l307 -995h4l313 922q14 37 25.5 87t11.5 85q0 68 -29.5 85t-95.5 21v17h353v-17 q-45 -9 -80 -33.5t-69 -81t-71 -163.5l-413 -1217h-15l-376 1217h-5l-409 -1217h-15l-419 1342q-23 71 -55 103t-58.5 39.5t-65.5 10.5z" />
<glyph unicode="X" horiz-adv-x="1493" d="M20 0v16h7q126 0 213 107q61 73 67 82l359 495l-365 551q-84 130 -141 164.5t-129 40.5v17h530v-17q-72 -4 -97.5 -31.5t-25.5 -60.5q0 -53 51 -133l267 -402l295 402q63 89 63 139q0 26 -20.5 54t-92.5 32v17h385v-17q-50 -6 -98 -29.5t-112 -105.5q-72 -86 -82 -102 l-314 -428l373 -558q69 -104 126 -150.5t99 -56.5t95 -10v-16h-555v16q71 1 92.5 33t21.5 60q0 41 -41 104l-299 451l-301 -416q-57 -77 -57 -135q0 -29 24 -64q23 -33 95 -33h8v-16h-441z" />
<glyph unicode="Y" d="M20 1456v17h523v-17q-80 -3 -102.5 -34.5t-22.5 -59.5q0 -32 39 -90l307 -455l272 410q62 92 62 141q0 34 -16.5 53t-33.5 25t-36 10v17h374v-17q-66 -1 -117.5 -31t-80.5 -62.5t-62 -78.5l-344 -518v-590q0 -79 47.5 -118.5t114.5 -41.5v-16h-467v16q71 2 112.5 40.5 t41.5 119.5v565l-375 562q-60 91 -107.5 121t-128.5 32z" />
<glyph unicode="Z" horiz-adv-x="1323" d="M29 0v31l1018 1386h-705q-88 0 -143 -19.5t-88 -65.5t-48 -128h-16v269h1206v-29l-1020 -1389h707q118 0 184.5 25t95.5 62.5t60 103.5h16l-69 -246h-1198z" />
<glyph unicode="[" horiz-adv-x="618" d="M186 -190v1663h432v-19h-122q-114 0 -146.5 -53t-32.5 -123v-1278q0 -103 50.5 -138.5t138.5 -35.5h112v-16h-432z" />
<glyph unicode="\" horiz-adv-x="569" d="M2 1387h126l447 -1418h-129z" />
<glyph unicode="]" horiz-adv-x="618" d="M0 -174h113q100 0 144 39.5t44 134.5v1278q0 49 -11.5 86t-50.5 63.5t-116 26.5h-123v19h432v-1663h-432v16z" />
<glyph unicode="^" horiz-adv-x="1190" d="M147 666l411 718h82l404 -718h-159l-295 512l-290 -512h-153z" />
<glyph unicode="_" horiz-adv-x="1024" d="M-12 -154h1048v-102h-1048v102z" />
<glyph unicode="`" horiz-adv-x="682" d="M147 1939h125l197 -333h-37z" />
<glyph unicode="a" d="M25 0v16q74 7 118.5 56.5t77.5 150.5l416 1268h108l441 -1262q35 -98 66 -142t59.5 -55.5t72.5 -15.5v-16h-481v16q74 0 114 14t40 76q0 34 -19 91q-4 8 -4 12l-131 391h-510l-117 -362q-24 -74 -24 -119q0 -62 31 -82.5t88 -20.5v-16h-346zM410 653h469l-240 699h-4z " />
<glyph unicode="b" horiz-adv-x="1174" d="M72 0v16h20q56 0 96.5 40.5t40.5 121.5v1112q0 79 -37.5 122.5t-101.5 43.5h-18v17h481q95 0 175 -27.5t135.5 -76t85.5 -110t30 -133.5q0 -133 -86 -216t-231 -122v-4q66 -7 127 -21t110 -39t92 -65q39 -36 66 -79t41 -93.5t14 -103.5q0 -115 -59.5 -198t-134.5 -126 q-107 -59 -295 -59h-551zM381 221q0 -53 10.5 -88.5t57.5 -61.5t145 -26q203 0 289 135q59 93 59 209q0 84 -29.5 152t-81 113.5t-129.5 71.5t-170 26h-151v-531zM381 797h96q118 0 168 24q32 16 66.5 44t66 88t31.5 145q0 66 -21 125.5t-61 105.5t-95 72t-120 26 q-57 0 -131 -22v-608z" />
<glyph unicode="c" horiz-adv-x="1473" d="M109 717q0 215 106 399.5t287 292t393 107.5q131 0 279 -39l104 -29q30 -6 51 -6q39 0 52 11.5t20 41.5h16l-14 -352h-17q-19 108 -101.5 183t-189.5 109.5t-200 34.5q-127 0 -238.5 -53.5t-192.5 -151t-126 -234t-45 -296.5q0 -155 43.5 -287.5t127 -230t193.5 -147.5 t244 -50q112 0 246 45.5t242 151.5v-57q-133 -103 -243.5 -151t-275.5 -48q-174 0 -317.5 63.5t-242.5 171.5t-150 243t-51 278z" />
<glyph unicode="d" horiz-adv-x="1599" d="M76 0v16h20q69 0 103 52t34 110v1112q0 56 -18.5 94t-49.5 55t-69 17h-20v17h567q119 0 219.5 -20.5t180 -54.5t137.5 -74.5t98 -82.5q70 -70 119 -155.5t73.5 -180.5t24.5 -196t-24 -192t-69 -168.5t-107.5 -140.5t-145.5 -114q-71 -42 -163 -68t-249 -26h-661zM385 236 q0 -86 27.5 -126.5t85.5 -52.5t170 -12q160 0 270 31.5t213 140.5q76 81 122 198t46 283q0 131 -37 259.5t-113 228.5q-85 113 -218.5 177t-321.5 64q-97 0 -244 -24v-1167z" />
<glyph unicode="e" horiz-adv-x="1044" d="M72 0v16h20q47 0 92 38t45 124v1110q0 68 -30.5 118t-106.5 50h-20v17h878v-232h-14q0 186 -248 186h-307v-669h270q80 0 143 26t72 119h15v-334h-15q-9 57 -34 87.5t-49.5 40.5t-43.5 10q-36 6 -75 6h-283v-523q0 -59 22.5 -102t104.5 -43h219q79 0 130 23t80.5 64 t49.5 99h14l-51 -231h-878z" />
<glyph unicode="f" horiz-adv-x="1044" d="M70 0v16h20q60 0 99.5 45t39.5 117v1114q0 95 -43 129.5t-96 34.5h-20v17h884v-224h-16q-6 69 -50.5 123.5t-152.5 54.5h-354v-667h330q94 0 128 38.5t44 106.5h16v-334h-16q-6 63 -41.5 103.5t-130.5 40.5h-330v-537q0 -73 42 -117.5t101 -44.5h21v-16h-475z" />
<glyph unicode="g" horiz-adv-x="1599" d="M109 733q0 149 55.5 290t160 252.5t255.5 176t335 64.5q71 0 139 -9.5t203 -38.5q53 -12 76 -12q49 0 72 49h16v-338h-16q-32 144 -170 223.5t-315 79.5q-92 0 -197.5 -28.5t-205.5 -103.5t-166 -217.5t-66 -358.5q0 -344 160.5 -550t515.5 -206q140 0 206 19t84.5 52 t18.5 89v270q0 96 -41.5 127t-124.5 41v17h479v-17q-66 -7 -102 -28.5t-48 -55.5t-12 -90v-410q-220 -59 -454 -59q-121 0 -239 20t-246 89t-226 204q-147 203 -147 459z" />
<glyph unicode="h" horiz-adv-x="1599" d="M70 0v16q76 0 116.5 42.5t40.5 119.5v1114q0 164 -157 164v17h469v-17q-83 0 -121.5 -45.5t-38.5 -118.5v-493h844v493q0 72 -39 118t-121 46v17h469v-17q-82 0 -120 -45.5t-38 -118.5v-1114q0 -162 158 -162v-16h-469v16q75 0 117.5 40.5t42.5 119.5v578h-844v-576 q0 -77 43.5 -119.5t116.5 -42.5v-16h-469z" />
<glyph unicode="i" horiz-adv-x="618" d="M76 0v16q64 0 110.5 37.5t46.5 124.5v1118q0 92 -46.5 126t-110.5 34v17h467v-17q-66 0 -112 -37t-46 -123v-1118q0 -85 49 -123.5t109 -38.5v-16h-467z" />
<glyph unicode="j" horiz-adv-x="725" d="M-63 -150l10 11q83 -68 184 -68q137 0 174 95t37 235v1169q0 159 -158 164v17h465v-17q-66 -2 -110.5 -40t-44.5 -124v-1208q0 -101 -27.5 -173t-72.5 -114t-97.5 -60t-106.5 -18q-61 0 -107.5 19t-79 46.5t-66.5 65.5z" />
<glyph unicode="k" horiz-adv-x="1366" d="M68 0v16q44 2 78 16.5t56.5 50t22.5 95.5v1118q0 93 -46.5 125.5t-110.5 34.5v17h467v-17q-158 -5 -158 -160v-544l565 565q0 -2 4 6q47 43 47 74q0 35 -27.5 44t-82.5 15v17h407v-17q-62 -4 -109.5 -15t-95.5 -55q-35 -33 -47.5 -44t-27.5 -25l-502 -496l600 -678 q70 -78 119.5 -98t126.5 -29v-16h-318l-659 745v-567q0 -157 158 -162v-16h-467z" />
<glyph unicode="l" horiz-adv-x="1024" d="M76 0v16h20q54 0 95.5 42.5t41.5 119.5v1112q0 92 -46.5 128t-110.5 38v17h471v-17q-62 -2 -110 -37t-48 -129v-1075q0 -96 48 -133t157 -37h127q83 0 132.5 20t78.5 61t59 116h17l-56 -242h-876z" />
<glyph unicode="m" horiz-adv-x="1749" d="M37 0v16q71 1 108 34t48.5 82.5t17.5 135.5l59 1080q0 6 -12 21.5t-29.5 31t-33.5 24.5q-34 21 -59 24.5t-70 6.5v17h342l456 -1205l463 1205h309v-17q-42 -5 -60 -8.5t-40 -20.5q-34 -26 -42.5 -49t-10.5 -80q-3 -9 0 -18l51 -1094q2 -69 33 -119t135 -51v-16h-477v16 q94 10 127 54q29 39 29 115q0 12 -1 24l-51 1132h-4l-520 -1341l-492 1292h-4l-53 -1044q-1 -19 -1 -35q-1 -61 11 -99q14 -48 46.5 -68t95.5 -30v-16h-371z" />
<glyph unicode="n" horiz-adv-x="1665" d="M6 1456v17h277l1114 -1248v951q0 107 -8.5 160t-45 85t-114.5 35v17h370v-17q-56 -7 -88.5 -21.5t-50.5 -57t-18 -122.5v-1292h-10l-1131 1262v-906q0 -113 9 -168t26 -79q37 -52 129 -56v-16h-369v16q62 3 96.5 26.5t49 86t14.5 188.5v961l-49 55q-65 74 -104 93.5 t-97 29.5z" />
<glyph unicode="o" horiz-adv-x="1772" d="M106 741q0 162 61.5 304.5t172 248.5t252 164t295.5 58q151 0 290 -55.5t249.5 -160.5t173.5 -249t63 -316q0 -207 -102.5 -385t-279.5 -283.5t-392 -105.5q-216 0 -396 105.5t-283.5 284.5t-103.5 390zM283 737q0 -190 50.5 -331.5t139 -231t195 -129t221.5 -39.5 q103 0 208.5 36.5t193 119t142 224t54.5 345.5q0 294 -104 460t-240 222.5t-256 56.5q-93 0 -193 -30.5t-194.5 -111.5t-155.5 -228t-61 -363z" />
<glyph unicode="p" horiz-adv-x="1110" d="M78 0v16q69 2 113.5 39.5t44.5 122.5v1114q0 51 -16 85t-37.5 48.5t-48 21.5t-36.5 9h-20v17h483q121 0 213.5 -33t154 -90t92 -128.5t30.5 -150.5q0 -77 -28.5 -148.5t-89.5 -127t-160 -88.5t-228 -33q-41 0 -158 12v-508q0 -157 160 -162v-16h-469zM387 727 q77 -14 152 -14q143 0 242.5 73.5t99.5 272.5q0 164 -87.5 269.5t-265.5 105.5q-69 0 -141 -13v-694z" />
<glyph unicode="q" horiz-adv-x="1772" d="M106 741q0 219 109 397.5t288.5 278t385.5 99.5q158 0 300.5 -60t249 -167.5t165.5 -249t59 -300.5q0 -156 -62.5 -305t-181.5 -262q-54 -51 -99 -82t-87.5 -51t-88.5 -34.5t-89 -24.5v-5q6 0 43 -20q133 -76 194 -92.5t133 -16.5q89 0 144.5 28t138.5 99q2 0 6.5 4.5 t5.5 4.5l23 -15q-96 -110 -188 -179t-203 -69q-35 0 -70 6t-88.5 24t-124.5 52q-123 58 -338 168q-2 2 -24 13q-85 26 -123.5 40.5t-100.5 50t-124.5 93.5t-116.5 137q-42 61 -73 134.5t-47 152t-16 151.5zM283 745q0 -201 53 -346.5t145 -234.5q58 -55 126 -90t141.5 -50.5 t144.5 -15.5q127 0 237.5 47t186.5 135q170 198 170 539q0 220 -60 367.5t-152.5 228.5t-192.5 113t-195 32q-98 0 -199.5 -33t-195 -116t-151.5 -226.5t-58 -349.5z" />
<glyph unicode="r" horiz-adv-x="1343" d="M70 0v16q44 2 78 16.5t56.5 50t22.5 95.5v1114q0 88 -43 124t-94 36h-20v21h510q123 0 208.5 -38t133 -96.5t68 -123.5t20.5 -128q0 -80 -33.5 -153.5t-103 -126.5t-173.5 -72v-4q132 -64 244 -254l133 -225q90 -151 144.5 -191t107.5 -45v-16h-268q-17 22 -32 42.5 t-32 43.5q-10 15 -29.5 45.5t-23.5 34.5l-176 291q-53 89 -108.5 144.5t-103.5 79.5t-86.5 30t-90.5 6v-539q0 -157 160 -162v-16h-469zM379 756h84q132 0 216.5 38t122.5 108.5t38 172.5q0 85 -34 166.5t-115.5 137t-219.5 55.5q-56 0 -92 -9v-669z" />
<glyph unicode="s" horiz-adv-x="961" d="M59 -29v369h17q36 -162 140 -245t253 -83q112 0 179.5 42t93.5 102t26 120q0 124 -75.5 202.5t-229.5 160.5q-106 58 -157 90t-103.5 83t-83.5 120.5t-31 159.5q0 104 55 199t156 152.5t229 57.5q97 0 199 -33q16 -8 43 -8q33 0 45 45h16v-315h-16q-14 107 -93.5 187.5 t-209.5 80.5q-85 0 -151 -40t-102 -109t-36 -158q0 -69 21.5 -122.5t63.5 -94.5t99 -76.5t154 -89.5q162 -89 252 -177.5t90 -242.5q0 -94 -48.5 -181.5t-146.5 -143.5t-243 -56q-91 0 -161 19.5t-142 54.5q-30 10 -41 10q-21 0 -27.5 -15t-17.5 -65h-17z" />
<glyph unicode="t" horiz-adv-x="1366" d="M33 1186v360h16q16 -25 28 -37t31 -20.5t44.5 -12t60.5 -3.5h954q95 0 148 73h16v-360h-16q-11 144 -84 186.5t-180 42.5h-293v-1237q0 -157 160 -162v-16h-469v16q66 2 111.5 38.5t45.5 123.5v1237h-293q-107 0 -179.5 -42.5t-84.5 -186.5h-16z" />
<glyph unicode="u" horiz-adv-x="1599" d="M72 1456v17h463v-17q-102 -12 -130 -59t-28 -105v-721q0 -220 45 -325q48 -112 144 -175t218 -63q51 0 121 18t131 60q183 125 183 401v805q0 61 -28 108t-132 56v17h471v-17q-102 -5 -131 -57t-29 -105v-1116q0 -58 19.5 -91.5t54 -47.5t84.5 -23v-16h-309v244l-5 4 q-64 -149 -191.5 -218t-266.5 -69q-157 0 -282.5 75t-184.5 185q-42 78 -53 162.5t-11 175.5v733q0 66 -26.5 111t-126.5 53z" />
<glyph unicode="v" d="M20 1456v17h484v-17q-61 -6 -98 -24t-37 -86q0 -18 16 -74q2 -5 3.5 -10.5t2.5 -8.5l387 -1034h4l332 963q35 99 35 149q0 79 -33.5 100t-99.5 25v17h370v-17q-56 -7 -93 -38t-63 -80.5t-59 -131.5q-5 -5 -10 -24l-426 -1221h-14l-502 1321q0 4 -4 12q-29 85 -77 124 q-46 38 -114 38h-4z" />
<glyph unicode="w" horiz-adv-x="2091" d="M20 1456v17h457v-17q-60 -4 -90.5 -36t-30.5 -79q0 -36 17 -90l311 -995h4l334 995l-14 45q-20 65 -60 110.5t-125 49.5v17h471v-17q-80 -1 -103.5 -41t-23.5 -74q0 -43 15 -90l307 -995h4l313 922q14 37 25.5 87t11.5 85q0 68 -29.5 85t-95.5 21v17h353v-17 q-45 -9 -80 -33.5t-69 -81t-71 -163.5l-413 -1217h-15l-376 1217h-5l-409 -1217h-15l-419 1342q-23 71 -55 103t-58.5 39.5t-65.5 10.5z" />
<glyph unicode="x" horiz-adv-x="1493" d="M20 0v16h7q126 0 213 107q61 73 67 82l359 495l-365 551q-84 130 -141 164.5t-129 40.5v17h530v-17q-72 -4 -97.5 -31.5t-25.5 -60.5q0 -53 51 -133l267 -402l295 402q63 89 63 139q0 26 -20.5 54t-92.5 32v17h385v-17q-50 -6 -98 -29.5t-112 -105.5q-72 -86 -82 -102 l-314 -428l373 -558q69 -104 126 -150.5t99 -56.5t95 -10v-16h-555v16q71 1 92.5 33t21.5 60q0 41 -41 104l-299 451l-301 -416q-57 -77 -57 -135q0 -29 24 -64q23 -33 95 -33h8v-16h-441z" />
<glyph unicode="y" d="M20 1456v17h523v-17q-80 -3 -102.5 -34.5t-22.5 -59.5q0 -32 39 -90l307 -455l272 410q62 92 62 141q0 34 -16.5 53t-33.5 25t-36 10v17h374v-17q-66 -1 -117.5 -31t-80.5 -62.5t-62 -78.5l-344 -518v-590q0 -79 47.5 -118.5t114.5 -41.5v-16h-467v16q71 2 112.5 40.5 t41.5 119.5v565l-375 562q-60 91 -107.5 121t-128.5 32z" />
<glyph unicode="z" horiz-adv-x="1323" d="M29 0v31l1018 1386h-705q-88 0 -143 -19.5t-88 -65.5t-48 -128h-16v269h1206v-29l-1020 -1389h707q118 0 184.5 25t95.5 62.5t60 103.5h16l-69 -246h-1198z" />
<glyph unicode="{" horiz-adv-x="618" d="M74 621v36q81 23 114 37.5t66 53.5q57 64 57 129q0 52 -14 122q-29 145 -29 187q0 64 21 125t64.5 115t112 93t152.5 52v-41q-76 -12 -125.5 -47t-73.5 -83.5t-24 -96.5q0 -32 15 -115q17 -94 22.5 -132t5.5 -79q0 -70 -52 -167t-232 -169q67 -26 132 -72.5t107.5 -117 t42.5 -158.5q0 -48 -26 -180q-19 -89 -19 -136q0 -63 44.5 -131t182.5 -102v-35q-161 30 -256.5 137.5t-95.5 247.5q0 57 15 127q17 64 22 101q8 27 8 63q0 72 -37.5 122.5t-91.5 77.5t-108 36z" />
<glyph unicode="|" horiz-adv-x="410" d="M133 -362v1740h143v-1740h-143z" />
<glyph unicode="}" horiz-adv-x="618" d="M0 -252q110 18 165.5 85.5t55.5 143.5q0 53 -12 113q-31 155 -31 211q0 71 51.5 168t233.5 170q-115 46 -199 132t-84 216q0 49 27 180q18 90 18 133q0 66 -44 134.5t-181 99.5v37q79 -13 145 -49t111.5 -87.5t70.5 -115t25 -133.5q0 -60 -16 -127q-4 -33 -23 -103 q-6 -30 -6 -61q0 -106 74.5 -164t163.5 -72v-36q-71 -18 -108.5 -35t-74.5 -56q-57 -59 -57 -131q0 -52 17 -120q26 -139 26 -189q0 -86 -38.5 -166.5t-116.5 -139t-193 -77.5v39z" />
<glyph unicode="~" horiz-adv-x="1065" d="M12 387q8 164 81.5 243.5t178.5 79.5q53 0 104 -14q101 -29 279 -105q96 -42 147 -56q30 -8 65 -8q71 0 119.5 47t57.5 135h57q-6 -159 -82.5 -241t-186.5 -82q-53 0 -112.5 17t-262.5 102q-146 61 -211 61q-68 0 -113.5 -41.5t-62.5 -137.5h-58z" />
<glyph unicode="&#xa1;" horiz-adv-x="342" d="M80 1360q0 39 27.5 64.5t64.5 25.5q27 0 47 -11.5t31.5 -31.5t11.5 -47q0 -37 -25.5 -64.5t-64.5 -27.5q-38 0 -65 27t-27 65zM92 100q0 9 2 43t3.5 66t2.5 47q5 51 11.5 139t9.5 137q1 2 7.5 88t10.5 131.5t6 75.5q14 160 19 236h12q10 -69 23 -240q0 3 8 -99t21 -251 t20 -221q3 -16 6.5 -60t3.5 -75q0 -156 -86 -156q-80 0 -80 139z" />
<glyph unicode="&#xa2;" horiz-adv-x="1071" d="M106 432q0 105 37.5 197t102.5 160t149 104.5t174 36.5q44 0 57 -0.5t23.5 -2t22.5 -3.5l84 258h43l-88 -271q4 -1 21.5 -4.5t41.5 -11.5q30 -10 53 -10q39 0 64 43h47v-316h-39q-26 123 -81.5 176t-121.5 76l-241 -751q27 -17 51.5 -32t52 -23.5t66.5 -8.5 q117 0 195.5 56t144.5 133v-66q-12 -12 -29.5 -33.5t-24.5 -27.5q-59 -59 -122 -88.5t-118 -37.5t-106 -8q-80 0 -145 21l-92 -279h-43l96 293q-101 38 -188 136t-87 284zM285 506q0 -100 26.5 -179.5t60 -125t50.5 -56.5l233 732q-48 8 -69 8q-68 0 -138 -38.5 t-116.5 -124.5t-46.5 -216z" />
<glyph unicode="&#xa3;" horiz-adv-x="1194" d="M18 106v11q68 26 102.5 71t61.5 146q30 107 76 409h-176v115h192q23 117 49 207t87.5 196.5t171.5 180.5t270 74q60 0 150 -18.5t172 -80.5l-84 -227h-13q4 28 4 57q0 107 -60.5 163t-162.5 56q-157 0 -237 -96q-55 -60 -91 -141t-53 -154q-39 -169 -45 -217h283v-115 h-305q-9 -76 -29.5 -188.5t-48.5 -213.5t-58 -159q133 -38 246 -63.5t205 -38t160 -12.5q52 0 124.5 13.5t112.5 53.5l13 -8q-41 -88 -123.5 -127t-206.5 -39q-96 0 -179.5 14.5t-324.5 69.5q-169 38 -254 55q-14 0 -29 6z" />
<glyph unicode="&#xa4;" horiz-adv-x="1024" d="M21 1070l93 92l133 -135q124 90 261 90q134 0 271 -90l138 135l89 -87l-140 -140q87 -122 87 -260q0 -135 -87 -265l129 -128l-92 -91l-130 129q-80 -50 -136.5 -67.5t-126.5 -17.5q-74 0 -132.5 19t-130.5 66l-133 -129l-88 91l131 128q-88 117 -88 261q0 70 22 140 t66 124zM197 675q0 -130 92 -221.5t221 -91.5q130 0 221.5 91.5t91.5 221.5q0 129 -91.5 220.5t-221.5 91.5t-221.5 -91.5t-91.5 -220.5z" />
<glyph unicode="&#xa5;" d="M18 1456v17h523v-17q-80 -3 -102.5 -34.5t-22.5 -59.5q0 -32 39 -90l307 -455l272 410q62 92 62 141q0 34 -16.5 53t-33.5 25t-36 10v17h374v-17q-66 -1 -117.5 -31t-80.5 -62.5t-62 -78.5l-313 -473h487v-45h-516v-291h516v-45h-516v-252q0 -97 54 -129.5t106 -32.5v-16 h-465v16q41 1 72 15t43 26q39 34 39 121v252h-518v45h518v266l-19 25h-499v45h471l-330 492q-60 91 -107.5 121t-128.5 32z" />
<glyph unicode="&#xa6;" horiz-adv-x="532" d="M188 360h157v-791h-157v791zM188 701v790h157v-790h-157z" />
<glyph unicode="&#xa7;" horiz-adv-x="934" d="M64 644q0 100 50.5 176.5t133.5 106.5q-52 62 -78.5 124t-26.5 124q0 135 86 225.5t219 90.5q141 0 230 -86.5t107 -260.5l-153 -19q-18 124 -62 171t-116 47q-70 0 -118.5 -47.5t-48.5 -113.5q0 -28 11.5 -56.5t33.5 -57.5q44 -58 236 -200q165 -124 214 -188 q73 -96 73 -216q0 -108 -55 -186q-36 -51 -132 -100q66 -61 98.5 -131t32.5 -150q0 -143 -92.5 -235.5t-237.5 -92.5q-146 0 -240.5 92.5t-114.5 268.5l149 26q24 -132 75 -183.5t134 -51.5q79 0 128.5 50t49.5 124q0 29 -9.5 56t-29.5 51q-59 75 -269 232 q-154 115 -200 180q-78 108 -78 230zM198 664q0 -63 38 -120.5t169 -151.5q113 -81 189 -148q59 37 90 87t31 100q0 58 -42.5 120t-184.5 169q-113 84 -168 138q-68 -48 -95 -94t-27 -100z" />
<glyph unicode="&#xa8;" horiz-adv-x="682" d="M43 1702q0 40 29 67t67 27q39 0 66.5 -27.5t27.5 -66.5q0 -38 -26.5 -67t-67.5 -29q-38 0 -67 29t-29 67zM446 1702q0 40 29 68t68 28q40 0 68 -28t28 -68q0 -37 -27.5 -66.5t-68.5 -29.5q-40 0 -68.5 29.5t-28.5 66.5z" />
<glyph unicode="&#xa9;" horiz-adv-x="1579" d="M82 666q0 192 95 354.5t259 257t352 94.5q191 0 354 -94t259 -256t96 -356q0 -193 -95.5 -356.5t-259 -258t-354.5 -94.5q-190 0 -353.5 95.5t-258 258.5t-94.5 355zM135 664q0 -177 87.5 -327.5t237 -238.5t328.5 -88q176 0 327.5 88.5t239 239t87.5 326.5 q0 179 -88 328.5t-238.5 237t-327.5 87.5q-176 0 -326.5 -87t-238.5 -238.5t-88 -327.5zM371 672q0 134 61 239t160 161t209 56q77 0 172 -34q6 -4 24.5 -10.5t36.5 -6.5q17 0 28 16.5t11 39.5h31l20 -293h-30q-24 88 -85.5 166.5t-199.5 78.5q-146 0 -224.5 -120 t-78.5 -285q0 -216 101 -302.5t220 -86.5q105 0 175 50t122 122l21 -14q-128 -220 -348 -220q-89 0 -165.5 31.5t-135.5 91.5t-92 142.5t-33 177.5z" />
<glyph unicode="&#xaa;" horiz-adv-x="618" d="M47 1079q0 75 60.5 109.5t142.5 54.5q56 12 123 37v39q0 74 -42 101.5t-81 27.5q-95 0 -144 -105q-8 -8 -8 -16l-43 12q19 63 70.5 120t157.5 57q101 0 174 -70q30 -30 37.5 -70t7.5 -96v-203q0 -39 4 -57.5t20 -18.5q24 0 35 52h43q-1 -63 -41 -91t-86 -28 q-47 0 -69 19.5t-35 47.5q-30 -30 -64.5 -48.5t-87.5 -18.5q-72 0 -123 44.5t-51 100.5zM178 1094q0 -48 28 -73.5t54 -25.5q70 0 113 66v176q-17 -7 -60 -20q-69 -20 -102 -44.5t-33 -78.5z" />
<glyph unicode="&#xab;" horiz-adv-x="725" d="M25 727l331 498h25l-207 -498l207 -498h-25zM340 727l332 498h24l-204 -498l204 -498h-24z" />
<glyph unicode="&#xac;" horiz-adv-x="1460" d="M31 477v113h1362v-590h-113v477h-1249z" />
<glyph unicode="&#xad;" horiz-adv-x="641" d="M55 690v82h529v-82h-529z" />
<glyph unicode="&#xae;" horiz-adv-x="1579" d="M82 670q0 192 95 354.5t259 257t352 94.5q146 0 274 -53.5t226.5 -151t153.5 -227t55 -274.5q0 -192 -95.5 -355.5t-258.5 -258.5t-355 -95q-143 0 -272.5 55t-227 153t-152 228.5t-54.5 272.5zM135 668q0 -178 88 -329t239 -239t326 -88q176 0 328 88.5t240 239 t88 328.5q0 137 -50.5 255.5t-141.5 209t-211 140.5t-253 50q-132 0 -250 -50t-210 -141t-142.5 -211t-50.5 -253zM391 244v35q61 0 85.5 12t30 38t5.5 91v526q0 60 -11 87t-35.5 35.5t-74.5 8.5v31h254q108 0 163 -5t99 -28q44 -19 85.5 -65t41.5 -125q0 -84 -55 -143 t-168 -72l166 -224q6 -6 12 -18q51 -71 84 -100t61.5 -38t61.5 -11v-35h-205q-8 16 -10 18q-5 9 -17 24t-28 36q-5 10 -14 22q-11 9 -11 14l-211 291h-69v-229q0 -65 10 -94t35.5 -37t81.5 -10v-35h-367zM631 690q96 -3 185 33t89 174q0 70 -45.5 119t-144.5 49 q-36 0 -84 -16v-359z" />
<glyph unicode="&#xaf;" horiz-adv-x="1024" d="M-12 1525v102h1048v-102h-1048z" />
<glyph unicode="&#xb0;" horiz-adv-x="819" d="M102 1096q0 64 23 119t67 98t100 66.5t118 23.5q61 0 117.5 -23.5t99.5 -66.5t66.5 -99.5t23.5 -117.5q0 -83 -42 -154.5t-112.5 -112.5t-152.5 -41q-83 0 -154 41.5t-112.5 112.5t-41.5 154zM184 1096q0 -94 66 -160t160 -66q61 0 113 31t82 82.5t30 112.5q0 60 -31 112 t-83 82.5t-113 30.5q-93 0 -159 -66t-65 -159z" />
<glyph unicode="&#xb1;" horiz-adv-x="1124" d="M20 0v113h1084v-113h-1084zM20 723v113h486v485h112v-485h486v-113h-486v-485h-112v485h-486z" />
<glyph unicode="&#xb2;" horiz-adv-x="682" d="M27 729q39 28 104 83.5t127 114.5t88 89q74 86 100.5 144t26.5 106q0 56 -27 95.5t-69 59t-90 19.5q-55 0 -110 -29t-81 -98h-43q15 60 52.5 105.5t96.5 71.5t132 26q119 0 188.5 -63t69.5 -148q0 -116 -108 -234.5t-296 -255.5v-4h361q60 0 90 53h31l-41 -135h-602z" />
<glyph unicode="&#xb3;" horiz-adv-x="598" d="M25 805v59l18 -14q53 -46 98 -66t105 -20q108 0 140 60.5t32 113.5q0 79 -56 129q-49 45 -149 45h-92v39h55q195 0 195 168q0 45 -17.5 81.5t-51 57.5t-77.5 21q-99 0 -143 -111h-31v148h31q5 -10 9.5 -12.5t14.5 -2.5q7 0 23 2l16 2q46 11 91 11q109 0 179 -54t70 -133 q0 -128 -135 -178l-31 -8v-4l31 -4q68 -12 132.5 -62.5t64.5 -138.5q0 -96 -86.5 -160.5t-202.5 -64.5q-79 0 -129 26.5t-104 69.5z" />
<glyph unicode="&#xb4;" horiz-adv-x="682" d="M252 1606l207 327h121l-287 -327h-41z" />
<glyph unicode="&#xb5;" horiz-adv-x="1180" d="M72 -256q8 46 25 104t22.5 88.5t5.5 79.5v1008h176v-682q0 -169 107 -217q47 -20 85.5 -20.5t81.5 18.5q40 18 85.5 56.5t64.5 82.5v762h176v-786q0 -95 47 -144q49 -49 109 -16q25 15 35.5 35.5t17.5 53t10 40.5h41q-18 -77 -42.5 -125.5t-96.5 -87.5 q-66 -35 -122.5 -28.5t-88.5 30.5q-25 20 -38.5 37.5t-22 37.5t-13 42.5l-10.5 52.5q-49 -73 -143 -141q-81 -60 -193 -60q-42 0 -79 17.5t-68 43.5t-45 37v-47q3 -68 28 -148t33 -124q17 -94 -15 -147.5t-79 -53.5t-78.5 53t-15.5 148z" />
<glyph unicode="&#xb6;" horiz-adv-x="901" d="M5 1044q0 133 48 230t132.5 144.5t207.5 47.5h518v-173h-117v-1700h-140v1700h-182v-1700h-135v1045q-148 9 -240 117t-92 289z" />
<glyph unicode="&#xb8;" horiz-adv-x="682" d="M106 -217q3 -2 15 -6q51 -17 88 -17q52 0 78 21.5t26 50.5t-16 42.5t-37 19.5l74 106h74l-58 -80q142 -11 142 -110q0 -66 -57.5 -90.5t-119.5 -24.5q-112 0 -209 51v37z" />
<glyph unicode="&#xb9;" horiz-adv-x="362" d="M35 729v21q94 0 94 77v568q0 78 -94 78v20h207v-666q0 -24 7.5 -40.5t29 -26.5t57.5 -10v-21h-301z" />
<glyph unicode="&#xba;" horiz-adv-x="748" d="M43 1225q0 83 46 150.5t121.5 104t156.5 36.5q67 0 128.5 -21.5t107.5 -61t72.5 -92t26.5 -116.5q0 -55 -22 -106.5t-63 -92.5t-103 -66.5t-141 -25.5q-94 0 -169 38t-118 104.5t-43 148.5zM182 1229q0 -113 49.5 -184.5t143.5 -71.5q82 0 123.5 49.5t53 105t11.5 99.5 q0 125 -49 187.5t-143 62.5q-96 0 -142.5 -73t-46.5 -175z" />
<glyph unicode="&#xbb;" horiz-adv-x="725" d="M29 229l204 498l-204 498h24l332 -498l-332 -498h-24zM344 229l207 498l-207 498h25l331 -498l-331 -498h-25z" />
<glyph unicode="&#xbc;" horiz-adv-x="1708" d="M107 1174v123q62 20 138 73t123 114h108v-751h-145v554q-102 -81 -224 -113zM252 -57l1102 1548h156l-1101 -1548h-157zM1047 123v123l405 474h122v-489h104v-108h-104v-154h-144v154h-383zM1200 231h230v263z" />
<glyph unicode="&#xbd;" horiz-adv-x="1708" d="M107 1174v123q62 20 138 73t123 114h108v-751h-145v554q-102 -81 -224 -113zM228 -57l1101 1548h157l-1101 -1548h-157zM1049 -31q6 56 48 113q62 87 206 191t171 135q37 41 37 84q0 48 -34.5 78.5t-103.5 30.5q-66 0 -98.5 -23.5t-53.5 -89.5l-151 15q29 112 101 164.5 t205 52.5q151 0 221.5 -59t70.5 -144q0 -84 -59 -159q-45 -56 -204 -172q-84 -61 -119 -96h386v-121h-623z" />
<glyph unicode="&#xbe;" horiz-adv-x="1708" d="M33 929l146 15q20 -60 52 -82q43 -30 102 -30q71 0 114 39t43 94q0 50 -36 80t-120 30q-50 -3 -58 -3l22 110q81 -1 118.5 29t37.5 73q0 37 -30 63t-89 26q-56 0 -87.5 -22t-54.5 -80l-143 23q41 106 103.5 148t182.5 42q144 0 209.5 -53.5t65.5 -133.5q0 -55 -35.5 -98 t-102.5 -62q89 -22 131 -72.5t42 -118.5q0 -93 -79 -162t-225 -69q-140 0 -214 55.5t-95 158.5zM252 -57l1101 1548h157l-1101 -1548h-157zM1047 123v123l404 474h123v-489h104v-108h-104v-154h-145v154h-382zM1200 231h229v263z" />
<glyph unicode="&#xbf;" horiz-adv-x="618" d="M53 242q0 66 19.5 119t52.5 103.5t119 168.5q59 80 91 138.5t46.5 126.5t11.5 167h15q6 -37 6 -111q0 -95 -21 -158.5t-80 -154.5q-72 -107 -101.5 -174t-29.5 -154q0 -115 68 -174t145 -59q47 0 101.5 26.5t85.5 98.5l12 -6q-36 -94 -95.5 -166t-176.5 -72 q-118 0 -193.5 81t-75.5 200zM289 1358q0 39 27.5 64.5t64.5 25.5q27 0 47 -11.5t31.5 -31.5t11.5 -47q0 -37 -25.5 -64.5t-64.5 -27.5q-38 0 -65 27t-27 65z" />
<glyph unicode="&#xc0;" d="M25 0v16q74 7 118.5 56.5t77.5 150.5l416 1268h108l441 -1262q35 -98 66 -142t59.5 -55.5t72.5 -15.5v-16h-481v16q74 0 114 14t40 76q0 34 -19 91q-4 8 -4 12l-131 391h-510l-117 -362q-24 -74 -24 -119q0 -62 31 -82.5t88 -20.5v-16h-346zM410 653h469l-240 699h-4z M512 1939h125l197 -333h-37z" />
<glyph unicode="&#xc1;" d="M25 0v16q74 7 118.5 56.5t77.5 150.5l416 1268h108l441 -1262q35 -98 66 -142t59.5 -55.5t72.5 -15.5v-16h-481v16q74 0 114 14t40 76q0 34 -19 91q-4 8 -4 12l-131 391h-510l-117 -362q-24 -74 -24 -119q0 -62 31 -82.5t88 -20.5v-16h-346zM410 653h469l-240 699h-4z M617 1606l207 327h121l-287 -327h-41z" />
<glyph unicode="&#xc2;" d="M25 0v16q74 7 118.5 56.5t77.5 150.5l416 1268h108l441 -1262q35 -98 66 -142t59.5 -55.5t72.5 -15.5v-16h-481v16q74 0 114 14t40 76q0 34 -19 91q-4 8 -4 12l-131 391h-510l-117 -362q-24 -74 -24 -119q0 -62 31 -82.5t88 -20.5v-16h-346zM406 1606l266 329h53 l281 -329h-43l-262 219l-252 -219h-43zM410 653h469l-240 699h-4z" />
<glyph unicode="&#xc3;" d="M25 0v16q74 7 118.5 56.5t77.5 150.5l416 1268h108l441 -1262q35 -98 66 -142t59.5 -55.5t72.5 -15.5v-16h-481v16q74 0 114 14t40 76q0 34 -19 91q-4 8 -4 12l-131 391h-510l-117 -362q-24 -74 -24 -119q0 -62 31 -82.5t88 -20.5v-16h-346zM408 1608q3 88 56.5 141 t119.5 53q29 0 61 -9t91 -30q90 -30 108 -35.5t37 -5.5q17 0 44.5 15t41.5 65h37q-13 -82 -59 -137t-115 -55q-37 0 -80 16l-82 29q-114 39 -145 39q-35 0 -51 -24t-29 -62h-35zM410 653h469l-240 699h-4z" />
<glyph unicode="&#xc4;" d="M25 0v16q74 7 118.5 56.5t77.5 150.5l416 1268h108l441 -1262q35 -98 66 -142t59.5 -55.5t72.5 -15.5v-16h-481v16q74 0 114 14t40 76q0 34 -19 91q-4 8 -4 12l-131 391h-510l-117 -362q-24 -74 -24 -119q0 -62 31 -82.5t88 -20.5v-16h-346zM408 1702q0 40 29 67t67 27 q39 0 66.5 -27.5t27.5 -66.5q0 -38 -26.5 -67t-67.5 -29q-38 0 -67 29t-29 67zM410 653h469l-240 699h-4zM811 1702q0 40 29 68t68 28q40 0 68 -28t28 -68q0 -37 -27.5 -66.5t-68.5 -29.5q-40 0 -68.5 29.5t-28.5 66.5z" />
<glyph unicode="&#xc5;" d="M25 0v16q74 7 118.5 56.5t77.5 150.5l416 1268h108l441 -1262q35 -98 66 -142t59.5 -55.5t72.5 -15.5v-16h-481v16q74 0 114 14t40 76q0 34 -19 91q-4 8 -4 12l-131 391h-510l-117 -362q-24 -74 -24 -119q0 -62 31 -82.5t88 -20.5v-16h-346zM410 653h469l-240 699h-4z M527 1786q0 47 23.5 89t64.5 66.5t90 24.5t90.5 -24.5t65.5 -66.5t24 -89t-24 -89t-65.5 -66.5t-90.5 -24.5q-46 0 -87.5 24t-66 65.5t-24.5 90.5zM586 1786q0 -50 35.5 -85.5t85.5 -35.5t84.5 35.5t34.5 85.5t-34.5 85.5t-84.5 35.5t-85.5 -35.5t-35.5 -85.5z" />
<glyph unicode="&#xc6;" horiz-adv-x="1686" d="M25 0v16q65 9 104.5 45t77.5 115l645 1297h735v-218h-16q0 44 -25 83.5t-63.5 64t-79.5 24.5h-389v-659h289q73 0 133.5 30.5t60.5 116.5h16v-333h-16q0 78 -58 109.5t-130 31.5h-295v-547q0 -68 31 -99.5t104 -31.5h201q77 0 127.5 18t85.5 60.5t57 109.5h16l-49 -233 h-882v16q157 4 157 160v547h-332l-217 -436l-4 -11q-57 -114 -57 -167q0 -37 18 -56.5t41.5 -26t59.5 -10.5v-16h-346zM549 768h313v631h-4z" />
<glyph unicode="&#xc7;" horiz-adv-x="1473" d="M106 713q0 193 94 379t282 305t450 119q122 0 221 -29q144 -45 188 -45q30 0 39 15t15 40h16l-10 -354h-17q-18 109 -100 183t-190 109t-203 35q-169 0 -306 -92t-215.5 -259.5t-78.5 -383.5q0 -212 76.5 -374t216.5 -251.5t319 -89.5q263 0 483 197v-57 q-88 -73 -153 -111t-138.5 -57t-201.5 -33l-27 -39q142 -11 142 -110q0 -66 -57.5 -90.5t-119.5 -24.5q-112 0 -210 51v37q1 -1 16 -6q51 -17 88 -17q52 0 78 21.5t26 50.5t-16 42.5t-37 19.5l45 65q-130 18 -217 41.5t-188 93t-185 197.5q-43 64 -71.5 138.5t-41 144.5 t-12.5 139z" />
<glyph unicode="&#xc8;" horiz-adv-x="1044" d="M72 0v16h20q47 0 92 38t45 124v1110q0 68 -30.5 118t-106.5 50h-20v17h878v-232h-14q0 186 -248 186h-307v-669h270q80 0 143 26t72 119h15v-334h-15q-9 57 -34 87.5t-49.5 40.5t-43.5 10q-36 6 -75 6h-283v-523q0 -59 22.5 -102t104.5 -43h219q79 0 130 23t80.5 64 t49.5 99h14l-51 -231h-878zM329 1939h125l197 -333h-37z" />
<glyph unicode="&#xc9;" horiz-adv-x="1044" d="M72 0v16h20q47 0 92 38t45 124v1110q0 68 -30.5 118t-106.5 50h-20v17h878v-232h-14q0 186 -248 186h-307v-669h270q80 0 143 26t72 119h15v-334h-15q-9 57 -34 87.5t-49.5 40.5t-43.5 10q-36 6 -75 6h-283v-523q0 -59 22.5 -102t104.5 -43h219q79 0 130 23t80.5 64 t49.5 99h14l-51 -231h-878zM434 1606l207 327h121l-287 -327h-41z" />
<glyph unicode="&#xca;" horiz-adv-x="1044" d="M72 0v16h20q47 0 92 38t45 124v1110q0 68 -30.5 118t-106.5 50h-20v17h878v-232h-14q0 186 -248 186h-307v-669h270q80 0 143 26t72 119h15v-334h-15q-9 57 -34 87.5t-49.5 40.5t-43.5 10q-36 6 -75 6h-283v-523q0 -59 22.5 -102t104.5 -43h219q79 0 130 23t80.5 64 t49.5 99h14l-51 -231h-878zM223 1606l266 329h53l281 -329h-43l-262 219l-252 -219h-43z" />
<glyph unicode="&#xcb;" horiz-adv-x="1044" d="M72 0v16h20q47 0 92 38t45 124v1110q0 68 -30.5 118t-106.5 50h-20v17h878v-232h-14q0 186 -248 186h-307v-669h270q80 0 143 26t72 119h15v-334h-15q-9 57 -34 87.5t-49.5 40.5t-43.5 10q-36 6 -75 6h-283v-523q0 -59 22.5 -102t104.5 -43h219q79 0 130 23t80.5 64 t49.5 99h14l-51 -231h-878zM246 1702q0 40 29 67t67 27q39 0 66.5 -27.5t27.5 -66.5q0 -38 -26.5 -67t-67.5 -29q-38 0 -67 29t-29 67zM649 1702q0 40 29 68t68 28q40 0 68 -28t28 -68q0 -37 -27.5 -66.5t-68.5 -29.5q-40 0 -68.5 29.5t-28.5 66.5z" />
<glyph unicode="&#xcc;" horiz-adv-x="618" d="M76 0v16q64 0 110.5 37.5t46.5 124.5v1118q0 92 -46.5 126t-110.5 34v17h467v-17q-66 0 -112 -37t-46 -123v-1118q0 -85 49 -123.5t109 -38.5v-16h-467zM116 1939h125l197 -333h-37z" />
<glyph unicode="&#xcd;" horiz-adv-x="618" d="M76 0v16q64 0 110.5 37.5t46.5 124.5v1118q0 92 -46.5 126t-110.5 34v17h467v-17q-66 0 -112 -37t-46 -123v-1118q0 -85 49 -123.5t109 -38.5v-16h-467zM221 1606l207 327h121l-287 -327h-41z" />
<glyph unicode="&#xce;" horiz-adv-x="618" d="M10 1606l266 329h53l281 -329h-43l-262 219l-252 -219h-43zM76 0v16q64 0 110.5 37.5t46.5 124.5v1118q0 92 -46.5 126t-110.5 34v17h467v-17q-66 0 -112 -37t-46 -123v-1118q0 -85 49 -123.5t109 -38.5v-16h-467z" />
<glyph unicode="&#xcf;" horiz-adv-x="618" d="M12 1702q0 40 29 67t67 27q39 0 66.5 -27.5t27.5 -66.5q0 -38 -26.5 -67t-67.5 -29q-38 0 -67 29t-29 67zM76 0v16q64 0 110.5 37.5t46.5 124.5v1118q0 92 -46.5 126t-110.5 34v17h467v-17q-66 0 -112 -37t-46 -123v-1118q0 -85 49 -123.5t109 -38.5v-16h-467zM415 1702 q0 40 29 68t68 28q40 0 68 -28t28 -68q0 -37 -27.5 -66.5t-68.5 -29.5q-40 0 -68.5 29.5t-28.5 66.5z" />
<glyph unicode="&#xd0;" horiz-adv-x="1599" d="M76 0v16h20q69 0 103 52t34 110v535h-157v45h157v532q0 71 -37 118.5t-100 47.5h-20v17h567q214 0 376.5 -65.5t270.5 -180.5q70 -73 115 -157.5t67.5 -177t22.5 -183.5q0 -101 -24 -192t-69 -168.5t-107.5 -140.5t-145.5 -114q-71 -42 -163 -68t-249 -26h-661zM385 221 q0 -62 20.5 -99t55.5 -52t80.5 -20t126.5 -5q160 0 270 31.5t213 140.5q76 81 122 198t46 283q0 131 -37 259.5t-113 228.5q-85 113 -218.5 177t-321.5 64q-97 0 -244 -24v-645h395v-45h-395v-492z" />
<glyph unicode="&#xd1;" horiz-adv-x="1665" d="M6 1456v17h277l1114 -1248v951q0 107 -8.5 160t-45 85t-114.5 35v17h370v-17q-56 -7 -88.5 -21.5t-50.5 -57t-18 -122.5v-1292h-10l-1131 1262v-906q0 -113 9 -168t26 -79q37 -52 129 -56v-16h-369v16q62 3 96.5 26.5t49 86t14.5 188.5v961l-49 55q-65 74 -104 93.5 t-97 29.5zM535 1608q3 88 56.5 141t119.5 53q29 0 61 -9t91 -30q90 -30 108 -35.5t37 -5.5q17 0 44.5 15t41.5 65h37q-13 -82 -59 -137t-115 -55q-37 0 -80 16l-82 29q-114 39 -145 39q-35 0 -51 -24t-29 -62h-35z" />
<glyph unicode="&#xd2;" horiz-adv-x="1772" d="M106 741q0 162 61.5 304.5t172 248.5t252 164t295.5 58q151 0 290 -55.5t249.5 -160.5t173.5 -249t63 -316q0 -207 -102.5 -385t-279.5 -283.5t-392 -105.5q-216 0 -396 105.5t-283.5 284.5t-103.5 390zM283 737q0 -190 50.5 -331.5t139 -231t195 -129t221.5 -39.5 q103 0 208.5 36.5t193 119t142 224t54.5 345.5q0 294 -104 460t-240 222.5t-256 56.5q-93 0 -193 -30.5t-194.5 -111.5t-155.5 -228t-61 -363zM692 1939h125l197 -333h-37z" />
<glyph unicode="&#xd3;" horiz-adv-x="1772" d="M106 741q0 162 61.5 304.5t172 248.5t252 164t295.5 58q151 0 290 -55.5t249.5 -160.5t173.5 -249t63 -316q0 -207 -102.5 -385t-279.5 -283.5t-392 -105.5q-216 0 -396 105.5t-283.5 284.5t-103.5 390zM283 737q0 -190 50.5 -331.5t139 -231t195 -129t221.5 -39.5 q103 0 208.5 36.5t193 119t142 224t54.5 345.5q0 294 -104 460t-240 222.5t-256 56.5q-93 0 -193 -30.5t-194.5 -111.5t-155.5 -228t-61 -363zM797 1606l207 327h121l-287 -327h-41z" />
<glyph unicode="&#xd4;" horiz-adv-x="1772" d="M106 741q0 162 61.5 304.5t172 248.5t252 164t295.5 58q151 0 290 -55.5t249.5 -160.5t173.5 -249t63 -316q0 -207 -102.5 -385t-279.5 -283.5t-392 -105.5q-216 0 -396 105.5t-283.5 284.5t-103.5 390zM283 737q0 -190 50.5 -331.5t139 -231t195 -129t221.5 -39.5 q103 0 208.5 36.5t193 119t142 224t54.5 345.5q0 294 -104 460t-240 222.5t-256 56.5q-93 0 -193 -30.5t-194.5 -111.5t-155.5 -228t-61 -363zM586 1606l266 329h53l281 -329h-43l-262 219l-252 -219h-43z" />
<glyph unicode="&#xd5;" horiz-adv-x="1772" d="M106 741q0 162 61.5 304.5t172 248.5t252 164t295.5 58q151 0 290 -55.5t249.5 -160.5t173.5 -249t63 -316q0 -207 -102.5 -385t-279.5 -283.5t-392 -105.5q-216 0 -396 105.5t-283.5 284.5t-103.5 390zM283 737q0 -190 50.5 -331.5t139 -231t195 -129t221.5 -39.5 q103 0 208.5 36.5t193 119t142 224t54.5 345.5q0 294 -104 460t-240 222.5t-256 56.5q-93 0 -193 -30.5t-194.5 -111.5t-155.5 -228t-61 -363zM588 1608q3 88 56.5 141t119.5 53q29 0 61 -9t91 -30q90 -30 108 -35.5t37 -5.5q17 0 44.5 15t41.5 65h37q-13 -82 -59 -137 t-115 -55q-37 0 -80 16l-82 29q-114 39 -145 39q-35 0 -51 -24t-29 -62h-35z" />
<glyph unicode="&#xd6;" horiz-adv-x="1772" d="M106 741q0 162 61.5 304.5t172 248.5t252 164t295.5 58q151 0 290 -55.5t249.5 -160.5t173.5 -249t63 -316q0 -207 -102.5 -385t-279.5 -283.5t-392 -105.5q-216 0 -396 105.5t-283.5 284.5t-103.5 390zM283 737q0 -190 50.5 -331.5t139 -231t195 -129t221.5 -39.5 q103 0 208.5 36.5t193 119t142 224t54.5 345.5q0 294 -104 460t-240 222.5t-256 56.5q-93 0 -193 -30.5t-194.5 -111.5t-155.5 -228t-61 -363zM588 1702q0 40 29 67t67 27q39 0 66.5 -27.5t27.5 -66.5q0 -38 -26.5 -67t-67.5 -29q-38 0 -67 29t-29 67zM991 1702q0 40 29 68 t68 28q40 0 68 -28t28 -68q0 -37 -27.5 -66.5t-68.5 -29.5q-40 0 -68.5 29.5t-28.5 66.5z" />
<glyph unicode="&#xd7;" horiz-adv-x="1167" d="M154 1019l93 93l340 -340l340 339l92 -92l-339 -340l340 -340l-93 -93l-340 340l-338 -337l-92 92l337 337z" />
<glyph unicode="&#xd8;" horiz-adv-x="1772" d="M109 741q0 163 62.5 306t169.5 248t247.5 163t296.5 58q94 0 184 -22t168.5 -61t144.5 -94q0 -1 1.5 -2t2.5 -2l160 181l35 -29l-162 -180q123 -114 183.5 -263t60.5 -305q0 -212 -102.5 -390t-281 -283t-390.5 -105q-281 0 -500 178l-160 -180l-32 29l159 180 q-139 134 -193 286t-54 287zM285 737q0 -179 36.5 -294.5t96.5 -202.5l909 1028q-44 52 -97.5 91.5t-113 64.5t-114 35.5t-117.5 10.5q-128 0 -264 -60t-236 -225t-100 -448zM446 203q80 -101 195.5 -149t247.5 -48q131 0 266.5 61t233.5 225.5t98 446.5q0 192 -38.5 304.5 t-92.5 189.5z" />
<glyph unicode="&#xd9;" horiz-adv-x="1599" d="M72 1456v17h463v-17q-102 -12 -130 -59t-28 -105v-721q0 -220 45 -325q48 -112 144 -175t218 -63q51 0 121 18t131 60q183 125 183 401v805q0 61 -28 108t-132 56v17h471v-17q-102 -5 -131 -57t-29 -105v-1116q0 -58 19.5 -91.5t54 -47.5t84.5 -23v-16h-309v244l-5 4 q-64 -149 -191.5 -218t-266.5 -69q-157 0 -282.5 75t-184.5 185q-42 78 -53 162.5t-11 175.5v733q0 66 -26.5 111t-126.5 53zM606 1939h125l197 -333h-37z" />
<glyph unicode="&#xda;" horiz-adv-x="1599" d="M72 1456v17h463v-17q-102 -12 -130 -59t-28 -105v-721q0 -220 45 -325q48 -112 144 -175t218 -63q51 0 121 18t131 60q183 125 183 401v805q0 61 -28 108t-132 56v17h471v-17q-102 -5 -131 -57t-29 -105v-1116q0 -58 19.5 -91.5t54 -47.5t84.5 -23v-16h-309v244l-5 4 q-64 -149 -191.5 -218t-266.5 -69q-157 0 -282.5 75t-184.5 185q-42 78 -53 162.5t-11 175.5v733q0 66 -26.5 111t-126.5 53zM711 1606l207 327h121l-287 -327h-41z" />
<glyph unicode="&#xdb;" horiz-adv-x="1599" d="M72 1456v17h463v-17q-102 -12 -130 -59t-28 -105v-721q0 -220 45 -325q48 -112 144 -175t218 -63q51 0 121 18t131 60q183 125 183 401v805q0 61 -28 108t-132 56v17h471v-17q-102 -5 -131 -57t-29 -105v-1116q0 -58 19.5 -91.5t54 -47.5t84.5 -23v-16h-309v244l-5 4 q-64 -149 -191.5 -218t-266.5 -69q-157 0 -282.5 75t-184.5 185q-42 78 -53 162.5t-11 175.5v733q0 66 -26.5 111t-126.5 53zM500 1606l266 329h53l281 -329h-43l-262 219l-252 -219h-43z" />
<glyph unicode="&#xdc;" horiz-adv-x="1599" d="M72 1456v17h463v-17q-102 -12 -130 -59t-28 -105v-721q0 -220 45 -325q48 -112 144 -175t218 -63q51 0 121 18t131 60q183 125 183 401v805q0 61 -28 108t-132 56v17h471v-17q-102 -5 -131 -57t-29 -105v-1116q0 -58 19.5 -91.5t54 -47.5t84.5 -23v-16h-309v244l-5 4 q-64 -149 -191.5 -218t-266.5 -69q-157 0 -282.5 75t-184.5 185q-42 78 -53 162.5t-11 175.5v733q0 66 -26.5 111t-126.5 53zM502 1702q0 40 29 67t67 27q39 0 66.5 -27.5t27.5 -66.5q0 -38 -26.5 -67t-67.5 -29q-38 0 -67 29t-29 67zM905 1702q0 40 29 68t68 28 q40 0 68 -28t28 -68q0 -37 -27.5 -66.5t-68.5 -29.5q-40 0 -68.5 29.5t-28.5 66.5z" />
<glyph unicode="&#xdd;" d="M20 1456v17h523v-17q-80 -3 -102.5 -34.5t-22.5 -59.5q0 -32 39 -90l307 -455l272 410q62 92 62 141q0 34 -16.5 53t-33.5 25t-36 10v17h374v-17q-66 -1 -117.5 -31t-80.5 -62.5t-62 -78.5l-344 -518v-590q0 -79 47.5 -118.5t114.5 -41.5v-16h-467v16q71 2 112.5 40.5 t41.5 119.5v565l-375 562q-60 91 -107.5 121t-128.5 32zM617 1606l207 327h121l-287 -327h-41z" />
<glyph unicode="&#xde;" horiz-adv-x="1110" d="M78 0v16q69 2 113.5 39.5t44.5 122.5v1114q0 90 -46.5 126t-111.5 38v17h467v-17q-40 -2 -79.5 -19.5t-57.5 -45.5q-21 -31 -21 -99v-151h174q121 0 213.5 -33t154 -90t92 -128.5t30.5 -150.5q0 -76 -28 -146.5t-89.5 -126.5t-160.5 -89t-228 -33q-80 0 -158 12v-178 q0 -157 158 -162v-16h-467zM387 395q66 -12 150 -12q144 0 244 73t100 273q0 164 -87.5 268.5t-265.5 104.5q-58 0 -141 -10v-697z" />
<glyph unicode="&#xdf;" horiz-adv-x="1922" d="M59 -29v369h17q36 -162 140 -245t253 -83q112 0 179.5 42t93.5 102t26 120q0 124 -75.5 202.5t-229.5 160.5q-106 58 -157 90t-103.5 83t-83.5 120.5t-31 159.5q0 104 55 199t156 152.5t229 57.5q97 0 199 -33q16 -8 43 -8q33 0 45 45h16v-315h-16q-14 107 -93.5 187.5 t-209.5 80.5q-85 0 -151 -40t-102 -109t-36 -158q0 -69 21.5 -122.5t63.5 -94.5t99 -76.5t154 -89.5q162 -89 252 -177.5t90 -242.5q0 -94 -48.5 -181.5t-146.5 -143.5t-243 -56q-91 0 -161 19.5t-142 54.5q-30 10 -41 10q-21 0 -27.5 -15t-17.5 -65h-17zM1020 -29v369h17 q36 -162 140 -245t253 -83q112 0 179.5 42t93.5 102t26 120q0 124 -75.5 202.5t-229.5 160.5q-106 58 -157 90t-103.5 83t-83.5 120.5t-31 159.5q0 104 55 199t156 152.5t229 57.5q97 0 199 -33q16 -8 43 -8q33 0 45 45h16v-315h-16q-14 107 -93.5 187.5t-209.5 80.5 q-85 0 -151 -40t-102 -109t-36 -158q0 -69 21.5 -122.5t63.5 -94.5t99 -76.5t154 -89.5q162 -89 252 -177.5t90 -242.5q0 -94 -48.5 -181.5t-146.5 -143.5t-243 -56q-91 0 -161 19.5t-142 54.5q-30 10 -41 10q-21 0 -27.5 -15t-17.5 -65h-17z" />
<glyph unicode="&#xe0;" d="M25 0v16q74 7 118.5 56.5t77.5 150.5l416 1268h108l441 -1262q35 -98 66 -142t59.5 -55.5t72.5 -15.5v-16h-481v16q74 0 114 14t40 76q0 34 -19 91q-4 8 -4 12l-131 391h-510l-117 -362q-24 -74 -24 -119q0 -62 31 -82.5t88 -20.5v-16h-346zM410 653h469l-240 699h-4z M512 1939h125l197 -333h-37z" />
<glyph unicode="&#xe1;" d="M25 0v16q74 7 118.5 56.5t77.5 150.5l416 1268h108l441 -1262q35 -98 66 -142t59.5 -55.5t72.5 -15.5v-16h-481v16q74 0 114 14t40 76q0 34 -19 91q-4 8 -4 12l-131 391h-510l-117 -362q-24 -74 -24 -119q0 -62 31 -82.5t88 -20.5v-16h-346zM410 653h469l-240 699h-4z M617 1606l207 327h121l-287 -327h-41z" />
<glyph unicode="&#xe2;" d="M25 0v16q74 7 118.5 56.5t77.5 150.5l416 1268h108l441 -1262q35 -98 66 -142t59.5 -55.5t72.5 -15.5v-16h-481v16q74 0 114 14t40 76q0 34 -19 91q-4 8 -4 12l-131 391h-510l-117 -362q-24 -74 -24 -119q0 -62 31 -82.5t88 -20.5v-16h-346zM406 1606l266 329h53 l281 -329h-43l-262 219l-252 -219h-43zM410 653h469l-240 699h-4z" />
<glyph unicode="&#xe3;" d="M25 0v16q74 7 118.5 56.5t77.5 150.5l416 1268h108l441 -1262q35 -98 66 -142t59.5 -55.5t72.5 -15.5v-16h-481v16q74 0 114 14t40 76q0 34 -19 91q-4 8 -4 12l-131 391h-510l-117 -362q-24 -74 -24 -119q0 -62 31 -82.5t88 -20.5v-16h-346zM408 1608q3 88 56.5 141 t119.5 53q29 0 61 -9t91 -30q90 -30 108 -35.5t37 -5.5q17 0 44.5 15t41.5 65h37q-13 -82 -59 -137t-115 -55q-37 0 -80 16l-82 29q-114 39 -145 39q-35 0 -51 -24t-29 -62h-35zM410 653h469l-240 699h-4z" />
<glyph unicode="&#xe4;" d="M25 0v16q74 7 118.5 56.5t77.5 150.5l416 1268h108l441 -1262q35 -98 66 -142t59.5 -55.5t72.5 -15.5v-16h-481v16q74 0 114 14t40 76q0 34 -19 91q-4 8 -4 12l-131 391h-510l-117 -362q-24 -74 -24 -119q0 -62 31 -82.5t88 -20.5v-16h-346zM408 1702q0 40 29 67t67 27 q39 0 66.5 -27.5t27.5 -66.5q0 -38 -26.5 -67t-67.5 -29q-38 0 -67 29t-29 67zM410 653h469l-240 699h-4zM811 1702q0 40 29 68t68 28q40 0 68 -28t28 -68q0 -37 -27.5 -66.5t-68.5 -29.5q-40 0 -68.5 29.5t-28.5 66.5z" />
<glyph unicode="&#xe5;" d="M25 0v16q74 7 118.5 56.5t77.5 150.5l416 1268h108l441 -1262q35 -98 66 -142t59.5 -55.5t72.5 -15.5v-16h-481v16q74 0 114 14t40 76q0 34 -19 91q-4 8 -4 12l-131 391h-510l-117 -362q-24 -74 -24 -119q0 -62 31 -82.5t88 -20.5v-16h-346zM410 653h469l-240 699h-4z M527 1786q0 47 23.5 89t64.5 66.5t90 24.5t90.5 -24.5t65.5 -66.5t24 -89t-24 -89t-65.5 -66.5t-90.5 -24.5q-46 0 -87.5 24t-66 65.5t-24.5 90.5zM586 1786q0 -50 35.5 -85.5t85.5 -35.5t84.5 35.5t34.5 85.5t-34.5 85.5t-84.5 35.5t-85.5 -35.5t-35.5 -85.5z" />
<glyph unicode="&#xe6;" horiz-adv-x="1686" d="M25 0v16q65 9 104.5 45t77.5 115l645 1297h735v-218h-16q0 44 -25 83.5t-63.5 64t-79.5 24.5h-389v-659h289q73 0 133.5 30.5t60.5 116.5h16v-333h-16q0 78 -58 109.5t-130 31.5h-295v-547q0 -68 31 -99.5t104 -31.5h201q77 0 127.5 18t85.5 60.5t57 109.5h16l-49 -233 h-882v16q157 4 157 160v547h-332l-217 -436l-4 -11q-57 -114 -57 -167q0 -37 18 -56.5t41.5 -26t59.5 -10.5v-16h-346zM549 768h313v631h-4z" />
<glyph unicode="&#xe7;" horiz-adv-x="1473" d="M106 713q0 193 94 379t282 305t450 119q122 0 221 -29q144 -45 188 -45q30 0 39 15t15 40h16l-10 -354h-17q-18 109 -100 183t-190 109t-203 35q-169 0 -306 -92t-215.5 -259.5t-78.5 -383.5q0 -212 76.5 -374t216.5 -251.5t319 -89.5q263 0 483 197v-57 q-88 -73 -153 -111t-138.5 -57t-201.5 -33l-27 -39q142 -11 142 -110q0 -66 -57.5 -90.5t-119.5 -24.5q-112 0 -210 51v37q1 -1 16 -6q51 -17 88 -17q52 0 78 21.5t26 50.5t-16 42.5t-37 19.5l45 65q-130 18 -217 41.5t-188 93t-185 197.5q-43 64 -71.5 138.5t-41 144.5 t-12.5 139z" />
<glyph unicode="&#xe8;" horiz-adv-x="1044" d="M72 0v16h20q47 0 92 38t45 124v1110q0 68 -30.5 118t-106.5 50h-20v17h878v-232h-14q0 186 -248 186h-307v-669h270q80 0 143 26t72 119h15v-334h-15q-9 57 -34 87.5t-49.5 40.5t-43.5 10q-36 6 -75 6h-283v-523q0 -59 22.5 -102t104.5 -43h219q79 0 130 23t80.5 64 t49.5 99h14l-51 -231h-878zM329 1939h125l197 -333h-37z" />
<glyph unicode="&#xe9;" horiz-adv-x="1044" d="M72 0v16h20q47 0 92 38t45 124v1110q0 68 -30.5 118t-106.5 50h-20v17h878v-232h-14q0 186 -248 186h-307v-669h270q80 0 143 26t72 119h15v-334h-15q-9 57 -34 87.5t-49.5 40.5t-43.5 10q-36 6 -75 6h-283v-523q0 -59 22.5 -102t104.5 -43h219q79 0 130 23t80.5 64 t49.5 99h14l-51 -231h-878zM434 1606l207 327h121l-287 -327h-41z" />
<glyph unicode="&#xea;" horiz-adv-x="1044" d="M72 0v16h20q47 0 92 38t45 124v1110q0 68 -30.5 118t-106.5 50h-20v17h878v-232h-14q0 186 -248 186h-307v-669h270q80 0 143 26t72 119h15v-334h-15q-9 57 -34 87.5t-49.5 40.5t-43.5 10q-36 6 -75 6h-283v-523q0 -59 22.5 -102t104.5 -43h219q79 0 130 23t80.5 64 t49.5 99h14l-51 -231h-878zM223 1606l266 329h53l281 -329h-43l-262 219l-252 -219h-43z" />
<glyph unicode="&#xeb;" horiz-adv-x="1044" d="M72 0v16h20q47 0 92 38t45 124v1110q0 68 -30.5 118t-106.5 50h-20v17h878v-232h-14q0 186 -248 186h-307v-669h270q80 0 143 26t72 119h15v-334h-15q-9 57 -34 87.5t-49.5 40.5t-43.5 10q-36 6 -75 6h-283v-523q0 -59 22.5 -102t104.5 -43h219q79 0 130 23t80.5 64 t49.5 99h14l-51 -231h-878zM246 1702q0 40 29 67t67 27q39 0 66.5 -27.5t27.5 -66.5q0 -38 -26.5 -67t-67.5 -29q-38 0 -67 29t-29 67zM649 1702q0 40 29 68t68 28q40 0 68 -28t28 -68q0 -37 -27.5 -66.5t-68.5 -29.5q-40 0 -68.5 29.5t-28.5 66.5z" />
<glyph unicode="&#xec;" horiz-adv-x="618" d="M76 0v16q64 0 110.5 37.5t46.5 124.5v1118q0 92 -46.5 126t-110.5 34v17h467v-17q-66 0 -112 -37t-46 -123v-1118q0 -85 49 -123.5t109 -38.5v-16h-467zM116 1939h125l197 -333h-37z" />
<glyph unicode="&#xed;" horiz-adv-x="618" d="M76 0v16q64 0 110.5 37.5t46.5 124.5v1118q0 92 -46.5 126t-110.5 34v17h467v-17q-66 0 -112 -37t-46 -123v-1118q0 -85 49 -123.5t109 -38.5v-16h-467zM221 1606l207 327h121l-287 -327h-41z" />
<glyph unicode="&#xee;" horiz-adv-x="618" d="M10 1606l266 329h53l281 -329h-43l-262 219l-252 -219h-43zM76 0v16q64 0 110.5 37.5t46.5 124.5v1118q0 92 -46.5 126t-110.5 34v17h467v-17q-66 0 -112 -37t-46 -123v-1118q0 -85 49 -123.5t109 -38.5v-16h-467z" />
<glyph unicode="&#xef;" horiz-adv-x="618" d="M12 1702q0 40 29 67t67 27q39 0 66.5 -27.5t27.5 -66.5q0 -38 -26.5 -67t-67.5 -29q-38 0 -67 29t-29 67zM76 0v16q64 0 110.5 37.5t46.5 124.5v1118q0 92 -46.5 126t-110.5 34v17h467v-17q-66 0 -112 -37t-46 -123v-1118q0 -85 49 -123.5t109 -38.5v-16h-467zM415 1702 q0 40 29 68t68 28q40 0 68 -28t28 -68q0 -37 -27.5 -66.5t-68.5 -29.5q-40 0 -68.5 29.5t-28.5 66.5z" />
<glyph unicode="&#xf0;" horiz-adv-x="1599" d="M76 0v16h20q69 0 103 52t34 110v535h-157v45h157v532q0 71 -37 118.5t-100 47.5h-20v17h567q214 0 376.5 -65.5t270.5 -180.5q70 -73 115 -157.5t67.5 -177t22.5 -183.5q0 -101 -24 -192t-69 -168.5t-107.5 -140.5t-145.5 -114q-71 -42 -163 -68t-249 -26h-661zM385 221 q0 -62 20.5 -99t55.5 -52t80.5 -20t126.5 -5q160 0 270 31.5t213 140.5q76 81 122 198t46 283q0 131 -37 259.5t-113 228.5q-85 113 -218.5 177t-321.5 64q-97 0 -244 -24v-645h395v-45h-395v-492z" />
<glyph unicode="&#xf1;" horiz-adv-x="1665" d="M6 1456v17h277l1114 -1248v951q0 107 -8.5 160t-45 85t-114.5 35v17h370v-17q-56 -7 -88.5 -21.5t-50.5 -57t-18 -122.5v-1292h-10l-1131 1262v-906q0 -113 9 -168t26 -79q37 -52 129 -56v-16h-369v16q62 3 96.5 26.5t49 86t14.5 188.5v961l-49 55q-65 74 -104 93.5 t-97 29.5zM535 1608q3 88 56.5 141t119.5 53q29 0 61 -9t91 -30q90 -30 108 -35.5t37 -5.5q17 0 44.5 15t41.5 65h37q-13 -82 -59 -137t-115 -55q-37 0 -80 16l-82 29q-114 39 -145 39q-35 0 -51 -24t-29 -62h-35z" />
<glyph unicode="&#xf2;" horiz-adv-x="1772" d="M106 741q0 162 61.5 304.5t172 248.5t252 164t295.5 58q151 0 290 -55.5t249.5 -160.5t173.5 -249t63 -316q0 -207 -102.5 -385t-279.5 -283.5t-392 -105.5q-216 0 -396 105.5t-283.5 284.5t-103.5 390zM283 737q0 -190 50.5 -331.5t139 -231t195 -129t221.5 -39.5 q103 0 208.5 36.5t193 119t142 224t54.5 345.5q0 294 -104 460t-240 222.5t-256 56.5q-93 0 -193 -30.5t-194.5 -111.5t-155.5 -228t-61 -363zM692 1939h125l197 -333h-37z" />
<glyph unicode="&#xf3;" horiz-adv-x="1772" d="M106 741q0 162 61.5 304.5t172 248.5t252 164t295.5 58q151 0 290 -55.5t249.5 -160.5t173.5 -249t63 -316q0 -207 -102.5 -385t-279.5 -283.5t-392 -105.5q-216 0 -396 105.5t-283.5 284.5t-103.5 390zM283 737q0 -190 50.5 -331.5t139 -231t195 -129t221.5 -39.5 q103 0 208.5 36.5t193 119t142 224t54.5 345.5q0 294 -104 460t-240 222.5t-256 56.5q-93 0 -193 -30.5t-194.5 -111.5t-155.5 -228t-61 -363zM797 1606l207 327h121l-287 -327h-41z" />
<glyph unicode="&#xf4;" horiz-adv-x="1772" d="M106 741q0 162 61.5 304.5t172 248.5t252 164t295.5 58q151 0 290 -55.5t249.5 -160.5t173.5 -249t63 -316q0 -207 -102.5 -385t-279.5 -283.5t-392 -105.5q-216 0 -396 105.5t-283.5 284.5t-103.5 390zM283 737q0 -190 50.5 -331.5t139 -231t195 -129t221.5 -39.5 q103 0 208.5 36.5t193 119t142 224t54.5 345.5q0 294 -104 460t-240 222.5t-256 56.5q-93 0 -193 -30.5t-194.5 -111.5t-155.5 -228t-61 -363zM586 1606l266 329h53l281 -329h-43l-262 219l-252 -219h-43z" />
<glyph unicode="&#xf5;" horiz-adv-x="1772" d="M106 741q0 162 61.5 304.5t172 248.5t252 164t295.5 58q151 0 290 -55.5t249.5 -160.5t173.5 -249t63 -316q0 -207 -102.5 -385t-279.5 -283.5t-392 -105.5q-216 0 -396 105.5t-283.5 284.5t-103.5 390zM283 737q0 -190 50.5 -331.5t139 -231t195 -129t221.5 -39.5 q103 0 208.5 36.5t193 119t142 224t54.5 345.5q0 294 -104 460t-240 222.5t-256 56.5q-93 0 -193 -30.5t-194.5 -111.5t-155.5 -228t-61 -363zM588 1608q3 88 56.5 141t119.5 53q29 0 61 -9t91 -30q90 -30 108 -35.5t37 -5.5q17 0 44.5 15t41.5 65h37q-13 -82 -59 -137 t-115 -55q-37 0 -80 16l-82 29q-114 39 -145 39q-35 0 -51 -24t-29 -62h-35z" />
<glyph unicode="&#xf6;" horiz-adv-x="1772" d="M106 741q0 162 61.5 304.5t172 248.5t252 164t295.5 58q151 0 290 -55.5t249.5 -160.5t173.5 -249t63 -316q0 -207 -102.5 -385t-279.5 -283.5t-392 -105.5q-216 0 -396 105.5t-283.5 284.5t-103.5 390zM283 737q0 -190 50.5 -331.5t139 -231t195 -129t221.5 -39.5 q103 0 208.5 36.5t193 119t142 224t54.5 345.5q0 294 -104 460t-240 222.5t-256 56.5q-93 0 -193 -30.5t-194.5 -111.5t-155.5 -228t-61 -363zM588 1702q0 40 29 67t67 27q39 0 66.5 -27.5t27.5 -66.5q0 -38 -26.5 -67t-67.5 -29q-38 0 -67 29t-29 67zM991 1702q0 40 29 68 t68 28q40 0 68 -28t28 -68q0 -37 -27.5 -66.5t-68.5 -29.5q-40 0 -68.5 29.5t-28.5 66.5z" />
<glyph unicode="&#xf7;" horiz-adv-x="1124" d="M20 483v113h1078v-113h-1078zM434 260q0 48 33.5 81.5t81.5 33.5q30 0 56.5 -15t42.5 -42t16 -58q0 -47 -34 -81t-81 -34q-48 0 -81.5 34.5t-33.5 80.5zM434 819q0 48 33.5 81.5t81.5 33.5q30 0 56.5 -15t42.5 -42t16 -58q0 -47 -34.5 -80.5t-80.5 -33.5q-47 0 -81 34 t-34 80z" />
<glyph unicode="&#xf8;" horiz-adv-x="1772" d="M109 741q0 163 62.5 306t169.5 248t247.5 163t296.5 58q94 0 184 -22t168.5 -61t144.5 -94q0 -1 1.5 -2t2.5 -2l160 181l35 -29l-162 -180q123 -114 183.5 -263t60.5 -305q0 -212 -102.5 -390t-281 -283t-390.5 -105q-281 0 -500 178l-160 -180l-32 29l159 180 q-139 134 -193 286t-54 287zM285 737q0 -179 36.5 -294.5t96.5 -202.5l909 1028q-44 52 -97.5 91.5t-113 64.5t-114 35.5t-117.5 10.5q-128 0 -264 -60t-236 -225t-100 -448zM446 203q80 -101 195.5 -149t247.5 -48q131 0 266.5 61t233.5 225.5t98 446.5q0 192 -38.5 304.5 t-92.5 189.5z" />
<glyph unicode="&#xf9;" horiz-adv-x="1599" d="M72 1456v17h463v-17q-102 -12 -130 -59t-28 -105v-721q0 -220 45 -325q48 -112 144 -175t218 -63q51 0 121 18t131 60q183 125 183 401v805q0 61 -28 108t-132 56v17h471v-17q-102 -5 -131 -57t-29 -105v-1116q0 -58 19.5 -91.5t54 -47.5t84.5 -23v-16h-309v244l-5 4 q-64 -149 -191.5 -218t-266.5 -69q-157 0 -282.5 75t-184.5 185q-42 78 -53 162.5t-11 175.5v733q0 66 -26.5 111t-126.5 53zM606 1939h125l197 -333h-37z" />
<glyph unicode="&#xfa;" horiz-adv-x="1599" d="M72 1456v17h463v-17q-102 -12 -130 -59t-28 -105v-721q0 -220 45 -325q48 -112 144 -175t218 -63q51 0 121 18t131 60q183 125 183 401v805q0 61 -28 108t-132 56v17h471v-17q-102 -5 -131 -57t-29 -105v-1116q0 -58 19.5 -91.5t54 -47.5t84.5 -23v-16h-309v244l-5 4 q-64 -149 -191.5 -218t-266.5 -69q-157 0 -282.5 75t-184.5 185q-42 78 -53 162.5t-11 175.5v733q0 66 -26.5 111t-126.5 53zM711 1606l207 327h121l-287 -327h-41z" />
<glyph unicode="&#xfb;" horiz-adv-x="1599" d="M72 1456v17h463v-17q-102 -12 -130 -59t-28 -105v-721q0 -220 45 -325q48 -112 144 -175t218 -63q51 0 121 18t131 60q183 125 183 401v805q0 61 -28 108t-132 56v17h471v-17q-102 -5 -131 -57t-29 -105v-1116q0 -58 19.5 -91.5t54 -47.5t84.5 -23v-16h-309v244l-5 4 q-64 -149 -191.5 -218t-266.5 -69q-157 0 -282.5 75t-184.5 185q-42 78 -53 162.5t-11 175.5v733q0 66 -26.5 111t-126.5 53zM500 1606l266 329h53l281 -329h-43l-262 219l-252 -219h-43z" />
<glyph unicode="&#xfc;" horiz-adv-x="1599" d="M72 1456v17h463v-17q-102 -12 -130 -59t-28 -105v-721q0 -220 45 -325q48 -112 144 -175t218 -63q51 0 121 18t131 60q183 125 183 401v805q0 61 -28 108t-132 56v17h471v-17q-102 -5 -131 -57t-29 -105v-1116q0 -58 19.5 -91.5t54 -47.5t84.5 -23v-16h-309v244l-5 4 q-64 -149 -191.5 -218t-266.5 -69q-157 0 -282.5 75t-184.5 185q-42 78 -53 162.5t-11 175.5v733q0 66 -26.5 111t-126.5 53zM502 1702q0 40 29 67t67 27q39 0 66.5 -27.5t27.5 -66.5q0 -38 -26.5 -67t-67.5 -29q-38 0 -67 29t-29 67zM905 1702q0 40 29 68t68 28 q40 0 68 -28t28 -68q0 -37 -27.5 -66.5t-68.5 -29.5q-40 0 -68.5 29.5t-28.5 66.5z" />
<glyph unicode="&#xfd;" d="M20 1456v17h523v-17q-80 -3 -102.5 -34.5t-22.5 -59.5q0 -32 39 -90l307 -455l272 410q62 92 62 141q0 34 -16.5 53t-33.5 25t-36 10v17h374v-17q-66 -1 -117.5 -31t-80.5 -62.5t-62 -78.5l-344 -518v-590q0 -79 47.5 -118.5t114.5 -41.5v-16h-467v16q71 2 112.5 40.5 t41.5 119.5v565l-375 562q-60 91 -107.5 121t-128.5 32zM617 1606l207 327h121l-287 -327h-41z" />
<glyph unicode="&#xfe;" horiz-adv-x="1110" d="M78 0v16q69 2 113.5 39.5t44.5 122.5v1114q0 90 -46.5 126t-111.5 38v17h467v-17q-40 -2 -79.5 -19.5t-57.5 -45.5q-21 -31 -21 -99v-151h174q121 0 213.5 -33t154 -90t92 -128.5t30.5 -150.5q0 -76 -28 -146.5t-89.5 -126.5t-160.5 -89t-228 -33q-80 0 -158 12v-178 q0 -157 158 -162v-16h-467zM387 395q66 -12 150 -12q144 0 244 73t100 273q0 164 -87.5 268.5t-265.5 104.5q-58 0 -141 -10v-697z" />
<glyph unicode="&#xff;" d="M20 1456v17h523v-17q-80 -3 -102.5 -34.5t-22.5 -59.5q0 -32 39 -90l307 -455l272 410q62 92 62 141q0 34 -16.5 53t-33.5 25t-36 10v17h374v-17q-66 -1 -117.5 -31t-80.5 -62.5t-62 -78.5l-344 -518v-590q0 -79 47.5 -118.5t114.5 -41.5v-16h-467v16q71 2 112.5 40.5 t41.5 119.5v565l-375 562q-60 91 -107.5 121t-128.5 32zM408 1702q0 40 29 67t67 27q39 0 66.5 -27.5t27.5 -66.5q0 -38 -26.5 -67t-67.5 -29q-38 0 -67 29t-29 67zM811 1702q0 40 29 68t68 28q40 0 68 -28t28 -68q0 -37 -27.5 -66.5t-68.5 -29.5q-40 0 -68.5 29.5 t-28.5 66.5z" />
<glyph unicode="&#x152;" horiz-adv-x="2028" d="M121 731q0 167 66.5 305.5t181.5 239t255.5 153t288.5 52.5q76 0 152 -6l117 -2h760v-220h-17q-27 174 -250 174h-305v-659h256q135 0 178 40t51 97h17v-334h-17q-11 69 -43.5 110.5t-134.5 41.5h-307v-537q0 -35 6 -64t34.5 -53t86.5 -24h158q114 0 173.5 16t87 52.5 t54.5 115.5h17l-45 -229h-715q-11 0 -21.5 -0.5t-44 -2.5t-52.5 -4t-40 -3q-70 -6 -149 -6q-214 0 -369 69.5t-249.5 183t-137.5 243t-43 251.5zM297 735q0 -184 46 -308.5t118 -211.5q69 -84 179 -135t275 -51q132 0 197 35t82.5 81.5t26.5 122.5v889q0 145 -66.5 212 t-222.5 67q-133 0 -250 -45t-203 -133t-134 -222t-48 -301z" />
<glyph unicode="&#x153;" horiz-adv-x="2028" d="M121 731q0 167 66.5 305.5t181.5 239t255.5 153t288.5 52.5q76 0 152 -6l117 -2h760v-220h-17q-27 174 -250 174h-305v-659h256q135 0 178 40t51 97h17v-334h-17q-11 69 -43.5 110.5t-134.5 41.5h-307v-537q0 -35 6 -64t34.5 -53t86.5 -24h158q114 0 173.5 16t87 52.5 t54.5 115.5h17l-45 -229h-715q-11 0 -21.5 -0.5t-44 -2.5t-52.5 -4t-40 -3q-70 -6 -149 -6q-214 0 -369 69.5t-249.5 183t-137.5 243t-43 251.5zM297 735q0 -184 46 -308.5t118 -211.5q69 -84 179 -135t275 -51q132 0 197 35t82.5 81.5t26.5 122.5v889q0 145 -66.5 212 t-222.5 67q-133 0 -250 -45t-203 -133t-134 -222t-48 -301z" />
<glyph unicode="&#x178;" d="M20 1456v17h523v-17q-80 -3 -102.5 -34.5t-22.5 -59.5q0 -32 39 -90l307 -455l272 410q62 92 62 141q0 34 -16.5 53t-33.5 25t-36 10v17h374v-17q-66 -1 -117.5 -31t-80.5 -62.5t-62 -78.5l-344 -518v-590q0 -79 47.5 -118.5t114.5 -41.5v-16h-467v16q71 2 112.5 40.5 t41.5 119.5v565l-375 562q-60 91 -107.5 121t-128.5 32zM408 1702q0 40 29 67t67 27q39 0 66.5 -27.5t27.5 -66.5q0 -38 -26.5 -67t-67.5 -29q-38 0 -67 29t-29 67zM811 1702q0 40 29 68t68 28q40 0 68 -28t28 -68q0 -37 -27.5 -66.5t-68.5 -29.5q-40 0 -68.5 29.5 t-28.5 66.5z" />
<glyph unicode="&#x2c6;" horiz-adv-x="682" d="M41 1606l266 329h53l281 -329h-43l-262 219l-252 -219h-43z" />
<glyph unicode="&#x2dc;" horiz-adv-x="682" d="M43 1608q3 88 56.5 141t119.5 53q29 0 61 -9t91 -30q90 -30 108 -35.5t37 -5.5q17 0 44.5 15t41.5 65h37q-13 -82 -59 -137t-115 -55q-37 0 -80 16l-82 29q-114 39 -145 39q-35 0 -51 -24t-29 -62h-35z" />
<glyph unicode="&#x2000;" horiz-adv-x="983" />
<glyph unicode="&#x2001;" horiz-adv-x="1966" />
<glyph unicode="&#x2002;" horiz-adv-x="983" />
<glyph unicode="&#x2003;" horiz-adv-x="1966" />
<glyph unicode="&#x2004;" horiz-adv-x="655" />
<glyph unicode="&#x2005;" horiz-adv-x="491" />
<glyph unicode="&#x2006;" horiz-adv-x="327" />
<glyph unicode="&#x2007;" horiz-adv-x="327" />
<glyph unicode="&#x2008;" horiz-adv-x="245" />
<glyph unicode="&#x2009;" horiz-adv-x="393" />
<glyph unicode="&#x200a;" horiz-adv-x="109" />
<glyph unicode="&#x2010;" horiz-adv-x="641" d="M55 690v82h529v-82h-529z" />
<glyph unicode="&#x2011;" horiz-adv-x="641" d="M55 690v82h529v-82h-529z" />
<glyph unicode="&#x2012;" horiz-adv-x="641" d="M55 690v82h529v-82h-529z" />
<glyph unicode="&#x2013;" horiz-adv-x="1024" d="M-12 698v66h1048v-66h-1048z" />
<glyph unicode="&#x2014;" horiz-adv-x="2048" d="M-12 698v66h2072v-66h-2072z" />
<glyph unicode="&#x2018;" horiz-adv-x="299" d="M39 1229q0 89 48 166t146 123v-15q-56 -38 -86 -99.5t-30 -117.5q0 -63 22 -63q-2 0 12.5 3t20.5 3q23 0 43 -13t32.5 -35.5t12.5 -43.5q0 -34 -26 -61t-64 -27q-49 0 -90 46.5t-41 133.5z" />
<glyph unicode="&#x2019;" horiz-adv-x="299" d="M39 1432q0 42 27 63t63 21t66 -22.5t47.5 -63t17.5 -91.5q0 -92 -54 -173.5t-145 -116.5v14q64 42 91.5 103.5t27.5 115.5q0 59 -20 59h-51q-32 6 -51 31t-19 60z" />
<glyph unicode="&#x201a;" horiz-adv-x="299" d="M39 82q0 38 28 64t66 26q31 0 61 -22.5t48 -62.5t18 -89q0 -100 -51 -175t-148 -120v12q2 1 33.5 29.5t57.5 80.5t26 120q0 55 -16 55q-1 0 -15 -4l-16 -4q-37 0 -64.5 25t-27.5 65z" />
<glyph unicode="&#x201c;" horiz-adv-x="575" d="M39 1229q0 89 48 166t146 123v-15q-56 -38 -86 -99.5t-30 -117.5q0 -63 22 -63q-2 0 12.5 3t20.5 3q23 0 43 -13t32.5 -35.5t12.5 -43.5q0 -34 -26 -61t-64 -27q-49 0 -90 46.5t-41 133.5zM315 1229q0 87 49.5 165t147.5 124v-15q-57 -37 -87 -98t-30 -119q0 -63 23 -63 q-3 0 11.5 3t19.5 3q37 0 63.5 -27.5t26.5 -64.5q0 -33 -27.5 -60.5t-65.5 -27.5q-49 0 -90 46.5t-41 133.5z" />
<glyph unicode="&#x201d;" horiz-adv-x="575" d="M41 1432q0 42 27 63t63 21t66 -22.5t47.5 -63t17.5 -91.5q0 -92 -54 -173.5t-145 -116.5v14q64 42 91.5 103.5t27.5 115.5q0 59 -20 59h-51q-32 6 -51 31t-19 60zM317 1432q0 41 28 62.5t63 21.5q57 0 95 -50t38 -127q0 -92 -54 -173.5t-145 -116.5v14q62 42 89.5 105 t27.5 114q0 59 -21 59q-15 0 -31 -0.5t-20 0.5q-31 6 -50.5 31t-19.5 60z" />
<glyph unicode="&#x201e;" horiz-adv-x="575" d="M37 84q0 42 27 63t63 21t66 -22.5t47.5 -62.5t17.5 -91q0 -92 -54 -174t-145 -117v14q63 41 91 103t28 116q0 60 -20 60q-15 0 -31.5 -0.5t-20.5 0.5q-32 5 -50.5 31.5t-18.5 58.5zM313 84q0 42 27 63t63 21q38 0 68.5 -23t48 -64t17.5 -89q0 -92 -54 -174t-145 -117v14 q62 42 89.5 105t27.5 114q0 60 -21 60q-15 0 -31 -0.5t-20 0.5q-31 5 -50.5 30.5t-19.5 59.5z" />
<glyph unicode="&#x2022;" horiz-adv-x="575" d="M59 674q0 63 31 115.5t84 83t115 30.5q61 0 114 -30.5t84 -83t31 -115.5t-31 -114.5t-83.5 -82.5t-114.5 -31q-63 0 -115.5 31t-83.5 82.5t-31 114.5z" />
<glyph unicode="&#x2026;" horiz-adv-x="2048" d="M250 49q0 37 28 62.5t64 25.5q38 0 64 -26t26 -64q0 -37 -27 -61.5t-63 -24.5q-37 0 -64.5 25.5t-27.5 62.5zM932 49q0 37 28 62.5t64 25.5q38 0 64 -26t26 -64q0 -37 -27 -61.5t-63 -24.5q-37 0 -64.5 25.5t-27.5 62.5zM1616 49q0 37 27.5 62.5t62.5 25.5 q39 0 65.5 -26.5t26.5 -63.5t-27.5 -61.5t-64.5 -24.5q-36 0 -63 26t-27 62z" />
<glyph unicode="&#x202f;" horiz-adv-x="393" />
<glyph unicode="&#x2039;" horiz-adv-x="406" d="M23 727l331 498h25l-207 -498l207 -498h-25z" />
<glyph unicode="&#x203a;" horiz-adv-x="406" d="M27 229l206 498l-206 498h24l332 -498l-332 -498h-24z" />
<glyph unicode="&#x205f;" horiz-adv-x="491" />
<glyph unicode="&#x20ac;" horiz-adv-x="1366" d="M35 590l18 88h84l-2 35q0 48 4 80h-104l18 88h97q54 290 234.5 458t446.5 168q73 0 128.5 -9.5t156.5 -42.5q91 -30 105 -30q50 0 53 74h20l-14 -424h-20q-28 195 -168.5 286t-286.5 91q-216 0 -339.5 -144t-141.5 -427h835l-18 -88h-821v-31q0 -53 4 -84h802l-18 -88 h-778q32 -268 171.5 -407.5t340.5 -139.5q129 0 245.5 61.5t198.5 178.5v-80q-89 -112 -213.5 -176t-306.5 -64q-259 0 -421.5 167t-201.5 460h-108z" />
<glyph unicode="&#x2122;" horiz-adv-x="1855" d="M41 1284v189h674v-189h-25q-11 82 -40.5 110.5t-117.5 28.5h-92v-565q0 -77 9 -110t34 -43.5t74 -8.5v-32h-356v32q47 -2 72 8.5t34.5 43.5t9.5 110v565h-92q-51 0 -81.5 -9t-49.5 -38t-26 -92h-27zM786 664v32q57 0 80.5 10.5t29 37t5.5 94.5v458q0 61 -5.5 86.5 t-28.5 39t-81 18.5v33h238l295 -635l287 635h227v-33q-53 -3 -76.5 -11.5t-31 -33t-7.5 -84.5v-473q0 -90 19 -115.5t96 -26.5v-32h-346v32q54 0 78 10t32.5 39.5t8.5 92.5v514h-4l-308 -688h-16l-317 675h-5v-508q0 -66 5.5 -91t28.5 -34.5t83 -9.5v-32h-287z" />
<glyph unicode="&#x25fc;" horiz-adv-x="1475" d="M0 0v1475h1475v-1475h-1475z" />
</font>
</defs>
</svg>
